<mxfile host="app.diagrams.net" agent="Mozilla/5.0 (Macintosh; Intel Mac OS X 10.15; rv:130.0) Gecko/20100101 Firefox/130.0" version="24.7.16">
  <diagram id="D4XD-stfcbqHm6u8IKLA" name="Page-1">
    <mxGraphModel dx="2371" dy="3344" grid="1" gridSize="10" guides="1" tooltips="1" connect="1" arrows="1" fold="1" page="1" pageScale="1" pageWidth="850" pageHeight="1100" math="0" shadow="0">
      <root>
        <mxCell id="0" />
        <mxCell id="1" parent="0" />
        <mxCell id="1CHQfiaJzoFtv51jB6GE-18" value="" style="rounded=0;whiteSpace=wrap;html=1;fillColor=#e1d5e7;strokeColor=#9673a6;" vertex="1" parent="1">
          <mxGeometry x="255" y="-710" width="495" height="75" as="geometry" />
        </mxCell>
        <mxCell id="1CHQfiaJzoFtv51jB6GE-17" value="" style="rounded=0;whiteSpace=wrap;html=1;fillColor=#dae8fc;strokeColor=#6c8ebf;" vertex="1" parent="1">
          <mxGeometry x="255" y="-1282.5" width="495" height="75" as="geometry" />
        </mxCell>
        <mxCell id="1CHQfiaJzoFtv51jB6GE-11" value="" style="shape=partialRectangle;whiteSpace=wrap;html=1;bottom=1;right=1;left=1;top=0;fillColor=none;routingCenterX=-0.5;" vertex="1" parent="1">
          <mxGeometry x="550" y="-1130" width="80" height="310" as="geometry" />
        </mxCell>
        <mxCell id="1CHQfiaJzoFtv51jB6GE-2" value="" style="shape=partialRectangle;whiteSpace=wrap;html=1;bottom=1;right=1;left=1;top=0;fillColor=none;routingCenterX=-0.5;" vertex="1" parent="1">
          <mxGeometry x="390" y="-1130" width="80" height="310" as="geometry" />
        </mxCell>
        <mxCell id="s9SOw5TSL-tmGERgOmM0-3" style="rounded=0;orthogonalLoop=1;jettySize=auto;html=1;exitX=0;exitY=1;exitDx=0;exitDy=0;entryX=1;entryY=0;entryDx=0;entryDy=0;strokeWidth=5;" parent="1" source="s9SOw5TSL-tmGERgOmM0-1" target="s9SOw5TSL-tmGERgOmM0-2" edge="1">
          <mxGeometry relative="1" as="geometry" />
        </mxCell>
        <mxCell id="s9SOw5TSL-tmGERgOmM0-5" style="rounded=0;orthogonalLoop=1;jettySize=auto;html=1;exitX=1;exitY=1;exitDx=0;exitDy=0;entryX=0;entryY=0;entryDx=0;entryDy=0;strokeWidth=5;" parent="1" source="s9SOw5TSL-tmGERgOmM0-1" target="s9SOw5TSL-tmGERgOmM0-4" edge="1">
          <mxGeometry relative="1" as="geometry" />
        </mxCell>
        <mxCell id="s9SOw5TSL-tmGERgOmM0-1" value="&lt;font style=&quot;font-size: 40px;&quot;&gt;7&lt;/font&gt;" style="ellipse;whiteSpace=wrap;html=1;aspect=fixed;strokeWidth=5;" parent="1" vertex="1">
          <mxGeometry x="330" y="-280" width="80" height="80" as="geometry" />
        </mxCell>
        <mxCell id="s9SOw5TSL-tmGERgOmM0-9" style="edgeStyle=none;shape=connector;rounded=0;orthogonalLoop=1;jettySize=auto;html=1;exitX=0;exitY=1;exitDx=0;exitDy=0;entryX=1;entryY=0;entryDx=0;entryDy=0;labelBackgroundColor=default;strokeColor=default;strokeWidth=5;fontFamily=Helvetica;fontSize=11;fontColor=default;endArrow=classic;" parent="1" source="s9SOw5TSL-tmGERgOmM0-2" target="s9SOw5TSL-tmGERgOmM0-8" edge="1">
          <mxGeometry relative="1" as="geometry" />
        </mxCell>
        <mxCell id="VsR7F8Zh5hgwnbF70GJV-5" style="rounded=0;orthogonalLoop=1;jettySize=auto;html=1;strokeWidth=5;" parent="1" source="s9SOw5TSL-tmGERgOmM0-2" target="VsR7F8Zh5hgwnbF70GJV-2" edge="1">
          <mxGeometry relative="1" as="geometry" />
        </mxCell>
        <mxCell id="s9SOw5TSL-tmGERgOmM0-2" value="&lt;font style=&quot;font-size: 36px;&quot;&gt;2&lt;/font&gt;" style="ellipse;whiteSpace=wrap;html=1;aspect=fixed;strokeWidth=5;" parent="1" vertex="1">
          <mxGeometry x="195" y="-120" width="80" height="80" as="geometry" />
        </mxCell>
        <mxCell id="s9SOw5TSL-tmGERgOmM0-4" value="8" style="ellipse;whiteSpace=wrap;html=1;aspect=fixed;strokeWidth=5;fontSize=40;" parent="1" vertex="1">
          <mxGeometry x="440" y="-120" width="80" height="80" as="geometry" />
        </mxCell>
        <mxCell id="s9SOw5TSL-tmGERgOmM0-8" value="&lt;font style=&quot;font-size: 40px;&quot;&gt;1&lt;/font&gt;" style="ellipse;whiteSpace=wrap;html=1;aspect=fixed;strokeWidth=5;" parent="1" vertex="1">
          <mxGeometry x="70" y="40" width="80" height="80" as="geometry" />
        </mxCell>
        <mxCell id="VsR7F8Zh5hgwnbF70GJV-1" value="&lt;font style=&quot;font-size: 42px;&quot;&gt;1) BST Count Odds&lt;font style=&quot;font-size: 42px;&quot;&gt;&lt;br&gt;&lt;/font&gt;&lt;/font&gt;" style="text;html=1;align=center;verticalAlign=middle;resizable=0;points=[];autosize=1;strokeColor=none;fillColor=none;" parent="1" vertex="1">
          <mxGeometry x="-130" y="2360" width="390" height="60" as="geometry" />
        </mxCell>
        <mxCell id="VsR7F8Zh5hgwnbF70GJV-2" value="&lt;font style=&quot;font-size: 40px;&quot;&gt;5&lt;/font&gt;" style="ellipse;whiteSpace=wrap;html=1;aspect=fixed;strokeWidth=5;" parent="1" vertex="1">
          <mxGeometry x="280" y="50" width="80" height="80" as="geometry" />
        </mxCell>
        <mxCell id="VsR7F8Zh5hgwnbF70GJV-6" style="rounded=0;orthogonalLoop=1;jettySize=auto;html=1;exitX=0;exitY=1;exitDx=0;exitDy=0;entryX=1;entryY=0;entryDx=0;entryDy=0;strokeWidth=5;" parent="1" source="VsR7F8Zh5hgwnbF70GJV-8" target="VsR7F8Zh5hgwnbF70GJV-11" edge="1">
          <mxGeometry relative="1" as="geometry" />
        </mxCell>
        <mxCell id="VsR7F8Zh5hgwnbF70GJV-7" style="rounded=0;orthogonalLoop=1;jettySize=auto;html=1;exitX=1;exitY=1;exitDx=0;exitDy=0;entryX=0;entryY=0;entryDx=0;entryDy=0;strokeWidth=5;" parent="1" source="VsR7F8Zh5hgwnbF70GJV-8" target="VsR7F8Zh5hgwnbF70GJV-12" edge="1">
          <mxGeometry relative="1" as="geometry" />
        </mxCell>
        <mxCell id="VsR7F8Zh5hgwnbF70GJV-8" value="&lt;font style=&quot;font-size: 40px;&quot;&gt;7&lt;/font&gt;" style="ellipse;whiteSpace=wrap;html=1;aspect=fixed;strokeWidth=5;fillColor=#ffe6cc;strokeColor=#d79b00;" parent="1" vertex="1">
          <mxGeometry x="300" y="4470" width="80" height="80" as="geometry" />
        </mxCell>
        <mxCell id="VsR7F8Zh5hgwnbF70GJV-9" style="edgeStyle=none;shape=connector;rounded=0;orthogonalLoop=1;jettySize=auto;html=1;exitX=0;exitY=1;exitDx=0;exitDy=0;entryX=1;entryY=0;entryDx=0;entryDy=0;labelBackgroundColor=default;strokeColor=default;strokeWidth=5;fontFamily=Helvetica;fontSize=11;fontColor=default;endArrow=classic;" parent="1" source="VsR7F8Zh5hgwnbF70GJV-11" target="VsR7F8Zh5hgwnbF70GJV-13" edge="1">
          <mxGeometry relative="1" as="geometry" />
        </mxCell>
        <mxCell id="VsR7F8Zh5hgwnbF70GJV-10" style="rounded=0;orthogonalLoop=1;jettySize=auto;html=1;strokeWidth=5;" parent="1" source="VsR7F8Zh5hgwnbF70GJV-11" target="VsR7F8Zh5hgwnbF70GJV-15" edge="1">
          <mxGeometry relative="1" as="geometry" />
        </mxCell>
        <mxCell id="VsR7F8Zh5hgwnbF70GJV-11" value="&lt;font style=&quot;font-size: 36px;&quot;&gt;2&lt;/font&gt;" style="ellipse;whiteSpace=wrap;html=1;aspect=fixed;strokeWidth=5;fillColor=#f8cecc;strokeColor=#b85450;" parent="1" vertex="1">
          <mxGeometry x="105" y="4630" width="80" height="80" as="geometry" />
        </mxCell>
        <mxCell id="VsR7F8Zh5hgwnbF70GJV-19" style="edgeStyle=none;shape=connector;rounded=0;orthogonalLoop=1;jettySize=auto;html=1;labelBackgroundColor=default;strokeColor=default;strokeWidth=5;align=center;verticalAlign=middle;fontFamily=Helvetica;fontSize=11;fontColor=default;endArrow=classic;" parent="1" source="VsR7F8Zh5hgwnbF70GJV-12" target="VsR7F8Zh5hgwnbF70GJV-18" edge="1">
          <mxGeometry relative="1" as="geometry" />
        </mxCell>
        <mxCell id="VsR7F8Zh5hgwnbF70GJV-21" style="edgeStyle=none;shape=connector;rounded=0;orthogonalLoop=1;jettySize=auto;html=1;labelBackgroundColor=default;strokeColor=default;strokeWidth=5;align=center;verticalAlign=middle;fontFamily=Helvetica;fontSize=11;fontColor=default;endArrow=classic;" parent="1" source="VsR7F8Zh5hgwnbF70GJV-12" target="VsR7F8Zh5hgwnbF70GJV-20" edge="1">
          <mxGeometry relative="1" as="geometry" />
        </mxCell>
        <mxCell id="VsR7F8Zh5hgwnbF70GJV-12" value="9" style="ellipse;whiteSpace=wrap;html=1;aspect=fixed;strokeWidth=5;fontSize=40;fillColor=#f8cecc;strokeColor=#b85450;" parent="1" vertex="1">
          <mxGeometry x="490" y="4630" width="80" height="80" as="geometry" />
        </mxCell>
        <mxCell id="VsR7F8Zh5hgwnbF70GJV-13" value="&lt;font style=&quot;font-size: 40px;&quot;&gt;1&lt;/font&gt;" style="ellipse;whiteSpace=wrap;html=1;aspect=fixed;strokeWidth=5;fillColor=#d5e8d4;strokeColor=#82b366;" parent="1" vertex="1">
          <mxGeometry x="-50" y="4790" width="80" height="80" as="geometry" />
        </mxCell>
        <mxCell id="VsR7F8Zh5hgwnbF70GJV-14" value="&lt;font style=&quot;font-size: 42px;&quot;&gt;2) BST &lt;font style=&quot;font-size: 42px;&quot;&gt;Count Internal&lt;br&gt;&lt;/font&gt;&lt;/font&gt;" style="text;html=1;align=center;verticalAlign=middle;resizable=0;points=[];autosize=1;strokeColor=none;fillColor=none;" parent="1" vertex="1">
          <mxGeometry x="-140" y="3270" width="430" height="60" as="geometry" />
        </mxCell>
        <mxCell id="VsR7F8Zh5hgwnbF70GJV-17" style="edgeStyle=none;shape=connector;rounded=0;orthogonalLoop=1;jettySize=auto;html=1;labelBackgroundColor=default;strokeColor=default;strokeWidth=5;align=center;verticalAlign=middle;fontFamily=Helvetica;fontSize=11;fontColor=default;endArrow=classic;" parent="1" source="VsR7F8Zh5hgwnbF70GJV-15" target="VsR7F8Zh5hgwnbF70GJV-16" edge="1">
          <mxGeometry relative="1" as="geometry" />
        </mxCell>
        <mxCell id="VsR7F8Zh5hgwnbF70GJV-15" value="&lt;font style=&quot;font-size: 40px;&quot;&gt;5&lt;/font&gt;" style="ellipse;whiteSpace=wrap;html=1;aspect=fixed;strokeWidth=5;fillColor=#d5e8d4;strokeColor=#82b366;" parent="1" vertex="1">
          <mxGeometry x="190" y="4800" width="80" height="80" as="geometry" />
        </mxCell>
        <mxCell id="VsR7F8Zh5hgwnbF70GJV-16" value="&lt;font style=&quot;font-size: 40px;&quot;&gt;4&lt;/font&gt;" style="ellipse;whiteSpace=wrap;html=1;aspect=fixed;strokeWidth=5;fontFamily=Helvetica;fontSize=11;fillColor=#dae8fc;strokeColor=#6c8ebf;" parent="1" vertex="1">
          <mxGeometry x="100" y="4940" width="80" height="80" as="geometry" />
        </mxCell>
        <mxCell id="VsR7F8Zh5hgwnbF70GJV-18" value="8" style="ellipse;whiteSpace=wrap;html=1;aspect=fixed;strokeWidth=5;fontSize=40;fontFamily=Helvetica;fillColor=#d5e8d4;strokeColor=#82b366;" parent="1" vertex="1">
          <mxGeometry x="380" y="4780" width="80" height="80" as="geometry" />
        </mxCell>
        <mxCell id="VsR7F8Zh5hgwnbF70GJV-20" value="10" style="ellipse;whiteSpace=wrap;html=1;aspect=fixed;strokeWidth=5;fontSize=40;fontFamily=Helvetica;fillColor=#d5e8d4;strokeColor=#82b366;" parent="1" vertex="1">
          <mxGeometry x="590" y="4770" width="80" height="80" as="geometry" />
        </mxCell>
        <mxCell id="VsR7F8Zh5hgwnbF70GJV-22" style="rounded=0;orthogonalLoop=1;jettySize=auto;html=1;exitX=0;exitY=1;exitDx=0;exitDy=0;entryX=1;entryY=0;entryDx=0;entryDy=0;strokeWidth=5;" parent="1" source="VsR7F8Zh5hgwnbF70GJV-24" target="VsR7F8Zh5hgwnbF70GJV-27" edge="1">
          <mxGeometry relative="1" as="geometry" />
        </mxCell>
        <mxCell id="VsR7F8Zh5hgwnbF70GJV-23" style="rounded=0;orthogonalLoop=1;jettySize=auto;html=1;exitX=1;exitY=1;exitDx=0;exitDy=0;entryX=0;entryY=0;entryDx=0;entryDy=0;strokeWidth=5;" parent="1" source="VsR7F8Zh5hgwnbF70GJV-24" target="VsR7F8Zh5hgwnbF70GJV-30" edge="1">
          <mxGeometry relative="1" as="geometry" />
        </mxCell>
        <mxCell id="VsR7F8Zh5hgwnbF70GJV-24" value="&lt;font style=&quot;font-size: 40px;&quot;&gt;5&lt;/font&gt;" style="ellipse;whiteSpace=wrap;html=1;aspect=fixed;strokeWidth=5;fillColor=#d5e8d4;strokeColor=#82b366;" parent="1" vertex="1">
          <mxGeometry x="1250" y="-310" width="80" height="80" as="geometry" />
        </mxCell>
        <mxCell id="VsR7F8Zh5hgwnbF70GJV-25" style="edgeStyle=none;shape=connector;rounded=0;orthogonalLoop=1;jettySize=auto;html=1;exitX=0;exitY=1;exitDx=0;exitDy=0;entryX=1;entryY=0;entryDx=0;entryDy=0;labelBackgroundColor=default;strokeColor=default;strokeWidth=5;fontFamily=Helvetica;fontSize=11;fontColor=default;endArrow=classic;" parent="1" source="VsR7F8Zh5hgwnbF70GJV-27" target="VsR7F8Zh5hgwnbF70GJV-31" edge="1">
          <mxGeometry relative="1" as="geometry" />
        </mxCell>
        <mxCell id="VsR7F8Zh5hgwnbF70GJV-26" style="rounded=0;orthogonalLoop=1;jettySize=auto;html=1;strokeWidth=5;" parent="1" source="VsR7F8Zh5hgwnbF70GJV-27" target="VsR7F8Zh5hgwnbF70GJV-34" edge="1">
          <mxGeometry relative="1" as="geometry" />
        </mxCell>
        <mxCell id="VsR7F8Zh5hgwnbF70GJV-27" value="&lt;font style=&quot;font-size: 36px;&quot;&gt;2&lt;/font&gt;" style="ellipse;whiteSpace=wrap;html=1;aspect=fixed;strokeWidth=5;fillColor=#d5e8d4;strokeColor=#82b366;" parent="1" vertex="1">
          <mxGeometry x="1055" y="-150" width="80" height="80" as="geometry" />
        </mxCell>
        <mxCell id="VsR7F8Zh5hgwnbF70GJV-28" style="edgeStyle=none;shape=connector;rounded=0;orthogonalLoop=1;jettySize=auto;html=1;labelBackgroundColor=default;strokeColor=default;strokeWidth=5;align=center;verticalAlign=middle;fontFamily=Helvetica;fontSize=11;fontColor=default;endArrow=classic;" parent="1" source="VsR7F8Zh5hgwnbF70GJV-30" target="VsR7F8Zh5hgwnbF70GJV-36" edge="1">
          <mxGeometry relative="1" as="geometry" />
        </mxCell>
        <mxCell id="VsR7F8Zh5hgwnbF70GJV-29" style="edgeStyle=none;shape=connector;rounded=0;orthogonalLoop=1;jettySize=auto;html=1;labelBackgroundColor=default;strokeColor=default;strokeWidth=5;align=center;verticalAlign=middle;fontFamily=Helvetica;fontSize=11;fontColor=default;endArrow=classic;" parent="1" source="VsR7F8Zh5hgwnbF70GJV-30" target="VsR7F8Zh5hgwnbF70GJV-37" edge="1">
          <mxGeometry relative="1" as="geometry" />
        </mxCell>
        <mxCell id="VsR7F8Zh5hgwnbF70GJV-30" value="6" style="ellipse;whiteSpace=wrap;html=1;aspect=fixed;strokeWidth=5;fontSize=40;fillColor=#d5e8d4;strokeColor=#82b366;" parent="1" vertex="1">
          <mxGeometry x="1440" y="-150" width="80" height="80" as="geometry" />
        </mxCell>
        <mxCell id="VsR7F8Zh5hgwnbF70GJV-31" value="&lt;font style=&quot;font-size: 40px;&quot;&gt;1&lt;/font&gt;" style="ellipse;whiteSpace=wrap;html=1;aspect=fixed;strokeWidth=5;" parent="1" vertex="1">
          <mxGeometry x="900" y="10" width="80" height="80" as="geometry" />
        </mxCell>
        <mxCell id="VsR7F8Zh5hgwnbF70GJV-32" value="&lt;font style=&quot;font-size: 42px;&quot;&gt;3) BST Node Level&lt;font style=&quot;font-size: 42px;&quot;&gt;&lt;br&gt;&lt;/font&gt;&lt;/font&gt;" style="text;html=1;align=center;verticalAlign=middle;resizable=0;points=[];autosize=1;strokeColor=none;fillColor=none;" parent="1" vertex="1">
          <mxGeometry x="-140" y="4250" width="380" height="60" as="geometry" />
        </mxCell>
        <mxCell id="VsR7F8Zh5hgwnbF70GJV-33" style="edgeStyle=none;shape=connector;rounded=0;orthogonalLoop=1;jettySize=auto;html=1;labelBackgroundColor=default;strokeColor=default;strokeWidth=5;align=center;verticalAlign=middle;fontFamily=Helvetica;fontSize=11;fontColor=default;endArrow=classic;" parent="1" source="VsR7F8Zh5hgwnbF70GJV-34" target="VsR7F8Zh5hgwnbF70GJV-35" edge="1">
          <mxGeometry relative="1" as="geometry" />
        </mxCell>
        <mxCell id="VsR7F8Zh5hgwnbF70GJV-34" value="&lt;font style=&quot;font-size: 40px;&quot;&gt;3&lt;/font&gt;" style="ellipse;whiteSpace=wrap;html=1;aspect=fixed;strokeWidth=5;fillColor=#d5e8d4;strokeColor=#82b366;" parent="1" vertex="1">
          <mxGeometry x="1140" y="20" width="80" height="80" as="geometry" />
        </mxCell>
        <mxCell id="VsR7F8Zh5hgwnbF70GJV-35" value="&lt;font style=&quot;font-size: 40px;&quot;&gt;4&lt;/font&gt;" style="ellipse;whiteSpace=wrap;html=1;aspect=fixed;strokeWidth=5;fontFamily=Helvetica;fontSize=11;fontColor=default;" parent="1" vertex="1">
          <mxGeometry x="1050" y="160" width="80" height="80" as="geometry" />
        </mxCell>
        <mxCell id="VsR7F8Zh5hgwnbF70GJV-36" value="7" style="ellipse;whiteSpace=wrap;html=1;aspect=fixed;strokeWidth=5;fontSize=40;fontFamily=Helvetica;fontColor=default;" parent="1" vertex="1">
          <mxGeometry x="1330" width="80" height="80" as="geometry" />
        </mxCell>
        <mxCell id="VsR7F8Zh5hgwnbF70GJV-37" value="10" style="ellipse;whiteSpace=wrap;html=1;aspect=fixed;strokeWidth=5;fontSize=40;fontFamily=Helvetica;fontColor=default;" parent="1" vertex="1">
          <mxGeometry x="1540" y="-10" width="80" height="80" as="geometry" />
        </mxCell>
        <mxCell id="VsR7F8Zh5hgwnbF70GJV-38" style="rounded=0;orthogonalLoop=1;jettySize=auto;html=1;exitX=0;exitY=1;exitDx=0;exitDy=0;entryX=1;entryY=0;entryDx=0;entryDy=0;strokeWidth=5;" parent="1" source="VsR7F8Zh5hgwnbF70GJV-40" target="VsR7F8Zh5hgwnbF70GJV-43" edge="1">
          <mxGeometry relative="1" as="geometry" />
        </mxCell>
        <mxCell id="VsR7F8Zh5hgwnbF70GJV-39" style="rounded=0;orthogonalLoop=1;jettySize=auto;html=1;exitX=1;exitY=1;exitDx=0;exitDy=0;entryX=0;entryY=0;entryDx=0;entryDy=0;strokeWidth=5;" parent="1" source="VsR7F8Zh5hgwnbF70GJV-40" target="VsR7F8Zh5hgwnbF70GJV-46" edge="1">
          <mxGeometry relative="1" as="geometry" />
        </mxCell>
        <mxCell id="VsR7F8Zh5hgwnbF70GJV-40" value="&lt;font style=&quot;font-size: 40px;&quot;&gt;7&lt;/font&gt;" style="ellipse;whiteSpace=wrap;html=1;aspect=fixed;strokeWidth=5;fillColor=#d5e8d4;strokeColor=#82b366;" parent="1" vertex="1">
          <mxGeometry x="280" y="3450" width="80" height="80" as="geometry" />
        </mxCell>
        <mxCell id="VsR7F8Zh5hgwnbF70GJV-41" style="edgeStyle=none;shape=connector;rounded=0;orthogonalLoop=1;jettySize=auto;html=1;exitX=0;exitY=1;exitDx=0;exitDy=0;entryX=1;entryY=0;entryDx=0;entryDy=0;labelBackgroundColor=default;strokeColor=default;strokeWidth=5;fontFamily=Helvetica;fontSize=11;fontColor=default;endArrow=classic;" parent="1" source="VsR7F8Zh5hgwnbF70GJV-43" target="VsR7F8Zh5hgwnbF70GJV-47" edge="1">
          <mxGeometry relative="1" as="geometry" />
        </mxCell>
        <mxCell id="VsR7F8Zh5hgwnbF70GJV-42" style="rounded=0;orthogonalLoop=1;jettySize=auto;html=1;strokeWidth=5;" parent="1" source="VsR7F8Zh5hgwnbF70GJV-43" target="VsR7F8Zh5hgwnbF70GJV-49" edge="1">
          <mxGeometry relative="1" as="geometry" />
        </mxCell>
        <mxCell id="VsR7F8Zh5hgwnbF70GJV-43" value="&lt;font style=&quot;font-size: 36px;&quot;&gt;2&lt;/font&gt;" style="ellipse;whiteSpace=wrap;html=1;aspect=fixed;strokeWidth=5;fillColor=#d5e8d4;strokeColor=#82b366;" parent="1" vertex="1">
          <mxGeometry x="85" y="3610" width="80" height="80" as="geometry" />
        </mxCell>
        <mxCell id="VsR7F8Zh5hgwnbF70GJV-44" style="edgeStyle=none;shape=connector;rounded=0;orthogonalLoop=1;jettySize=auto;html=1;labelBackgroundColor=default;strokeColor=default;strokeWidth=5;align=center;verticalAlign=middle;fontFamily=Helvetica;fontSize=11;fontColor=default;endArrow=classic;" parent="1" source="VsR7F8Zh5hgwnbF70GJV-46" target="VsR7F8Zh5hgwnbF70GJV-51" edge="1">
          <mxGeometry relative="1" as="geometry" />
        </mxCell>
        <mxCell id="VsR7F8Zh5hgwnbF70GJV-45" style="edgeStyle=none;shape=connector;rounded=0;orthogonalLoop=1;jettySize=auto;html=1;labelBackgroundColor=default;strokeColor=default;strokeWidth=5;align=center;verticalAlign=middle;fontFamily=Helvetica;fontSize=11;fontColor=default;endArrow=classic;" parent="1" source="VsR7F8Zh5hgwnbF70GJV-46" target="VsR7F8Zh5hgwnbF70GJV-52" edge="1">
          <mxGeometry relative="1" as="geometry" />
        </mxCell>
        <mxCell id="VsR7F8Zh5hgwnbF70GJV-46" value="9" style="ellipse;whiteSpace=wrap;html=1;aspect=fixed;strokeWidth=5;fontSize=40;fillColor=#d5e8d4;strokeColor=#82b366;" parent="1" vertex="1">
          <mxGeometry x="470" y="3610" width="80" height="80" as="geometry" />
        </mxCell>
        <mxCell id="VsR7F8Zh5hgwnbF70GJV-47" value="&lt;font style=&quot;font-size: 40px;&quot;&gt;1&lt;/font&gt;" style="ellipse;whiteSpace=wrap;html=1;aspect=fixed;strokeWidth=5;" parent="1" vertex="1">
          <mxGeometry x="-70" y="3770" width="80" height="80" as="geometry" />
        </mxCell>
        <mxCell id="VsR7F8Zh5hgwnbF70GJV-48" style="edgeStyle=none;shape=connector;rounded=0;orthogonalLoop=1;jettySize=auto;html=1;labelBackgroundColor=default;strokeColor=default;strokeWidth=5;align=center;verticalAlign=middle;fontFamily=Helvetica;fontSize=11;fontColor=default;endArrow=classic;" parent="1" source="VsR7F8Zh5hgwnbF70GJV-49" target="VsR7F8Zh5hgwnbF70GJV-50" edge="1">
          <mxGeometry relative="1" as="geometry" />
        </mxCell>
        <mxCell id="VsR7F8Zh5hgwnbF70GJV-49" value="&lt;font style=&quot;font-size: 40px;&quot;&gt;5&lt;/font&gt;" style="ellipse;whiteSpace=wrap;html=1;aspect=fixed;strokeWidth=5;fillColor=#d5e8d4;strokeColor=#82b366;" parent="1" vertex="1">
          <mxGeometry x="170" y="3780" width="80" height="80" as="geometry" />
        </mxCell>
        <mxCell id="VsR7F8Zh5hgwnbF70GJV-50" value="&lt;font style=&quot;font-size: 40px;&quot;&gt;4&lt;/font&gt;" style="ellipse;whiteSpace=wrap;html=1;aspect=fixed;strokeWidth=5;fontFamily=Helvetica;fontSize=11;fontColor=default;" parent="1" vertex="1">
          <mxGeometry x="80" y="3920" width="80" height="80" as="geometry" />
        </mxCell>
        <mxCell id="VsR7F8Zh5hgwnbF70GJV-51" value="8" style="ellipse;whiteSpace=wrap;html=1;aspect=fixed;strokeWidth=5;fontSize=40;fontFamily=Helvetica;fontColor=default;" parent="1" vertex="1">
          <mxGeometry x="360" y="3760" width="80" height="80" as="geometry" />
        </mxCell>
        <mxCell id="VsR7F8Zh5hgwnbF70GJV-52" value="10" style="ellipse;whiteSpace=wrap;html=1;aspect=fixed;strokeWidth=5;fontSize=40;fontFamily=Helvetica;fontColor=default;" parent="1" vertex="1">
          <mxGeometry x="570" y="3750" width="80" height="80" as="geometry" />
        </mxCell>
        <mxCell id="y-h5g1hqfYsxv_BUcOza-1" value="&lt;font style=&quot;font-size: 31px;&quot;&gt;level: 3&lt;br&gt;&lt;/font&gt;" style="text;html=1;align=center;verticalAlign=middle;resizable=0;points=[];autosize=1;strokeColor=none;fillColor=none;" parent="1" vertex="1">
          <mxGeometry x="-230" y="4960" width="120" height="50" as="geometry" />
        </mxCell>
        <mxCell id="y-h5g1hqfYsxv_BUcOza-2" value="&lt;font style=&quot;font-size: 31px;&quot;&gt;level: 2&lt;br&gt;&lt;/font&gt;" style="text;html=1;align=center;verticalAlign=middle;resizable=0;points=[];autosize=1;strokeColor=none;fillColor=none;" parent="1" vertex="1">
          <mxGeometry x="-230" y="4790" width="120" height="50" as="geometry" />
        </mxCell>
        <mxCell id="y-h5g1hqfYsxv_BUcOza-3" value="&lt;font style=&quot;font-size: 31px;&quot;&gt;level: 1&lt;br&gt;&lt;/font&gt;" style="text;html=1;align=center;verticalAlign=middle;resizable=0;points=[];autosize=1;strokeColor=none;fillColor=none;" parent="1" vertex="1">
          <mxGeometry x="-230" y="4630" width="120" height="50" as="geometry" />
        </mxCell>
        <mxCell id="y-h5g1hqfYsxv_BUcOza-4" value="&lt;font style=&quot;font-size: 31px;&quot;&gt;level: 0&lt;br&gt;&lt;/font&gt;" style="text;html=1;align=center;verticalAlign=middle;resizable=0;points=[];autosize=1;strokeColor=none;fillColor=none;" parent="1" vertex="1">
          <mxGeometry x="-240" y="4485" width="120" height="50" as="geometry" />
        </mxCell>
        <mxCell id="y-h5g1hqfYsxv_BUcOza-5" style="rounded=0;orthogonalLoop=1;jettySize=auto;html=1;exitX=0;exitY=1;exitDx=0;exitDy=0;entryX=1;entryY=0;entryDx=0;entryDy=0;strokeWidth=5;" parent="1" source="y-h5g1hqfYsxv_BUcOza-7" target="y-h5g1hqfYsxv_BUcOza-10" edge="1">
          <mxGeometry relative="1" as="geometry" />
        </mxCell>
        <mxCell id="y-h5g1hqfYsxv_BUcOza-6" style="rounded=0;orthogonalLoop=1;jettySize=auto;html=1;exitX=1;exitY=1;exitDx=0;exitDy=0;entryX=0;entryY=0;entryDx=0;entryDy=0;strokeWidth=5;" parent="1" source="y-h5g1hqfYsxv_BUcOza-7" target="y-h5g1hqfYsxv_BUcOza-13" edge="1">
          <mxGeometry relative="1" as="geometry" />
        </mxCell>
        <mxCell id="y-h5g1hqfYsxv_BUcOza-7" value="&lt;font style=&quot;font-size: 40px;&quot;&gt;7&lt;/font&gt;" style="ellipse;whiteSpace=wrap;html=1;aspect=fixed;strokeWidth=5;fillColor=#d5e8d4;strokeColor=#82b366;" parent="1" vertex="1">
          <mxGeometry x="250" y="2520" width="80" height="80" as="geometry" />
        </mxCell>
        <mxCell id="y-h5g1hqfYsxv_BUcOza-8" style="edgeStyle=none;shape=connector;rounded=0;orthogonalLoop=1;jettySize=auto;html=1;exitX=0;exitY=1;exitDx=0;exitDy=0;entryX=1;entryY=0;entryDx=0;entryDy=0;labelBackgroundColor=default;strokeColor=default;strokeWidth=5;fontFamily=Helvetica;fontSize=11;fontColor=default;endArrow=classic;" parent="1" source="y-h5g1hqfYsxv_BUcOza-10" target="y-h5g1hqfYsxv_BUcOza-14" edge="1">
          <mxGeometry relative="1" as="geometry" />
        </mxCell>
        <mxCell id="y-h5g1hqfYsxv_BUcOza-9" style="rounded=0;orthogonalLoop=1;jettySize=auto;html=1;strokeWidth=5;" parent="1" source="y-h5g1hqfYsxv_BUcOza-10" target="y-h5g1hqfYsxv_BUcOza-16" edge="1">
          <mxGeometry relative="1" as="geometry" />
        </mxCell>
        <mxCell id="y-h5g1hqfYsxv_BUcOza-10" value="&lt;font style=&quot;font-size: 36px;&quot;&gt;2&lt;/font&gt;" style="ellipse;whiteSpace=wrap;html=1;aspect=fixed;strokeWidth=5;" parent="1" vertex="1">
          <mxGeometry x="55" y="2680" width="80" height="80" as="geometry" />
        </mxCell>
        <mxCell id="y-h5g1hqfYsxv_BUcOza-11" style="edgeStyle=none;shape=connector;rounded=0;orthogonalLoop=1;jettySize=auto;html=1;labelBackgroundColor=default;strokeColor=default;strokeWidth=5;align=center;verticalAlign=middle;fontFamily=Helvetica;fontSize=11;fontColor=default;endArrow=classic;" parent="1" source="y-h5g1hqfYsxv_BUcOza-13" target="y-h5g1hqfYsxv_BUcOza-18" edge="1">
          <mxGeometry relative="1" as="geometry" />
        </mxCell>
        <mxCell id="y-h5g1hqfYsxv_BUcOza-12" style="edgeStyle=none;shape=connector;rounded=0;orthogonalLoop=1;jettySize=auto;html=1;labelBackgroundColor=default;strokeColor=default;strokeWidth=5;align=center;verticalAlign=middle;fontFamily=Helvetica;fontSize=11;fontColor=default;endArrow=classic;" parent="1" source="y-h5g1hqfYsxv_BUcOza-13" target="y-h5g1hqfYsxv_BUcOza-19" edge="1">
          <mxGeometry relative="1" as="geometry" />
        </mxCell>
        <mxCell id="y-h5g1hqfYsxv_BUcOza-13" value="9" style="ellipse;whiteSpace=wrap;html=1;aspect=fixed;strokeWidth=5;fontSize=40;fillColor=#d5e8d4;strokeColor=#82b366;" parent="1" vertex="1">
          <mxGeometry x="440" y="2680" width="80" height="80" as="geometry" />
        </mxCell>
        <mxCell id="y-h5g1hqfYsxv_BUcOza-14" value="&lt;font style=&quot;font-size: 40px;&quot;&gt;1&lt;/font&gt;" style="ellipse;whiteSpace=wrap;html=1;aspect=fixed;strokeWidth=5;" parent="1" vertex="1">
          <mxGeometry x="-100" y="2840" width="80" height="80" as="geometry" />
        </mxCell>
        <mxCell id="y-h5g1hqfYsxv_BUcOza-15" style="edgeStyle=none;shape=connector;rounded=0;orthogonalLoop=1;jettySize=auto;html=1;labelBackgroundColor=default;strokeColor=default;strokeWidth=5;align=center;verticalAlign=middle;fontFamily=Helvetica;fontSize=11;fontColor=default;endArrow=classic;" parent="1" source="y-h5g1hqfYsxv_BUcOza-16" target="y-h5g1hqfYsxv_BUcOza-17" edge="1">
          <mxGeometry relative="1" as="geometry" />
        </mxCell>
        <mxCell id="y-h5g1hqfYsxv_BUcOza-16" value="&lt;font style=&quot;font-size: 40px;&quot;&gt;5&lt;/font&gt;" style="ellipse;whiteSpace=wrap;html=1;aspect=fixed;strokeWidth=5;fillColor=#d5e8d4;strokeColor=#82b366;" parent="1" vertex="1">
          <mxGeometry x="140" y="2850" width="80" height="80" as="geometry" />
        </mxCell>
        <mxCell id="y-h5g1hqfYsxv_BUcOza-17" value="&lt;font style=&quot;font-size: 40px;&quot;&gt;4&lt;/font&gt;" style="ellipse;whiteSpace=wrap;html=1;aspect=fixed;strokeWidth=5;fontFamily=Helvetica;fontSize=11;fontColor=default;" parent="1" vertex="1">
          <mxGeometry x="50" y="2990" width="80" height="80" as="geometry" />
        </mxCell>
        <mxCell id="y-h5g1hqfYsxv_BUcOza-18" value="8" style="ellipse;whiteSpace=wrap;html=1;aspect=fixed;strokeWidth=5;fontSize=40;fontFamily=Helvetica;fontColor=default;" parent="1" vertex="1">
          <mxGeometry x="330" y="2830" width="80" height="80" as="geometry" />
        </mxCell>
        <mxCell id="y-h5g1hqfYsxv_BUcOza-19" value="10" style="ellipse;whiteSpace=wrap;html=1;aspect=fixed;strokeWidth=5;fontSize=40;fontFamily=Helvetica;fontColor=default;" parent="1" vertex="1">
          <mxGeometry x="540" y="2820" width="80" height="80" as="geometry" />
        </mxCell>
        <mxCell id="y-h5g1hqfYsxv_BUcOza-20" value="&lt;font style=&quot;font-size: 42px;&quot;&gt;4) BST &lt;font style=&quot;font-size: 42px;&quot;&gt;Count Internal&lt;br&gt;&lt;/font&gt;&lt;/font&gt;" style="text;html=1;align=center;verticalAlign=middle;resizable=0;points=[];autosize=1;strokeColor=none;fillColor=none;" parent="1" vertex="1">
          <mxGeometry x="-130" y="5200" width="430" height="60" as="geometry" />
        </mxCell>
        <mxCell id="y-h5g1hqfYsxv_BUcOza-21" style="rounded=0;orthogonalLoop=1;jettySize=auto;html=1;exitX=0;exitY=1;exitDx=0;exitDy=0;entryX=1;entryY=0;entryDx=0;entryDy=0;strokeWidth=5;" parent="1" source="y-h5g1hqfYsxv_BUcOza-23" target="y-h5g1hqfYsxv_BUcOza-26" edge="1">
          <mxGeometry relative="1" as="geometry" />
        </mxCell>
        <mxCell id="y-h5g1hqfYsxv_BUcOza-22" style="rounded=0;orthogonalLoop=1;jettySize=auto;html=1;exitX=1;exitY=1;exitDx=0;exitDy=0;entryX=0;entryY=0;entryDx=0;entryDy=0;strokeWidth=5;" parent="1" source="y-h5g1hqfYsxv_BUcOza-23" target="y-h5g1hqfYsxv_BUcOza-29" edge="1">
          <mxGeometry relative="1" as="geometry" />
        </mxCell>
        <mxCell id="y-h5g1hqfYsxv_BUcOza-23" value="&lt;font style=&quot;font-size: 40px;&quot;&gt;7&lt;/font&gt;" style="ellipse;whiteSpace=wrap;html=1;aspect=fixed;strokeWidth=5;" parent="1" vertex="1">
          <mxGeometry x="280" y="5610" width="80" height="80" as="geometry" />
        </mxCell>
        <mxCell id="y-h5g1hqfYsxv_BUcOza-24" style="edgeStyle=none;shape=connector;rounded=0;orthogonalLoop=1;jettySize=auto;html=1;exitX=0;exitY=1;exitDx=0;exitDy=0;entryX=1;entryY=0;entryDx=0;entryDy=0;labelBackgroundColor=default;strokeWidth=5;fontFamily=Helvetica;fontSize=11;fontColor=default;endArrow=classic;" parent="1" source="y-h5g1hqfYsxv_BUcOza-26" target="y-h5g1hqfYsxv_BUcOza-30" edge="1">
          <mxGeometry relative="1" as="geometry" />
        </mxCell>
        <mxCell id="y-h5g1hqfYsxv_BUcOza-25" style="rounded=0;orthogonalLoop=1;jettySize=auto;html=1;strokeWidth=5;" parent="1" source="y-h5g1hqfYsxv_BUcOza-26" target="y-h5g1hqfYsxv_BUcOza-32" edge="1">
          <mxGeometry relative="1" as="geometry" />
        </mxCell>
        <mxCell id="y-h5g1hqfYsxv_BUcOza-26" value="&lt;font style=&quot;font-size: 36px;&quot;&gt;2&lt;/font&gt;" style="ellipse;whiteSpace=wrap;html=1;aspect=fixed;strokeWidth=5;" parent="1" vertex="1">
          <mxGeometry x="85" y="5770" width="80" height="80" as="geometry" />
        </mxCell>
        <mxCell id="y-h5g1hqfYsxv_BUcOza-27" style="edgeStyle=none;shape=connector;rounded=0;orthogonalLoop=1;jettySize=auto;html=1;labelBackgroundColor=default;strokeWidth=5;align=center;verticalAlign=middle;fontFamily=Helvetica;fontSize=11;fontColor=default;endArrow=classic;" parent="1" source="y-h5g1hqfYsxv_BUcOza-29" target="y-h5g1hqfYsxv_BUcOza-34" edge="1">
          <mxGeometry relative="1" as="geometry" />
        </mxCell>
        <mxCell id="y-h5g1hqfYsxv_BUcOza-28" style="edgeStyle=none;shape=connector;rounded=0;orthogonalLoop=1;jettySize=auto;html=1;labelBackgroundColor=default;strokeWidth=5;align=center;verticalAlign=middle;fontFamily=Helvetica;fontSize=11;fontColor=default;endArrow=classic;" parent="1" source="y-h5g1hqfYsxv_BUcOza-29" target="y-h5g1hqfYsxv_BUcOza-35" edge="1">
          <mxGeometry relative="1" as="geometry" />
        </mxCell>
        <mxCell id="y-h5g1hqfYsxv_BUcOza-29" value="9" style="ellipse;whiteSpace=wrap;html=1;aspect=fixed;strokeWidth=5;fontSize=40;" parent="1" vertex="1">
          <mxGeometry x="470" y="5770" width="80" height="80" as="geometry" />
        </mxCell>
        <mxCell id="y-h5g1hqfYsxv_BUcOza-30" value="&lt;font style=&quot;font-size: 40px;&quot;&gt;1&lt;/font&gt;" style="ellipse;whiteSpace=wrap;html=1;aspect=fixed;strokeWidth=5;" parent="1" vertex="1">
          <mxGeometry x="-70" y="5930" width="80" height="80" as="geometry" />
        </mxCell>
        <mxCell id="y-h5g1hqfYsxv_BUcOza-31" style="edgeStyle=none;shape=connector;rounded=0;orthogonalLoop=1;jettySize=auto;html=1;labelBackgroundColor=default;strokeWidth=5;align=center;verticalAlign=middle;fontFamily=Helvetica;fontSize=11;fontColor=default;endArrow=classic;" parent="1" source="y-h5g1hqfYsxv_BUcOza-32" target="y-h5g1hqfYsxv_BUcOza-33" edge="1">
          <mxGeometry relative="1" as="geometry" />
        </mxCell>
        <mxCell id="y-h5g1hqfYsxv_BUcOza-32" value="&lt;font style=&quot;font-size: 40px;&quot;&gt;5&lt;/font&gt;" style="ellipse;whiteSpace=wrap;html=1;aspect=fixed;strokeWidth=5;" parent="1" vertex="1">
          <mxGeometry x="170" y="5940" width="80" height="80" as="geometry" />
        </mxCell>
        <mxCell id="y-h5g1hqfYsxv_BUcOza-33" value="&lt;font style=&quot;font-size: 40px;&quot;&gt;4&lt;/font&gt;" style="ellipse;whiteSpace=wrap;html=1;aspect=fixed;strokeWidth=5;fontFamily=Helvetica;fontSize=11;" parent="1" vertex="1">
          <mxGeometry x="80" y="6080" width="80" height="80" as="geometry" />
        </mxCell>
        <mxCell id="y-h5g1hqfYsxv_BUcOza-34" value="8" style="ellipse;whiteSpace=wrap;html=1;aspect=fixed;strokeWidth=5;fontSize=40;fontFamily=Helvetica;" parent="1" vertex="1">
          <mxGeometry x="360" y="5920" width="80" height="80" as="geometry" />
        </mxCell>
        <mxCell id="y-h5g1hqfYsxv_BUcOza-35" value="10" style="ellipse;whiteSpace=wrap;html=1;aspect=fixed;strokeWidth=5;fontSize=40;fontFamily=Helvetica;" parent="1" vertex="1">
          <mxGeometry x="570" y="5910" width="80" height="80" as="geometry" />
        </mxCell>
        <mxCell id="y-h5g1hqfYsxv_BUcOza-36" value="&lt;font style=&quot;font-size: 28px;&quot;&gt;3&lt;/font&gt;" style="text;html=1;align=center;verticalAlign=middle;resizable=0;points=[];autosize=1;strokeColor=none;fillColor=none;" parent="1" vertex="1">
          <mxGeometry x="100" y="5325" width="40" height="50" as="geometry" />
        </mxCell>
        <mxCell id="y-h5g1hqfYsxv_BUcOza-37" value="" style="shape=table;startSize=0;container=1;collapsible=0;childLayout=tableLayout;fontSize=16;" parent="1" vertex="1">
          <mxGeometry x="-75" y="5380" width="775" height="90" as="geometry" />
        </mxCell>
        <mxCell id="y-h5g1hqfYsxv_BUcOza-38" value="" style="shape=tableRow;horizontal=0;startSize=0;swimlaneHead=0;swimlaneBody=0;strokeColor=inherit;top=0;left=0;bottom=0;right=0;collapsible=0;dropTarget=0;fillColor=none;points=[[0,0.5],[1,0.5]];portConstraint=eastwest;fontSize=16;" parent="y-h5g1hqfYsxv_BUcOza-37" vertex="1">
          <mxGeometry width="775" height="90" as="geometry" />
        </mxCell>
        <mxCell id="y-h5g1hqfYsxv_BUcOza-39" value="&lt;font style=&quot;font-size: 31px;&quot;&gt;1&lt;/font&gt;" style="shape=partialRectangle;html=1;whiteSpace=wrap;connectable=0;strokeColor=inherit;overflow=hidden;fillColor=none;top=0;left=0;bottom=0;right=0;pointerEvents=1;fontSize=16;" parent="y-h5g1hqfYsxv_BUcOza-38" vertex="1">
          <mxGeometry width="97" height="90" as="geometry">
            <mxRectangle width="97" height="90" as="alternateBounds" />
          </mxGeometry>
        </mxCell>
        <mxCell id="y-h5g1hqfYsxv_BUcOza-40" value="&lt;font style=&quot;font-size: 31px;&quot;&gt;2&lt;/font&gt;" style="shape=partialRectangle;html=1;whiteSpace=wrap;connectable=0;strokeColor=inherit;overflow=hidden;fillColor=none;top=0;left=0;bottom=0;right=0;pointerEvents=1;fontSize=16;" parent="y-h5g1hqfYsxv_BUcOza-38" vertex="1">
          <mxGeometry x="97" width="97" height="90" as="geometry">
            <mxRectangle width="97" height="90" as="alternateBounds" />
          </mxGeometry>
        </mxCell>
        <mxCell id="y-h5g1hqfYsxv_BUcOza-41" value="&lt;font style=&quot;font-size: 31px;&quot;&gt;4&lt;/font&gt;" style="shape=partialRectangle;html=1;whiteSpace=wrap;connectable=0;strokeColor=inherit;overflow=hidden;fillColor=none;top=0;left=0;bottom=0;right=0;pointerEvents=1;fontSize=16;" parent="y-h5g1hqfYsxv_BUcOza-38" vertex="1">
          <mxGeometry x="194" width="97" height="90" as="geometry">
            <mxRectangle width="97" height="90" as="alternateBounds" />
          </mxGeometry>
        </mxCell>
        <mxCell id="y-h5g1hqfYsxv_BUcOza-50" value="&lt;font style=&quot;font-size: 31px;&quot;&gt;5&lt;/font&gt;" style="shape=partialRectangle;html=1;whiteSpace=wrap;connectable=0;strokeColor=inherit;overflow=hidden;fillColor=none;top=0;left=0;bottom=0;right=0;pointerEvents=1;fontSize=16;" parent="y-h5g1hqfYsxv_BUcOza-38" vertex="1">
          <mxGeometry x="291" width="97" height="90" as="geometry">
            <mxRectangle width="97" height="90" as="alternateBounds" />
          </mxGeometry>
        </mxCell>
        <mxCell id="y-h5g1hqfYsxv_BUcOza-51" value="&lt;font style=&quot;font-size: 31px;&quot;&gt;7&lt;/font&gt;" style="shape=partialRectangle;html=1;whiteSpace=wrap;connectable=0;strokeColor=inherit;overflow=hidden;fillColor=none;top=0;left=0;bottom=0;right=0;pointerEvents=1;fontSize=16;" parent="y-h5g1hqfYsxv_BUcOza-38" vertex="1">
          <mxGeometry x="388" width="96" height="90" as="geometry">
            <mxRectangle width="96" height="90" as="alternateBounds" />
          </mxGeometry>
        </mxCell>
        <mxCell id="y-h5g1hqfYsxv_BUcOza-52" value="&lt;font style=&quot;font-size: 31px;&quot;&gt;8&lt;/font&gt;" style="shape=partialRectangle;html=1;whiteSpace=wrap;connectable=0;strokeColor=inherit;overflow=hidden;fillColor=none;top=0;left=0;bottom=0;right=0;pointerEvents=1;fontSize=16;" parent="y-h5g1hqfYsxv_BUcOza-38" vertex="1">
          <mxGeometry x="484" width="97" height="90" as="geometry">
            <mxRectangle width="97" height="90" as="alternateBounds" />
          </mxGeometry>
        </mxCell>
        <mxCell id="y-h5g1hqfYsxv_BUcOza-53" value="&lt;font style=&quot;font-size: 31px;&quot;&gt;9&lt;/font&gt;" style="shape=partialRectangle;html=1;whiteSpace=wrap;connectable=0;strokeColor=inherit;overflow=hidden;fillColor=none;top=0;left=0;bottom=0;right=0;pointerEvents=1;fontSize=16;" parent="y-h5g1hqfYsxv_BUcOza-38" vertex="1">
          <mxGeometry x="581" width="97" height="90" as="geometry">
            <mxRectangle width="97" height="90" as="alternateBounds" />
          </mxGeometry>
        </mxCell>
        <mxCell id="y-h5g1hqfYsxv_BUcOza-54" value="&lt;font style=&quot;font-size: 31px;&quot;&gt;10&lt;/font&gt;" style="shape=partialRectangle;html=1;whiteSpace=wrap;connectable=0;strokeColor=inherit;overflow=hidden;fillColor=none;top=0;left=0;bottom=0;right=0;pointerEvents=1;fontSize=16;" parent="y-h5g1hqfYsxv_BUcOza-38" vertex="1">
          <mxGeometry x="678" width="97" height="90" as="geometry">
            <mxRectangle width="97" height="90" as="alternateBounds" />
          </mxGeometry>
        </mxCell>
        <mxCell id="y-h5g1hqfYsxv_BUcOza-55" value="&lt;font style=&quot;font-size: 28px;&quot;&gt;6&lt;/font&gt;" style="text;html=1;align=center;verticalAlign=middle;resizable=0;points=[];autosize=1;strokeColor=none;fillColor=none;" parent="1" vertex="1">
          <mxGeometry x="300" y="5320" width="40" height="50" as="geometry" />
        </mxCell>
        <mxCell id="y-h5g1hqfYsxv_BUcOza-56" value="&lt;font style=&quot;font-size: 28px;&quot;&gt;11&lt;/font&gt;" style="text;html=1;align=center;verticalAlign=middle;resizable=0;points=[];autosize=1;strokeColor=none;fillColor=none;" parent="1" vertex="1">
          <mxGeometry x="690" y="5325" width="50" height="50" as="geometry" />
        </mxCell>
        <mxCell id="1CHQfiaJzoFtv51jB6GE-1" value="1" style="whiteSpace=wrap;html=1;aspect=fixed;" vertex="1" parent="1">
          <mxGeometry x="270" y="-1270" width="50" height="50" as="geometry" />
        </mxCell>
        <mxCell id="1CHQfiaJzoFtv51jB6GE-3" value="Stack 1" style="text;html=1;align=center;verticalAlign=middle;resizable=0;points=[];autosize=1;strokeColor=none;fillColor=none;" vertex="1" parent="1">
          <mxGeometry x="400" y="-810" width="60" height="30" as="geometry" />
        </mxCell>
        <mxCell id="1CHQfiaJzoFtv51jB6GE-4" value="2" style="whiteSpace=wrap;html=1;aspect=fixed;" vertex="1" parent="1">
          <mxGeometry x="350" y="-1270" width="50" height="50" as="geometry" />
        </mxCell>
        <mxCell id="1CHQfiaJzoFtv51jB6GE-5" value="3" style="whiteSpace=wrap;html=1;aspect=fixed;" vertex="1" parent="1">
          <mxGeometry x="430" y="-1270" width="50" height="50" as="geometry" />
        </mxCell>
        <mxCell id="1CHQfiaJzoFtv51jB6GE-6" value="4" style="whiteSpace=wrap;html=1;aspect=fixed;" vertex="1" parent="1">
          <mxGeometry x="510" y="-1270" width="50" height="50" as="geometry" />
        </mxCell>
        <mxCell id="1CHQfiaJzoFtv51jB6GE-7" value="5" style="whiteSpace=wrap;html=1;aspect=fixed;" vertex="1" parent="1">
          <mxGeometry x="590" y="-1270" width="50" height="50" as="geometry" />
        </mxCell>
        <mxCell id="1CHQfiaJzoFtv51jB6GE-8" value="6" style="whiteSpace=wrap;html=1;aspect=fixed;" vertex="1" parent="1">
          <mxGeometry x="670" y="-1270" width="50" height="50" as="geometry" />
        </mxCell>
        <mxCell id="1CHQfiaJzoFtv51jB6GE-10" value="Order in which items are inserted:" style="text;html=1;align=center;verticalAlign=middle;resizable=0;points=[];autosize=1;strokeColor=none;fillColor=none;" vertex="1" parent="1">
          <mxGeometry x="235" y="-1320" width="200" height="30" as="geometry" />
        </mxCell>
        <mxCell id="1CHQfiaJzoFtv51jB6GE-12" value="Stack 2" style="text;html=1;align=center;verticalAlign=middle;resizable=0;points=[];autosize=1;strokeColor=none;fillColor=none;" vertex="1" parent="1">
          <mxGeometry x="560" y="-810" width="60" height="30" as="geometry" />
        </mxCell>
        <mxCell id="1CHQfiaJzoFtv51jB6GE-13" value="Order in which items are removed:" style="text;html=1;align=center;verticalAlign=middle;resizable=0;points=[];autosize=1;strokeColor=none;fillColor=none;" vertex="1" parent="1">
          <mxGeometry x="235" y="-750" width="210" height="30" as="geometry" />
        </mxCell>
        <mxCell id="1CHQfiaJzoFtv51jB6GE-14" value="&lt;div align=&quot;left&quot;&gt;Operations:&lt;/div&gt;&lt;div align=&quot;left&quot;&gt;&lt;br&gt;&lt;/div&gt;&lt;div align=&quot;left&quot;&gt;&lt;font color=&quot;#007fff&quot;&gt;1. Enqueue(1)&lt;/font&gt;&lt;/div&gt;&lt;div align=&quot;left&quot;&gt;&lt;br&gt;&lt;/div&gt;&lt;div align=&quot;left&quot;&gt;&lt;font color=&quot;#007fff&quot;&gt;2. Enqueue(2)&lt;/font&gt;&lt;/div&gt;&lt;div align=&quot;left&quot;&gt;&lt;font color=&quot;#007fff&quot;&gt;&lt;br&gt;&lt;/font&gt;&lt;/div&gt;&lt;div align=&quot;left&quot;&gt;&lt;font color=&quot;#007fff&quot;&gt;3. Enqueue(3)&lt;/font&gt;&lt;/div&gt;&lt;div align=&quot;left&quot;&gt;&lt;br&gt;&lt;/div&gt;&lt;div align=&quot;left&quot;&gt;&lt;font color=&quot;#7f00ff&quot;&gt;4. Dequeue&lt;/font&gt;&lt;/div&gt;&lt;div align=&quot;left&quot;&gt;&lt;br&gt;&lt;/div&gt;&lt;div align=&quot;left&quot;&gt;&lt;font color=&quot;#007fff&quot;&gt;5. Enqueue(4)&lt;/font&gt;&lt;/div&gt;&lt;div align=&quot;left&quot;&gt;&lt;br&gt;&lt;/div&gt;&lt;div align=&quot;left&quot;&gt;&lt;font color=&quot;#7f00ff&quot;&gt;6. Dequeue&lt;/font&gt;&lt;/div&gt;&lt;div align=&quot;left&quot;&gt;&lt;br&gt;&lt;/div&gt;&lt;div align=&quot;left&quot;&gt;&lt;div align=&quot;left&quot;&gt;&lt;font color=&quot;#007fff&quot;&gt;7. Enqueue(5)&lt;/font&gt;&lt;/div&gt;&lt;div align=&quot;left&quot;&gt;&lt;font color=&quot;#007fff&quot;&gt;&lt;br&gt;&lt;/font&gt;&lt;/div&gt;&lt;div align=&quot;left&quot;&gt;&lt;font color=&quot;#007fff&quot;&gt;8. Enqueue(6)&lt;/font&gt;&lt;/div&gt;&lt;div align=&quot;left&quot;&gt;&lt;br&gt;&lt;/div&gt;&lt;div align=&quot;left&quot;&gt;&lt;font color=&quot;#7f00ff&quot;&gt;9. Dequeue&lt;/font&gt;&lt;/div&gt;&lt;div align=&quot;left&quot;&gt;&lt;font color=&quot;#7f00ff&quot;&gt;&lt;br&gt;&lt;/font&gt;&lt;/div&gt;&lt;div align=&quot;left&quot;&gt;&lt;font color=&quot;#7f00ff&quot;&gt;10. Dequeue&lt;/font&gt;&lt;/div&gt;&lt;div align=&quot;left&quot;&gt;&lt;font color=&quot;#7f00ff&quot;&gt;&lt;br&gt;&lt;/font&gt;&lt;/div&gt;&lt;div align=&quot;left&quot;&gt;&lt;font color=&quot;#7f00ff&quot;&gt;11. Dequeue&lt;/font&gt;&lt;/div&gt;&lt;div align=&quot;left&quot;&gt;&lt;font color=&quot;#7f00ff&quot;&gt;&lt;br&gt;&lt;/font&gt;&lt;/div&gt;&lt;div align=&quot;left&quot;&gt;&lt;font color=&quot;#7f00ff&quot;&gt;12. Dequeue&lt;/font&gt;&lt;/div&gt;&lt;div align=&quot;left&quot;&gt;&lt;br&gt;&lt;/div&gt;&lt;div align=&quot;left&quot;&gt;&lt;br&gt;&lt;/div&gt;&lt;/div&gt;" style="text;html=1;align=center;verticalAlign=middle;resizable=0;points=[];autosize=1;strokeColor=none;fillColor=none;labelPosition=center;verticalLabelPosition=middle;" vertex="1" parent="1">
          <mxGeometry x="155" y="-1172" width="100" height="400" as="geometry" />
        </mxCell>
        <mxCell id="1CHQfiaJzoFtv51jB6GE-15" value="" style="endArrow=classic;html=1;rounded=0;strokeWidth=3;" edge="1" parent="1">
          <mxGeometry width="50" height="50" relative="1" as="geometry">
            <mxPoint x="750.4" y="-870" as="sourcePoint" />
            <mxPoint x="750" y="-820" as="targetPoint" />
          </mxGeometry>
        </mxCell>
        <mxCell id="1CHQfiaJzoFtv51jB6GE-16" value="" style="endArrow=classic;html=1;rounded=0;strokeWidth=3;" edge="1" parent="1">
          <mxGeometry width="50" height="50" relative="1" as="geometry">
            <mxPoint x="910.4" y="-820" as="sourcePoint" />
            <mxPoint x="910.4" y="-870" as="targetPoint" />
          </mxGeometry>
        </mxCell>
        <mxCell id="1CHQfiaJzoFtv51jB6GE-26" value="&lt;h1 style=&quot;font-size: 38px;&quot;&gt;BST construction&lt;br&gt;&lt;/h1&gt;" style="text;html=1;align=center;verticalAlign=middle;resizable=0;points=[];autosize=1;strokeColor=none;fillColor=none;fontSize=38;" vertex="1" parent="1">
          <mxGeometry x="70" y="370" width="340" height="110" as="geometry" />
        </mxCell>
        <mxCell id="1CHQfiaJzoFtv51jB6GE-27" value="&lt;font style=&quot;font-size: 40px;&quot;&gt;4&lt;/font&gt;" style="ellipse;whiteSpace=wrap;html=1;aspect=fixed;strokeWidth=4;" vertex="1" parent="1">
          <mxGeometry x="470" y="600" width="80" height="80" as="geometry" />
        </mxCell>
        <mxCell id="1CHQfiaJzoFtv51jB6GE-28" value="4 6 5 2 1 3 7" style="text;html=1;align=center;verticalAlign=middle;resizable=0;points=[];autosize=1;strokeColor=none;fillColor=none;fontSize=33;" vertex="1" parent="1">
          <mxGeometry x="400" y="510" width="210" height="50" as="geometry" />
        </mxCell>
        <mxCell id="1CHQfiaJzoFtv51jB6GE-36" value="5 2 3 4 6 1 7" style="text;html=1;align=center;verticalAlign=middle;resizable=0;points=[];autosize=1;strokeColor=none;fillColor=none;fontSize=33;" vertex="1" parent="1">
          <mxGeometry x="1000" y="510" width="210" height="50" as="geometry" />
        </mxCell>
        <mxCell id="1CHQfiaJzoFtv51jB6GE-37" value="7 6 5 4 3 2 1" style="text;html=1;align=center;verticalAlign=middle;resizable=0;points=[];autosize=1;strokeColor=none;fillColor=none;fontSize=33;" vertex="1" parent="1">
          <mxGeometry x="1600" y="510" width="210" height="50" as="geometry" />
        </mxCell>
        <mxCell id="1CHQfiaJzoFtv51jB6GE-38" value="&lt;font style=&quot;font-size: 40px;&quot;&gt;5&lt;/font&gt;" style="ellipse;whiteSpace=wrap;html=1;aspect=fixed;strokeWidth=4;" vertex="1" parent="1">
          <mxGeometry x="1065" y="600" width="80" height="80" as="geometry" />
        </mxCell>
        <mxCell id="1CHQfiaJzoFtv51jB6GE-39" value="&lt;font style=&quot;font-size: 40px;&quot;&gt;7&lt;/font&gt;" style="ellipse;whiteSpace=wrap;html=1;aspect=fixed;strokeWidth=4;" vertex="1" parent="1">
          <mxGeometry x="1670" y="600" width="80" height="80" as="geometry" />
        </mxCell>
        <mxCell id="1CHQfiaJzoFtv51jB6GE-40" value="Pro tip: Use &lt;a href=&quot;https://struct.sh&quot; style=&quot;font-size: 20px;&quot;&gt;structs.sh&lt;/a&gt; " style="text;html=1;align=center;verticalAlign=middle;resizable=0;points=[];autosize=1;strokeColor=none;fillColor=none;fontFamily=Helvetica;fontSize=20;fontColor=default;labelBackgroundColor=default;" vertex="1" parent="1">
          <mxGeometry x="80" y="465" width="220" height="40" as="geometry" />
        </mxCell>
        <mxCell id="1CHQfiaJzoFtv51jB6GE-42" value="&lt;h1 align=&quot;left&quot; style=&quot;font-size: 38px;&quot;&gt;BST Traversal Order&lt;br&gt;&lt;/h1&gt;" style="text;html=1;align=left;verticalAlign=middle;resizable=0;points=[];autosize=1;strokeColor=none;fillColor=none;fontSize=38;" vertex="1" parent="1">
          <mxGeometry x="75" y="1160" width="390" height="110" as="geometry" />
        </mxCell>
        <mxCell id="1CHQfiaJzoFtv51jB6GE-43" value="&lt;div align=&quot;left&quot;&gt;&lt;font style=&quot;font-size: 27px;&quot;&gt;Preorder: 5, 3, 2, 4, 7&lt;/font&gt;&lt;br&gt;&lt;/div&gt;" style="text;html=1;align=left;verticalAlign=middle;resizable=0;points=[];autosize=1;strokeColor=none;fillColor=none;fontFamily=Helvetica;fontSize=11;fontColor=default;labelBackgroundColor=default;" vertex="1" parent="1">
          <mxGeometry x="680" y="1190" width="280" height="50" as="geometry" />
        </mxCell>
        <mxCell id="1CHQfiaJzoFtv51jB6GE-44" style="rounded=0;orthogonalLoop=1;jettySize=auto;html=1;strokeWidth=5;" edge="1" parent="1" source="1CHQfiaJzoFtv51jB6GE-46" target="1CHQfiaJzoFtv51jB6GE-49">
          <mxGeometry relative="1" as="geometry" />
        </mxCell>
        <mxCell id="1CHQfiaJzoFtv51jB6GE-45" style="rounded=0;orthogonalLoop=1;jettySize=auto;html=1;strokeWidth=5;" edge="1" parent="1" source="1CHQfiaJzoFtv51jB6GE-46" target="1CHQfiaJzoFtv51jB6GE-50">
          <mxGeometry relative="1" as="geometry" />
        </mxCell>
        <mxCell id="1CHQfiaJzoFtv51jB6GE-46" value="&lt;font style=&quot;font-size: 40px;&quot;&gt;5&lt;/font&gt;" style="ellipse;whiteSpace=wrap;html=1;aspect=fixed;strokeWidth=5;" vertex="1" parent="1">
          <mxGeometry x="155" y="1330" width="80" height="80" as="geometry" />
        </mxCell>
        <mxCell id="1CHQfiaJzoFtv51jB6GE-47" style="edgeStyle=none;shape=connector;rounded=0;orthogonalLoop=1;jettySize=auto;html=1;labelBackgroundColor=default;strokeColor=default;strokeWidth=5;fontFamily=Helvetica;fontSize=11;fontColor=default;endArrow=classic;" edge="1" parent="1" source="1CHQfiaJzoFtv51jB6GE-49" target="1CHQfiaJzoFtv51jB6GE-51">
          <mxGeometry relative="1" as="geometry" />
        </mxCell>
        <mxCell id="1CHQfiaJzoFtv51jB6GE-48" style="rounded=0;orthogonalLoop=1;jettySize=auto;html=1;strokeWidth=5;" edge="1" parent="1" source="1CHQfiaJzoFtv51jB6GE-49" target="1CHQfiaJzoFtv51jB6GE-52">
          <mxGeometry relative="1" as="geometry" />
        </mxCell>
        <mxCell id="1CHQfiaJzoFtv51jB6GE-49" value="&lt;font style=&quot;font-size: 36px;&quot;&gt;3&lt;/font&gt;" style="ellipse;whiteSpace=wrap;html=1;aspect=fixed;strokeWidth=5;" vertex="1" parent="1">
          <mxGeometry x="35" y="1490" width="80" height="80" as="geometry" />
        </mxCell>
        <mxCell id="1CHQfiaJzoFtv51jB6GE-50" value="7" style="ellipse;whiteSpace=wrap;html=1;aspect=fixed;strokeWidth=5;fontSize=40;" vertex="1" parent="1">
          <mxGeometry x="275" y="1490" width="80" height="80" as="geometry" />
        </mxCell>
        <mxCell id="1CHQfiaJzoFtv51jB6GE-51" value="&lt;font style=&quot;font-size: 40px;&quot;&gt;2&lt;/font&gt;" style="ellipse;whiteSpace=wrap;html=1;aspect=fixed;strokeWidth=5;" vertex="1" parent="1">
          <mxGeometry x="-65" y="1650" width="80" height="80" as="geometry" />
        </mxCell>
        <mxCell id="1CHQfiaJzoFtv51jB6GE-52" value="&lt;font style=&quot;font-size: 40px;&quot;&gt;4&lt;/font&gt;" style="ellipse;whiteSpace=wrap;html=1;aspect=fixed;strokeWidth=5;" vertex="1" parent="1">
          <mxGeometry x="135" y="1650" width="80" height="80" as="geometry" />
        </mxCell>
        <mxCell id="1CHQfiaJzoFtv51jB6GE-53" value="" style="shape=image;verticalLabelPosition=bottom;labelBackgroundColor=default;verticalAlign=top;aspect=fixed;imageAspect=0;image=data:image/png,iVBORw0KGgoAAAANSUhEUgAAAjgAAADvCAYAAAD/0a5IAAAAAXNSR0IArs4c6QAAAGJlWElmTU0AKgAAAAgAAYdpAAQAAAABAAAAGgAAAAAABJKGAAcAAAASAAAAUKABAAMAAAABAAEAAKACAAQAAAABAAACOKADAAQAAAABAAAA7wAAAABBU0NJSQAAAFNjcmVlbnNob3SE1l9qAAAB1mlUWHRYTUw6Y29tLmFkb2JlLnhtcAAAAAAAPHg6eG1wbWV0YSB4bWxuczp4PSJhZG9iZTpuczptZXRhLyIgeDp4bXB0az0iWE1QIENvcmUgNi4wLjAiPgogICA8cmRmOlJERiB4bWxuczpyZGY9Imh0dHA6Ly93d3cudzMub3JnLzE5OTkvMDIvMjItcmRmLXN5bnRheC1ucyMiPgogICAgICA8cmRmOkRlc2NyaXB0aW9uIHJkZjphYm91dD0iIgogICAgICAgICAgICB4bWxuczpleGlmPSJodHRwOi8vbnMuYWRvYmUuY29tL2V4aWYvMS4wLyI+CiAgICAgICAgIDxleGlmOlBpeGVsWURpbWVuc2lvbj4yMzk8L2V4aWY6UGl4ZWxZRGltZW5zaW9uPgogICAgICAgICA8ZXhpZjpQaXhlbFhEaW1lbnNpb24+NTY4PC9leGlmOlBpeGVsWERpbWVuc2lvbj4KICAgICAgICAgPGV4aWY6VXNlckNvbW1lbnQ+U2NyZWVuc2hvdDwvZXhpZjpVc2VyQ29tbWVudD4KICAgICAgPC9yZGY6RGVzY3JpcHRpb24+CiAgIDwvcmRmOlJERj4KPC94OnhtcG1ldGE+CqdH9XQAAEAASURBVHgB7L0HfFzFtT9+VFarVe+92ZJlW7Ll3jEGjOkJEDohDV4ahIQEEpI8Uh4vvSfvH5JfkvcSUghphBIgFANuuIN7tyVLVu91Ja3K/3xnNau7q7urtrZVztFnde+dmTtz53vvnfnOOWfmBuQXLOonEUFAEBAEBAFBQBAQBKYQAoFTqC5SFUFAEBAEBAFBQBAQBBQCQnDkQRAEBAFBQBAQBASBKYeAEJwpd0ulQoKAICAICAKCgCAgBEeeAUFAEBAEBAFBQBCYcggIwZlyt1QqJAgIAoKAICAICAJCcOQZEAQEAUFAEBAEBIEph4AQnCl3S6VCgoAgIAgIAoKAIBAsEPhGYObMXOq0d1JFZbnvhFMgNjIyipKSkqi6upra2lovWo1soTZKS0+nhoZ6amxsvGjXcT4KjoiIpOTk5IuO8fmo23TPc2ZuLoXZwl0w4NktLy9zHV/onbCwCEpOSabAgACqqqqi9va283YJWVk51N/fT2VlZ89bGf7MODY2luLi4qmivJzsnXZ/Zj3h8wrg5wH3ajqI3wlOUFAwXXX1NdTX10evvvKyTyDnzJlLs2bl09GjR+jUqZOjxjs4OJiuufZ6CjCcaWcygpfsbEkJdXZ1GmJGvxseHkmLFi2h5uZmvxCcmJgYik9IoMqKSuroaB/9BY3jjFBrKKVnZlBTYxPV19eZ5jR79hzKzs6hPXt2X1SCk5mVRfPnL6CTJ45POYIzm5/5nAmAsecDMIOJfHdX90XtkD2vabIdL1ywmNB5aDnH5OZiEJzk5BRavmIlhVhC9KXQtm1bxkxwUlPTKCw8jM6cPm3angcFBdGyZcupu7tr0hCcoqKFlJCQSE1NTZOS4KCfvfY6976vt6+XqiqruS89QS0tza57j53YuDjuy5ZSVGQk4X6B4KB/PM397vHjxygtNZ2WLF3qdo7ZwdmzZ+nAgX1mURMyzO8Ep7BwHo9iwqi4+Izpy6BRADkpKJinDgHaWCQ+PoGsIVZVjsPRTYF846Kjo/lXpPL+98svjuvhjYqKpJ5eB49+KsdyeUPOmTe/iJKTUqi1ZdMFJzggN2iAT50+5ZXg4CWA1NbWDrn2CxkQys8PcK+uqb6QxV6QsuImCMbGytoY78VM5FtZa3cxOmTjtUzm/Wee+Zu6/AULF1Nebh7VXaT3aOWqVRQcZFEdVyVrnjHYxCBtrLJ8xQoKCgzmzvCUaRa63RhPGaYZn8dAEARHj4MHUA3nsZTzl3UCD5Td+75ACuG+cMaMGZSTk0OvsHJBa+zyWImwgAkdpLe3lzXjDWQLs5FTU56pnpOo6CjuPwc9VnC/Qdbx7PT197oq0t5x/rSArkL8uONXggPSkpc3SxGOgwf3+7xMkBsAeObMGQI5GYuAgUPKy8/Rzp3b1b6NVcRXXX01v+DBlM03+tixoyp8LP8qKyvouWf/OZZTTc+Jjo5R4fX19abx5zMwId6JVX2dufYGZUeER6h713GRH+ID+98l/KaiTBSMjdjq96hpipkDjXW8kPsJPPCC1NTUXMhiVVkg0CA30EwcOnRg3OUHB1tUfr7MOPr5uRjt2lgr+MYbr4311Alxnsa8oqKcdux4W12TxWJRFg1o7jIzM1XfBxIDcgONzZYtm3jwOvhMwkQXFuY0qaKfNPaVV119LUWyOX3H9m1U6acB/sUAzq8Ep6BwviIt0BI4HA6v9cFLo4nQoUO+iZDXTDgiPj5eRRtNLnZ7O4GYZGZkEfwdtIBMXXbZeqW6O3PmFMFUkDhAkEpLy2j//ndUUhCklatW69OInwzavPlNxXwHA4lg8lm1Zi3VspYB5qbcvHwKDbWqsg8dOOAyj4E9Z2Zmq1NxDuTSdZerLf4d4HKNDQMeyML58ykxMYkZeogqt7W1la/v3VGba2AOKypapMqKjopS24LCQpqVP1vtl5WWuEyDttAwCgwMpLb2VoLfkbf6qBP5XwqrwecySQXzx6gAWq5339k7BCedfrhtenoG5c+e60rW1tpCu3fvdB3rnYKCQvYrSKP9+/bSnLkF/AwkUEd7B504eZzKSsemCUTe6emZXO+ZFMO2eYxaavi+oj49PT26aLXFaHXhwiVUeraYutikk8t+FzGxMep5P3jwoNs14BnPzp5BEZHh1NzUTCD9GmNjpvCVWLR4EcXFxqlRFMyIu3fvGqLlG+kzbMzb2z7U1Jdeys8hvxfhbH6AJKek0OVXbFD7ra3NtIevwShLliyjqKho2v72VipgTW0S+xJZrSHUUN9I27kh7OERMfCZxe9CHL+bVquVOjs72SRbQafZvNHOzxZElb3uCqVJ9CSyyH/J0uXcQTcy/ntcxY8Uo9HcnwxuI2CWhfkF96Wrq4sqzp2jA4bB2Ujq47rIgZ1INgOgQ2nlZ3i8YuHOCprfpKREbl9C+ZnopINsIvDUKq/jNiWQB3U2m7ONwTOn72VFxTk6PsqB3rJlK/i5jSKLxdlFQFug80ObuGnTG+o9Qf3wDkLa2tpo9ZpLfL6TuPcLWJOclJzEbaiV2jvsajBTXV2l8hjLPwwcYTlISEwku91Oh/k9TE1L4+c6nNvut1xZzptXRIlJya5juDKcOnnCdYwduExkcHu9h9sez/uH68Zz/c47u/l9blLnjbQ+q1avUc/9saNHaT5fR1RMlGr3Dx8+RI2sURmtgJxA6uoHB6zoc9EWhsSEMK4dKh7mfsjZsyVu5AZh8HHEz0wwEIMY8zdLN9HD/EZwFGlhtSxe7COHD/qsNxpHNNanWOXpiwj5zIQjYY6C1Na5m1Qi2HcGgkZSC/xfMLoJjwhXfiYI7+ntUZqeDDbfaIKDxt5ms6rT0OmjPujAPSWBCUgcd4axnC/qAnWn0hrB2a6vn/bu3a1OiYqMVvmhoYKg89T549jhGOxA0cheedXVynaOMtuZOKFRQwMSw53faB1ugYMuCy8i6hIcHKR+KLuXr0ULGgdIeBh3tmyu8FYfpIH9Gg0BpIvt7hgxZHO9Y6Jj6fXXX1Hho/2HTgHXilEIRqABXjKArwiIIjpn4NXb10O4t8u4U0RHik52tDKXiZI2l2KkCpKZxY1cJN+7Nza+6pYdbNW47yEhwazxcnZkuAY8K2nsq6BJ1kLGMJevFZgDI9zDddypQ4z3MT0tg1asXKWeITyPAfyH0dlVV11DL774vNv7MdJn2O2CvRxYrayiDnN2hui8IHjm9PPS1jr0DsA/C3LFlRsURjAjQpUNx3QtS5YsJ5DpbtbKorMJ5xEinpWZjMULLzzHZfSocvDeREZGDNHULVm8VOF7tuSMzpJGg9FI709uXp4y2aIQe2cH+4/0qmc/h0mukeCMpD6uC+UdPAd412DuG6/gOVy/4SplisCzwaMt5UOxZs1aeuutja6BEd6ZMO7MuRlS7wbK7e0dbGf6De/5SK8pikmD1Wrh/GzqFJgp9LPhcPS6yA0i8VxCFi9eop5jb+9kOHea6/nZsfAAF+8F2hj4hFxyyaW0iQeRYzHpoU3HwBVtMHxKoHXAABXHeD6Ngv4CdbCGhKq2o8aEVMHMg/c7kdtDI8FBHfP4mcFz3TJg7htpfWDZwHMJSUpMVtjh+uCugEE4XClGK9Exzr6vzqCRARnHdQLbc2WlKks8i5BYJkQoE3HDCQYTTvx63Nqf4c6biPF+IziF85zam5OnTvoEBS8j7NMA+vAwRMgXYLhxeBiRj2bTSI9RMzzkEV7OozEt0IhA0JjDpAXtABp0EA845WmpY7L00ov/4hchjK677gYmGeY2R00IUM7WrZvViD8mJpbWr9+gZgBpggO2D8FIESOIkzxi8KY6RjzIQjmPuHZsd6odcS6uvbVl9KPBs6xlwA8v0dWscmzmPDZ6ISBa5TlcfYAVOiy86Ft4dARVOF7gaxkrNCDAwEgscf0jEa0i1R1Pg4ltHC+d1oJVVVfS3j17+FnrpitY64B7npGRSSWGjnEk5UITBXKDjve1115Vdms8Vzfc8F5FXtFhoQPUorWGIDdwtsP9hEDzYAmxqH00ZiA3aGD//dJLiuCkpqTy6HatisczBsG9hjMo6rVjx3aX/8sla9dx45fMOM+mI0cOqbT4N9Jn2HWCjx2YIfGcQ2666RbV4L/04gtez0BjjuuE4L156SX2b2NtKWTGDK7rALE8ffokVfOMHaMTPZ4N+OUlskaxaqBTAZFEGPLEMwdBZ4URMjqqM2dOq7DRYjSS+4O2YwFrNlHuyy+/5KoHBmnavKQK538jrY9On8haLYi3kbFON5LtpZddptqrM8VnXNqspezMi8HEnLmFtI3bHQgGiS+/5LyX1/Nzi3fkZb4/eKbHKrqdgGYIbcOWzZtN62R8JyurKny+k3j+QW7wzqDtx3Ok/UOK5i+kN954bVSXi7Ix0MEWGs9S1kijLcK7Cx+blmZ3krlt2xaV/yVrL1XkQr+HxkK1mRYDSr77rqjFi5ep/X3vvut6XkdaHwxutIA8n+Y+EoL3DgMA9EkYBI1UMLDTgxIMNiHQPGvi+A5rnvU7VcwuIGjfMOi48cablUsIFAu+3BBA7iCtLe74qcBJ9s8vBAekRY9Wh9PeFHInjgcSD7luFM0wQ57oaHr45TW7+WCrWq5Yf5UaNYXxiBSjf8i+fe+4ORij4YSgY9Y2Sxyjgzx3zsl2caxFd/jG0baOw1arCE+zOQ7mDIhm/HhxPQXmIojZS6XTQlUOgenDKEa7qTEcL7MieVxeF9cD2iEz0R1joxd1JM5B5wLxVR/cN2gbILt37lDkBvsw45SWliriivviSXBgagvmztzBL3G3D9Ml8tK+QmajOT1SxMu7e9cuVwPe1taqCI42J4FkORso5GguMIHhXswbaCB27dzpcsrDbBCMwKMio5QJzkhwtNYQZlBNblCCcdYCNJSQXTt2uJ5d2LFx3cCwrtapVl7G5AaN1WnuzI3OvZg9BoID0maU0T7DNpuNpwgHUoe9w9XgGfPDPjpDdPhtw0wh1u8DztmyeZOLFOC4uHiwIyjWxITfXWX64vq2sYkVZIbtYUiuRIdFMSnWAxTdiezd4xwUIOFoMRrJ/UHnh/ug3pf+wXcG7RGIs1FGWh99DkxJkNoaJ4nV4Z5blB8WFkZ9rGkx828B3iDR0OIaTXUlJcWK4ESwJtpTkCfuJzQjw5Gb4dpXnTfuD8SbMy46Vshw72QuD2qhrYEJ3DgL5wy3n0U8YzKCtXlmop5P1jp3d3cPGTjn8mAWzy6IFcgNBG0ANPopyanKBKoCPf4N+kI630NjdMOAH1o0D1i04F7gXcQ7oqfBj6Y++t1p4TbHaBJDvwYtnVM7p0tzmnBB7AMCA1S9dbumU8Qq8uU80m27jitlM72+RoRhsIDB09JlS1XfiMEpfmXc58EEb2ZBgQMzpN5Hf6ESTIJ/fiE48+YtMJAW76MGvFQzZ8xULwNsj94E6cA4g4IC+QYFuToJY3rtP4OXOmbgJQR5aWyoYXLzrluHg/PQ6UEOsX12JKIfSm+EJIpfSLzUR48edmWnSZcZ89Wdc3390JdKZ1DCbBvqeGCUxbZTrNFw+PBhr2zbyo1ZRLhThdzS0mbaUCJv/cB6mvJ0udjCXDBcfVAHjBIgiz2mFOKFhMA85ylWfoltoSHUz577TeyLgvvkTeDPAqkf0HIY0+mXGfZkYwMePaAi16PmRQudtnLjuZ77WNeohTVaeM7QIXhb5wh+GVpARkAoIXjGzEQ9u/w84vrMnPOAsSZDIDGQ9PR0SktLdWUXFOhUK/cZOl9EjuYZhn9DOOONDiCArxsk0EziufGG6JGrWRqEaY0lOhOjdsaYHtrQhQsXsc9ZlmoPjHHYN86yAalJAomLiVMEB5pBkBOkMfqXjAajkdwfXIcmsDBnXHf9e6iRr6WESZrWGiENZDT1cZ4xOPDRgx4d7rmFVjWMzSU9PDjp4+m9XdyBG2VWvtMEfOLEMWMwrFRKHN1D21nd8WkTivuJg0ch3L7Cdy6Inwtv7StS49nBe41OEs+tmeh2eLh3Er5oEHTo111/g1tWaMPN8rexeR4zWSHtnMazM4bmEIJlRowCUg8xa7uNJNCTOOAcaCVxLUbCtXjJUkTx8hmDPmmjqY/WKsI3yCggbyA3ngPiEB4Qon+BtLWxqY1Jm1G0hgXaUGjx8NzD9LVw8WLlfgEidsyACQZP+OEdy8+frd47+KiirYYlw1NgzoL4mpDiec5EPR43wUEjgKlpGA35Ii0AAGub4AE7wSNUYwdlBk6/atz5QTV/r1iV7WSZMPdgHv9wghEkHiTjaNPXOVqjoUfbxrR46TEKxOjK+NLpl113tMZzYMuGycKY3hiPfTywmza9SUULFinSlpWVzUQnm3bxQ6h9O9zP8QKOeyLl+IkgM60IwtFpj6Q+mmBgxGlnZ0ej2Ml5bFZ3fRM9O2zj+XofPkC4T2ajWq0Fw8wBowzOTGpXwXgerAPOlsZ0xn28vFpD0to81PwH7QdEkxHsawILp3BvnTxMVZAWD/UuGnY8+3hmINrkgwYOjoFDpZ0JboVb8GieYfRHrj7JteOWnTrQRN4X8UZC3Xn6GiCsWbOWfY3iCaNg7YSNUehydlhF+2DUhOmRstIAlBA7WS9R17Nnz2CDO1qMRnJ/VCH8b+Prr9JcNvPMYJ8b+APFss9UPpuRjf4Qo6mPzhfPonp+WWvmUwbuCTpTs9uDRTchnu1PFBNySAs7gXuK7viMkxY80+hjF6Hw0YTojtlITPX5ejvSdxJEBWU2m7xraEvMTNJuuJhcZxgTeIink27kAEZ1/I57itY4tZhch04LQof3FQLTMogwMDV2+KOpj9YqGrWD8HFCe2A2GNbXga1JtZU/H+L0O4t3C3nj3VzBWmEMMIwEB2khcOTGD9qtNZesVQOr3YPKUmci/h8R7tQOmg0yXYkmyc64Cc5ISQtIQU6OkwgZ/QrMcAIJaOIHEB1vrwd71em1RsSMpes0eotORz1MrCofqWiNhrGD0+fq0aznqFeTLs9rgoYB5XvahHV+xi3OhWMr/AGW8MgBfiWzeXaRGcHp4hexj8kAHAp9aUVg51UdjJdGV2t4hquP7rxhQjGaZ4zXb7bfyc6mcKaGOdBzNGJMrzs0TQKMcdjXGgwjvmiIMIIxOnV608Z45qedYzu73ckabObQVMG0A9y0aAJrdOzTcXobOUBwcG+MAnU6RJvvdKPXUN/A0zffUnG+/o32GYb6O7CdTUJMMODs6000kR9u7SM0euigzN4H5J2enuEkNzwj5M03X3cVB/MDpK3dSex0hDZ5xHBDjxlseEZB8OHTpWW0GI3k/ui8QUIwOMIP7/Mlay5V14AOGx3ZaOuDfKGVwXve1tami/G6xfMK7Q0cgM3eXT0byvPezZyZp/KEdtdT8NxCfD2fiIeZGJpUX+0r0o2E/I7knQQmGECBzBufDZThS0A0+hp71bnQsnoKJnW4iNpAJN4TtAkYQENT5yn6GTEfiDlTw3yKPEAyFy3RxHtQezOa+mitIt5H97bEea/MzEC45709vapdM6u31lh7DljhsgAx06I7a+b8r8s0I0+oNzR3iqRPgRWenbo8Y+1HsY8XJCcnR904o6nGLIv5RUbtzVAfFc9z9CjI7OXHAwb1HsSbj4wxP92BY4GjkYjW0KCDMxP94td5mJsGSZf7yAGziyDeRv2IQ5lGgT+AfhDhh2QmPfwS2HkarhlGOj1MJnjJfKUZaX20mUOrZ3UZ2EKTp18wYzj20aDaGUtf5Abp9HV4u094+dBIGrVgmM0G8SRnKnCYfx0DUym1dgLJgdXSZcvUmYcPHXLLwdWBmJjPdMLmJuczpmc5IByOynkDBEePAjH1H4JRN8o0Cp5v1NUoo32Gca6dOwjPDtKYJ/a1L4evTlk3et4c7pGP6z40DxIUPHua2DU2uk9HxSJk6JxgCli4yOnw+87ePcjKJaPFaCT3B9jiuoyCe9JPTiLb1ensFEdbH+QXEeE0K3h2usayjPt4J9CJm0l3t/OdN06AAOkC6UNn6anFRB7avOvZLpnl76t91em1/81wz8Zw7yTwQHkgJPoe6TKwxdIc3kS1HdzRmrUdGAjhfuo8sa99BFtbzUmm9mPzJAfG8psGZkkVcZ+Fd/fcuTI3E+9o6qPL035muhyt+dLtgQ7XW7TXeDaAm1FQR933GUkatJdFC5yDCUxSgaSnZajJMsbzsb9ggdMx2fOaEKdN1p4DEsRNRhmXBkeTFsyA8bwRRjBAhDDFFGmOHTtijBrTvlYzerJib5npjtM48vdMi5EIGhCIbqgCefRbyGv7QKAO1L4B+oUyviT6wTNz8NOjduS/YsUq1elA7YsZTlrWXX4Fj6hCqIxXdcaLizVGUnm9F7xMmCEwVkHDANzxUqzh6ZjoNKAVO3z4oCvLkdYH6wUVFLBHPjeyG3gaM6YiBrC9G74UUGe/8cZrIyKcroJ5B5joUSCWhIdAW6Bxh9McnLe9qXRHcm9Vpib/oLUAvujAMVsEjU0G+z5BmwCSVVpa4naWa+TE6mpvAsKNBh8NI9TAUEHnsAkXoyKIfgZRJzy/mA0BPxA4aXdxQ44GESpkmHGN92g89fR2rQhv444gLt5KV6y/Ui1MB40CNHRGE6Fu9HwNJs6y8ytmR+IzFA72J8FoFX4kmrx5mlpQNhpxPRukmM9Hh2+U0WI0kvuDjuXStZcpVT38ZFB+Oi+KhskJ0KpoEj+W+ujnCQOd9TzxAdffxtqc4TTWxjrr/arKKrUuE5bPx/tp4WUJsHSBag92DZrxdHpsnWZw9wGAMX60+9CmoZNcyB1iEg8kMLBA56k75dG8kzChIK+1PEMQDvoYvMGRF9+ca29rH/UMKtQFs2ThU4J3F6YX9AuDnf/gYBZpMACDoK2CYLabNmmiTzL2X3qwlMLmKeD97rvvqHOM/0ZaH60x8jQbavP4aM1AcJBGXwNZw1pH9FHICxoyCPxv9JpH85nwoC1Dm4N3F2b31NRUlRb12mXyHGnrhNawqkwn8b8xExw0DNnsHzIS0gJmiZsChznjgzRW3HSHbMZAzfKMHnAw9qW6hWc5/F2Mgk4K38uCoMPRBCfSZU8eHK1qdbqZbbeZR7VwwkP+MDlBqmuq3AgOZlPg5dSL8CENyNI7e/e6FkhD2GgFD/J+ns6M0QimROMHXyBj5znS+mBq4W52tMNaJZhhBLIDQRl4gYzmhZFe54KFCxUZMKZHZ6479Cp2aoWAQEG0Vksd8D9Nds3s7TqNty1MZiCP+I6OLhN1wTICxpl2+nzcH2AH7ZovOXL4kForCEQFP5BZaErQCBkxwsqia9asVQRr1oCGB/mC4GLUaJSRPMPG9CPd38cLTWK6q5oxNuD3cfLECbfT9ShUd2xukQMHIPH49hI6MSyJAEHDGsKYYfYMOn9PAbmyMrkCGTqwf59ntDoeDUYjuT/QlOIeo/PCTws6LMyk0zKW+sAsgmnABQWFTNpj1A/3fiwEBzON0AHDPwjrr0BACN/etkX5g+jr1FttwjRrf3Sa0W5BdGE+hCN+To7TSRhaPP0cjOad3LtnN4Wuca7phTZQt4No406fPjXaS1Pp4WunndOxbWUyCfMS3uUabl8hGFjAjcJTQMYheBaMbSHCjJ07vpFoZuoaaX30bFs9sEH+EF++hs4U5v/jE5ztIGK1iR3vD6wNwBH3DHWCoN+B355u21Qg/8Pgbe/e3aYWhVhXXzn0fdXnT6ZtQH7BIicao7xqvR4DXl5PL3ZjVmh0MELFTXj++X+qrTFe9gcRwCgDToQw9cBJVa8zMphiYuyBrMLfAH4CmNLexiNffxDXi1U7NIIgqD1MMlsMJpbxXA86Uqj427nRNWpDzPKEij6SV551sGYNDbTRBGeWfiKHAUt0fGhEoT30l/gbI/hXhPM0bWjR8K6BnJjJ+aqPWVlmYah3eEQYtQwz+9Ds3IkYhvcCTsBoQ0byboykDtASolPH78abblaLTz777D8uSF9zPuozkjqPNA2wQVuNVfbRVkOriL54usiYCQ5MLcGWYF62fZtPwDBKgoqwhE0vmFkhIggIAoKAICAIjAcB+FFlZWe7vnCOgXQRa4Mx/RmTDNAviQgCYyY4Ap0gIAgIAoKAIHAxEMBq4fi+E7Q2MDXDzxMCx9x/8+rU3jRyF+NapcyLh8CYfXAu3iVLyYKAICAICALTGQHMdMInLLDMACwJWEenprpafTxY+6BMZ3yk7k4ERIMjT4IgIAgIAoKAICAITDkE3BfgmHLVkwoJAoKAICAICAKCwHREQAjOdLzrUmdBQBAQBAQBQWCKIyAEZ4rfYKmeICAICAKCgCAwHREQgjMd77rUWRAQBAQBQUAQmOIICMGZ4jdYqicICAKCgCAgCExHBITgTMe7LnUWBAQBQUAQEASmOAKyDs4Uv8FTuXo2SxAlxVippqmL7A73r+5O5XpL3S4sAmkx/A2yvn6qaXF+adzfpeenRFBSdAj1chnbTzb6O3vJTxCYtghMaIITbomk3Ng8Km8to3p73YhuUnZ0LiXaEmhfzTvcKPn+KKJnhmEpuRSZMZsaj++k7lbvX4z2PG+yHAfgmy3n4TskQRYbJSy4nDpqSqm19NAFg+Nj67NpUU4Uffkvx8jeKATnggE/yoJuXJtF+ODd81tKR3nmxEj+mWtnUEJkCH3qt4f8SqStwYH0g3sKKDLU2Qx3dPcKwZkYt1yuYoogMKEJTlZ0Nn1i8UP0ypl/0XMn/jYiyDfkXEOLU5fTf21+lKo7nF+UHdGJnChp8dX8u4Z6Ozuo7tBbIz1tROli8peTNTqJava+ZEoyQuPSqOAj3/ea176f3Ut9jtGPIEMi4yn/9sfIlpRNAfw16+62BqrY9GeqefcVr2WNNsISEUPZ13yC2itO0OH/e2S0p48pfWy4RZGbcw12qmjsHFMexpNSI9IpIzKLjtcfpZbuwa/EG9NMhP2lKSuovaedjtZdOCI53np/5IY89XHFiUhw0vlry7mREXSIP2bZwB/eNJNn91TRx5lM37w8hZ7aVm6WZExhq/JjFbmpae6in71aQo1toxuQjalQOUkQmEYITGgfnO5eNj30dFC7o23S35KsDfdR9tUfY5JhMa0LwgMCg9QvyBpGwbZICg6NcIWZnjRMoCUsmuZ/8gkKS82lnq4OsteUUEhEHOVc/wAlL7lumLMndvRdq9PVBf5j1+hIrLdaLUlZTh9Z8AnKis7xlmRChN+78H66fe4HJsS1TIWLuCUzkz47ew4lWJ3fMjKr0w42G3U5+mh9YQKFsNbFX5IWG6qyeutoPZ2rt1N7l/kXzf1VnuQjCEw3BCa0Bud040l6+PVPTot7Yq89S3u/f6eqa+5ND1P8vHVUvuWvVL75T2Ouf/KKGykoxEYdVWfo0G8eUvnEFayhvPc9ShlXfICqWZs0GSXCGkzLZsYQVPrvljRPxirINZ9HBKJCYmhJyjLaXrGVOnvsPkuaHRml4kvavQ+iYF577WAt3bA4md7Dv3/sqvSZ50gjAwMCVFI7P8cigoAg4H8ExkxwEm1JdFvB++lUwwl6tfhFtytLj8ykG/NvpQPV79LWc2+54oqSFtFl2VdRWkQamwFa6FjdYXr+5D+G+Mpcnn015cbkuc7bU7WT9lXvcR3rHWuQld43+04qSJhPjn4H7a7YrqPGtbVExtKce75B4dB8dLZT7buvUsXWvw7JMzpvKSXMv4yiZiykQDb/OFobqHb/61S5/RmVNjw1j3Kuu1/twzwFKfjQd/kLuH1qv+HIVldaFTDCf9nXfJwi0mbRmRf+h7Kvuo/Ceb+3u5Mqt/2NqvcMkpbERRtUjuc2P+XKueHINuq9voOCrOEUkVlAbWVHXHEpK2+i+MJL6cxzP6K4gnW8v4YsbOLqqq+g0xxmrytTaeMLLqX0tbeTJTqROuvLqWr7s648PHcSF15FyUuvJ2tsMl+jnZpPv0MlL/+C+nvdR6uRWfMoa8O9VL3zeWXCS15xA9kSs6nH3kplr/8fNRx925X13AzWbHHfcLTce6eExLmx+bSIO7r5CQvIGszOyB01tOPcFnq7fLMrr08u/qzKKy0iU4W9N/8WujTrcrVf21FLfzv6R1da7Nw6526KtsbQU0eepKtnXk94pkODQulI7UF6+ugf1LN8zcz3UFZUDv3v/ieot9/ZeQUHWui+BZ+k0pYSevn08255xljj6IZZN1N2zAyK4c65jv3N3j63md+dN9XXkpewWWpF+mrXOYlhiXT/ks+6jl889TydbT7tOh7JzuysaHr47kLavK+awkKD6JIFyRRhs1BFXTt9/df7qa7Z3exXOCOGPnXrXEpgrQM+ZljJGocf/OkwlVW73wPk+9CdBZQcZ6PWDge9sMX5zJhd06LZcXTfe/JVWsSX17bTd35/kKo47/FIUjjapnvoZOMJOtd6dkhWlycn0+r4RBWeFmZT28/PKXCl+9PZEvIkPLvONCuCMz8z0m8Ex1Wg7AgCgsB5QWDMBKe+s45mxxcqcrGx5N+uhhxXeWnmepqXuJB2lg92SpdnbVCNTh83+OfYaTg+NJ6unHEtzecO4r+3fon6Bjp9nI8GKjMqm0KDQynSGk219pohBCeAe7gvrn6cksNTqLWrmTrYBPOeWbfg9HFL5vqPcCfbS10ttRQanUwZl91D8GVBx6wleuYimn3nV9Vhd0sdOTrbyBqXSqlrbh0kLQGBZImIVWkCeB8SzP4q3EOo/SA2Q41FomcsoND4DCq874cUGByifHNwffCD6agto9azB1W2FptzdApSYZSOqtMUmT2fwlNmuhGcyIy5TOryKPfGh5VZq6+nWxERmLiicxcpggPCMuOGT6nsupprmIRkUe77HjFm79rPu/nzFFe4Vh07OloUhokLNzAhXED7/7+PunBAAmtMsio7dc0titgAo97uDuW3BL8oI8HJSQxTefryvZnBBPnhFf+p0p1rLaU2JkrZ0TMojp87I8GJDo2hIDYNhlvCVdoIC8iTc2TdzfX3lPn8XCeGJ1MUP5ez4uaoZy+YzYurM9cxWX9G+e8UJi5gcjWLgg9ZqLfHSXBQxoLkJRQdGutGcPJiZ9NDyx+lwIAgarDXMwmr5gFABt1V+CHaXbldaSAsTI5ibfFul2I8tgSO/jVOiLZSakIY3b4+R9W3t7ePgoICKTslkn7w6aX04f/e6ipvZWEiffnDCxQRbO/s4WslmpkWST9/ZAU9/NPddPJci0qblxFF339wqcoP6cLYefZD1+epuD6eIWSUW6/IoQ9d54xD2cA8Nz2K/t+jq+n+7+9QZMeY3td+AAXQVUw2N5VuNNXYhPE9vSRjnWsglhoaRomhoRTNX6GG2Ht71bEuo5OPPaWi0Um6knnWnr8kM95pourucQ54/JWv5CMICAJOBJxv+BjQACHZzQQGDfu8pIW0v3qvygWNzfK0VUxYemk/z2SCWJmo3DTnDrX/7be/pmZFBXGD/vDKxygneiatSFtD28u3qHj8+8uRP6j9uQnz6MGln3eFG3cwqgW5KW46RT/c+U1FkOCACR+F8Qq0Cwee+ASpDjwhg+Z//OfK+fjcW39ijYKzMc9mnxrIqWe+S9CKQODEG5WzQO3jH5xu9/30I+q46IH/R6GxqXTg5x8fk7OwK1PDDhyGjz35JTXja+ZNn6OEeZdRyvL3KoID4qN6JCYKntoSkA0ItDNmAkJz5vmfUt2BjSoapEcJd0JZG5z1OfH049R0ag9hBlXRg78mS5iTTOn8onKKFLmBY/SRJ7/IZrLT7FMUSXM/8A2yJc+gFDafVe0YqvmB1qbu4BtU/MLPlCbHEhbDmqbZOlu1zUlwjrpLfYz0b8q/TaX9nz3fdznk4pnLiZnpltd3+HmE3JB3M12XdxM9dfhJOlS7zy2N2UEaOyU/vuVLVNVeoaILE4uoq3d0mgeQmv/g5xXb3x/4Ne1gkwokkMnwhhnXuUg/wnXcE9c8SdAsfXPrYyrteP+BWDz50in6+xsllBJvo199cQ3FR4dSXJSVGgamRX/yljnqUXpxWxn98p/HVZFfuXchLS9IoE/fMZce/OFOFXa/ShdAOw7z9f12vwr74WeWU36m+7MRGWahD1yTq+J//dwJNbvKwr4tj9w9j1YXJdGjH5xHnx7IUyUa5l8ma8tu5PuN+/fnQ79jDViN8wwmYmszL6db576fQBJxXyvayumps8Xqd2VyCj2Qn09/OXuWnis/57OUnt5+AhHB0gRBzPAwpXs8gqnheclOUv1OsfN9HE9+cq4gIAgMRcCpVhgaPqKQbeWbVLrV6Ze60mNUC0Kzr2qvy/Q0g0kMGpiDNfsUuUFiqO6fPf5Xdd5idvAcrcApFPICj5q19gemLGhzvElQUBDZbDb+hfFoNchbMqUtALmB2OvOUUsJd3jcEcTyTCgtvQ6nCh9Ou1pAJJpPO4meDjuf2xo2R+np7LXvvqaK0qYwSzhriligifKUvoFrt4RHe0ap46aTu13kBgHtlafUz8ZaI5i2UCbIDaTXYVemMXVg+Je68mZ11HSK8eC+AFPwQ2KSlAkPEfEFlxhSD+72sCbszHM/UeQGoY6OJjVtfzAFa/iimLyxVPL6N94EzumQSMtg54pnDn5d/pCnDv/eRW6Q3+HaA0xwvF+PWZkzmGxFsbkLJF0TGKTD84yZg3CyH4/gOQ8Lc3ai3vKB9gTkBgLTUEOL87nOTnWeB+IBsgMNzK+YjGj58Z8PK0VkNnfUWqDVgfzsL0d0EP3k6cF9HXjDJZkUyCShze6g06z9mZ/LJuHsaHplV7lKkp08mKc+B1vUJYzr5CmlLcX0tU2fVybvDxZ9lD45YL57ePmXWRP2YTpcs58ee+tzitwYz50d5Xw2Tra6m9mMaYz7LayVgqT40OKgXQkPjyAba4jM5N51mfSbjxbRl2/KoxZ7D/12U6lfp56blSlhgsB0RWDMGhwAVtx0mtq7W6kwcT6FsD8MGuQ1rAqGGH1vEthfBwJTgVHKW52jpviwBGPwiPbj2Q8BUtHqbBT1SZU8ooZZy0ysPFMiMsLZcKNN6+hwdoKeadurTrkFtVWeYbPKImWC0hGVO55jZ93PU9ZVH6X0de+njupiqtr5HHfGO3SS875t4vV6tHRUnla7gVZnw9pjdzbamJnlKYFBToKA6fBm0nTSSV4840LjnTOXOgd8cXR8W8VQ0mBNcKaNm7ua8POUkJgUzyB13HbuuGm4MbC5o4cSudONY00AZp+YyZbSN9k/ZjF9eMHH6X2sPYSv2Bb2aTleP7TDNTt/uLDjDePPJyU8TRXjr2syXnMoPwfh4TbWNgQq80+7Fyfaspp242lU3dCpNDgRoRYVrglMC/vTGM1MICcONr+FsEbDFhJEDmXiCqAe1nLA90YLfHQGLLI6iGamO4kQfH6+88BSV7jeAflBHMrQEs7kJiIijK+hj/PrJ3un+32HGfsX7/yYTeML2D/pc+o0DLR+uvu7Xu/5rAEH4+L2Vl2Mz2241fkuNbQOXpfnCZERkWS1Wsjh6KEeNnU5HO5pq3hKOEyrWWwexFIHBWyW23S0wTMbORYEBAE/IDAugoPy32bTEtTpC7gz2Vu1ixamLKWunk4ydgAWJj8QR6+7T0NPn/M4JHD0dm1L4EAnzaNyozh63RsUY5xnQ2uMM+4PWW9mQAsSaBkclTUc2UJHWJORdeWH2ZcljyKzCtXvQq4Fo01NxmvX+/BfUT0La548JcjmHCF3t9Z5Rqljrb3yjNT17/fwURiCF58YZHHe09LX/pc1PkPL6bG7d6y6rG72expOYJrKSwkn+DAcKDNX7x+uO0DfevurdH3ujTSHfcWwNhJ+0CKiIxyvdIxy6QKmGUOKtAY7TW2WAcI5JME4A0AEnKK3QzO0d7q/P54p4IAMGcxrMIU204QzGYHPDaTPVeZgOqXCMxyG8Sw4yKHTjcrJ2RDl2u3sduanA3QNnNnrIx3rNIPDuXsD+/UZ5cGljyifp9eKX3bTiOFuZLCDcUN3t/LBMZ5jto/0ME/1MJHztWq2xokNw3zG0Ot8aV8N4RfD5PwH7y+gFXkx9MqBcDrjQTTNrkHCBAFBYHQIjJ/g8GwPEJxVGZeyir5TmaI2cZh+0XE59Z3OTivO01GSHT4hDZ31ajuafw080wQ+ODGs4m93DI7AYmyxXrPp6uqkpoHOucdjFo/xJDi8GiUkynmdXY2VxmDloHvkt19Q5qu4Oasol51qw9PylcNsV1O1W1p9EMD+FhdKMGsJa+pEpM+mtvJBzUhYco66hM4Gp//IkOsxOHwb43R6i8Esh/jQuKHamK7GKrKEx5K9tpSaz7xrzMb3vmkH6X7K2TombywZ7DPiS861nKX/9+7PmFoEsEN8gTJdzGd/sRhrLDV1NZqeGsgaj/EK/M8gcFgG2YfAwdlTatqdz9PCpCX0j2N/9oz2emxGljwTd/Kzrrgt/7Pb3bUdnml9HZdUOokoHIY9JZQ1N7hdesYV3nmYtIxiZVIAPx9je1Ba1UZFebHU0u6gl7efMyb3ut/R0c55sDMul2fvdGKqE6fzAo1fWPVV1fa8zkTmaP0h5bsH3zyQ2uvZv+rKnGvpO9u/TtUDmKfBTM3XdXqE5qlkdsqG1LW6D9L0NehtS2sLdTts7PcG7Y07SdNpsG1iLdfRijbCrKzMeKsQHCM4si8I+AkB99ZoDJmiwahtr+ZRcgGt51WEIZjiapTyllJ1uCR1BTcqgx38qoy1Kvxs8xlj8hHtw28Bsix9lSt9bGgcpQ9M93UFGnag3u7i1Urx6/XQQhiSqTVoXMfcCMbkr1CHraVHXMFBIQZfAG7YMcuns97ZWIen5bnS6Z1ensUDiZq5QAed923jyV2qDDgea7El5SjiofyF4B8zCsFaPejRQJDgi6MladHVete1bT7tJDVpPJ3cUwJZuwOH47HKsQpnpzszyXAPPDLDEgJaMJo+Vn9Y+bogLDUyXUe5tm3dTpNeXswsV9hYd5o6neQpP26uK4t5PFvQU0qailUQzK1xoQlu0SBhejaXMQKECbO44NM2nIAIjIfcIP+W9m5+V/oIRAW+Mlo2LE93mr46BzWmTW3dKmzDcqfpDWnv2JCjT3Ft3z5Yo/bhpBxiGdoEwdnZTFAXT9MU0qEN2le1h762+Qv0zPGnXZrirp4u+tuRP/IszS/zLMy97Jw9OOiA9gZS0zUy8jc33an1PFPjOz2InN3eQZ1eVkVWhQ78q2ZzFUSvhzMQLBtBQBDwEwLB/sgH/jY3z75DTZtt6WqispYSt2zxHSmYBjB6/sKqr9Gms69TWmQGXZHj7BhfPfOSKz0aekynhaTzTBUI1jPB2jgQ5H2q8Ti9yXlck/seumrG9Sq82d5IV+feoPbH+w9Trgvv/QGTlm28zs3lakXhTtZEdFQPErGiT/2KenlGVcOx7eRoa6RoXgsHM4B6ebo6vmXlKS1MjqDdyb3xc9RUuJdgisF3m3TaEJ5Onnfbl9RpyAeStPQanp7tJETH/vAYYdr2aKRy698ooXCdms2Uz5qcrqYqSlxwpcqilmdImTkg+8ofpqh6Ns1hrZyi+58gODmHJeeqdYA8z6vgNXmSV7yXIjMLaf7HfqbOY1UXr98zm6LzFlP5W3+kirf/4XnaiI7RMZSyFgd+DOlxoVTOfiOe8uXV/63WWnqX10+C4/msuNkEwoHnE59j8JRTTSdUEJ7JWNYslrG/GM4zzu7zPMfbMT6jsIxnEt4+9x5K4TWfMMsHAwBPaXO00EunnlWzf75yyTfp32de4DJbKC0qky7LWk+PbHxgyLTnYh4MIK8vrXlcddqdTHjerdylllLwzN9fx6/srKDrVmfQf39sMb3KjsDQ0qxfmqqy//tGJr0D8teNJfTxm2bTg7fNpbk5MYq8XLpwqHbvIJumjpe20OysKHrq8XW06Z0q5W+Tyc7Fi2bFUTnf20/9YOS+bPjm3G8P/FJfxpBtJc+cevLgr9zCyzqcRGVDirMejV0OKmOz6a56c23y9YuS1fnP7K50y2c8B9qcZ+Hp+SKCgCDgfwT8QnCw3g0IDmSbh/ZGXzIaoHt5KXysj3PP/PtUMGa6PLH3x9Ta3ayTUR6Tmdvm3u06xg7C8INAOwSCA7PUT3Z9hx5c9gUXycE6Iqd4cS+dVp0whn9NJ3ZTzKylipDgdPikHGWCYRQ42sLvJm3Nbc5gjNxqSujsa/83ZFo2EqBDx4wro9OtldfY0QQnmOMi0ucYi+Cp19Hqh8AAtdZJt1u86QFfhxYszHf8z1+nWbf/J8XkOUkj4uoPbaaSF3+uk7m2egFCV4DJzpnnf6LWs0Hd4VwNwYKFcR6zokCeDv7ifsq/4zGFY0ZSjkqLf/AdaufVld3Ei1nMLY3h4A9bKug/b86j21ak0U9e9siL05WxeQrmCaxHA4HZ6Bg7GL9w8u9qXwUa/sGc9dSh3zHZeC9B04hfPU/HHgvB2cXr16zMuEQRKud0716V993zPuw0sxjKfZEJTrujg25hR2hMddYCh/yevqEmjj8e/A2/H+9XgwX4nECUFlVPjdYZjHNreIzU1PAY/tjk6vlJdO2qDFfOL719jv7xVonr+F9by3h9nAiCdkdrcSp48b7kuDDW7LiSqZ0v/nw3TwcvIqyxc9WKQY1aL0/HPnjKqQFzP2PkR3V83+BkbmxXPM+uYC3LP8vO0fXpaXR9mrP8N6urTQnOzKRw9bHNg2Wtw5qoPMvxdVw/YO6alRpBr/JKySKCgCDgXwQC8gsWDfaI/s3bNDfMbEgKS1Gzr8bie+OZKfwrksNTycGjuHq7/xoJrGkTwQvfdbMvjXenWyvZEnjKK5tc4OPiud6M57VezGN8zDOIv20FLZQ/rhPky8qzquxVxWqquK+6AZ8wEBye0dXFfj+O9iZfyUcc96075lBqTCg98NuD6rMNnifCjJMYlsQziXiFXl5cUq8q7JnufB1DG2ljR+LK9nI19dtXOXiO42wJvEpyNNV11E3ID37CnATNDGZTHS1pYodb86YDs6rm8qc0yms6eFaW3Ve11XTx/MxoiomwqNWRz7J/zkSTL7wnl2c7RdIX/3yUMAvKX5IQEULfZ0djkD9866q0voO++azT9O6vMiQfQWA6I3DBCc50Blvq7l8EYKJazV9k3sij39phnD/9W7LkNp0QeC9/f6qNZ5u9cWTobMDx4pDFi1ZeyR/xjGcNWXN7D/3qzUGT33jzlvMFgemOgBCc6f4ESP0FAUFAEBAEBIEpiIB4t03BmypVEgQEAUFAEBAEpjsCQnCm+xMg9RcEBAFBQBAQBKYgAkJwpuBNlSoJAoKAICAICALTHQEhONP9CZD6CwKCgCAgCAgCUxABIThT8KZKlQQBQUAQEAQEgemOwJgJTlx8PIWGmi+pPt1BlfoLAoKAICAICAKCwMVFYMwE5+JetpQuCAgCgoAgIAgIAoKAdwSE4HjHRmIEAUFAEBAEBAFBYJIiIATHx43DZyVSwtPI+GVqH8kl6gIggE8a4J6EWZxfd74ARUoRgoAgIAgIApMQgQlNcMItkVSUtIji+Rs9I5GokBhanLKclqauJOyPV26ZfSd9de23KSIkarxZyfl+QsASFEKPXfIN+uTih/yUo2QjCAgCgoAgMBURCIpPTP36WCpmCwsjh8NBPT1Dv3g8lvzMzsmLy6cHljysPqR5nL8E7U0iQ6LpkZWP0fvm3KkIzqKUZVTSfIYq28q9nTJsOPK8b+H96gvUb5191Wf6wugYmhsdRWUdHWT++UGfp1/UyCsKEujT18ygaxYkUVldp9s3nVKirfTft8+hZfzhxM3HGigu3ELfv6eAls6Mpk1HG9yu+9t3zqGbl6XQy/tqVLglKJB++qFCunROHG085PsbPreuSKX7r8qh9q4eOlvn++OM+GBmuDWS7/MyOlizn5q7/PPhTrfKyIEgIAgIAoLApEdgQmtwunu7yN7TQe0O318YvnLGNZQRmUXvVO6i7+94nL6x9ct0pO7guG7ONXnvUef/+/Rzw+bzuTlz6NP5s6m/f7LRG6LkGCvFMnHB75616W51jQx1hmfEh6pwS3AgRViDKYmJj6ckRVlVnA5nfkORocGUyB8RHE6So0PVuVE2y3BJVfzrZ15S25tm3z6i9JJIEBAEBAFBYPohEDyRq3y68SQ9/Ponh73E1Ig0lea5k3+n2o7qYdMPl8BmCad1mVdQg72eTjQc85k8NCiI4kJCqLR98mlvPCuWFhtKM5PD6Ux1u2fUhDpu7Gygw3UHqDChiNIi0qliHJq6CVUxuRhBQBAQBAQBvyEwIQnO5dlXU25MnquSe6p20r7qPa5j7CTakui2gversFmxc9T2rsIPUU+fQ+2/cPKfVNZSovZH+y8negYFBgTR4dr9Xk/98IxcSrfZKNLihDAx1Er/WTBPpYce53tHD1PPJNLotLF5CNqZe9ak0ePPnFT1CAjwWv2LHnGkxklwZsfPE4Jz0e+GXIAgIAgIAhMPgQlJcJLCkygzKptCeRZTpDWaau01QwhOUGAwxdriFaKWIKdpIyY0luCjAbHxuWOVtIhMdWpVe5XXLHLCwymGNTepNmc59t5eSgx17rf3sG/SKMgNZmmtTF/rtSwdsbl0I82Km02pERk6yHRb0lxMZ5tPm8Z5CyyusVN6rJVmJoVTelwolTd0eks6IcKrOirVdWREOu/VhLgouQhBQBAQBASBCYPAhCQ4fznyBwXQ3IR59ODSz5uCVdVeQd/c+piK+/SyR2lOfAH9cMe32F+n1TT9aAJ1p1nV7t1J+euHDqgsPz+3gFYnJNDjhw7R2XbfvkLersEWHE53FHzAW7QrfHPZRlrLprMlqStcYWY7G0v+PWqCg3z+trOSPr4+m96/Jp2+98LoCJLZdZzPsOq2AYITlXU+i5G8BQFBQBAQBCYpAn4jOKEhVgpic013d7eaXeUNDytrPYItIeTgdN2Obm/Jzkt4cHAwhXDZcAZG2b2sdTGTlAGfnoYO37N/cO6siAiVRVnH8H4rVi47mOvvWfeW7mb60c5vmV2KWxiu+/kTf6dNrMnxJfAdMoqF70uIxarqi3r39fUZo13720820t1MbgrSIylhBM7BrhMvwg78cCAJYYkXoXQpUhAQBAQBQWCiI+AXghNqDaXo6EhV1/aAQK8Ex8okKCbGuaZMR2DgBSc4IVx+ZESYus6W1nay2ztM708Td57Z7IcTYY2i6g7vZioL1wFmqYoOO/WNwCRlZXOWjX11+sNt1NTY7Kp/H5vVTjUeN70Wz0CY6/AbjVhDQimcy4S0tLSRvdP7VOx/7qqiD16aQXetTqdX9teOppgLmlYv9NfS1XJBy5XCBAFBQBAQBCYHAn4hOO5V9T1VGrFO31Xf6dzz9NfRyMo811pKC5KX8Iq5qXS68YTXwnPCndqbE20j7GQHiu/30KCEsA/OJZmXMy6+vXrfYNPTrLg57J+U4/WaEHGm6SQVN51ypXGvtfuRK9HAzptH6uj2Vam0OCeaoNExiqPHqfkJ9OF97Dt3Y27j20+JSFEZVLSWjS8jOVsQEAQEAUFgSiLgF4LT2dVJvY29FBwUTA52sPUmXd1d1NjYSMHBlvO6QKDX8ru6qI/NUjD1OHwsUFjeek5loU1V3vKbFeHUWp1oGZnfTydrTlCug81ExgUSw9gH59Y5d3krxhX+xtl/sw/O5SPywTESnC6+P329PWyi6nNpjVyZeuyAoLywt5puW5lG71vqJBE6SVePk74EmvAwX6RHn+/PbTJ/rgECMioiCAgCgoAgIAh4IuAXgoNMsaoxfsOJw4EO/vytfuyrfPjcePO7MZ53lldBhsw0TFU3xuv9zAGzTy0TiJFIN/Axwailu4m+u/1xnpruOxcQs38e/wu9cfYVnwnSyWH1AABAAElEQVQb7e6aF5ApI6HyeTJH/vtArVqVOI1nUxkFKw3DEhdqCSIsytdid95vzLqCUqfTYe7TZMzDX/v63hQ3TWxnaH/VV/IRBAQBQUAQGB0CfiM4oyvWe+q40ARlHkKKdF7EDZIbm09YGweCtW1G6q+iThjDP+NCclhvx5vPS0mb04fnP3LzaE5ULa+63EvvNDZQ8ShnU/X194141lNDZz3hdz6lt69fkZwbFiUPKWb7iUZaPTuWvnf3HNp6nLVxzMou4WPIK0yMPCWYlzR+7KZZnsE8nb+fvv3coBkNCa6cz/c+a+h3v946Ws9lDX4aAh9BXZm+Ri3EeKz+8JC8JUAQEAQEAUFAEJhwBCePycxtc+92uzMIww/y9rnNXglOH5nPDnLLbIQHzx3/u1opd8PM6+mpw781PeuNmipaxVPE58VE0y2ZmSpNbXfnqAmOaeYXKNBpdBpaGMxU1/L3qYI81Eq/21JGEbYgKmIicuW8wY+ggvg8u3vQIRuaHi15KeF613QLzRQkmrVC+HlKCX+fykhw1mRcphZifPbEXz2TyrEgIAgIAoKAIKAQCMgvWGToikaOSlx8PHXw5wngVzJV5bPLv8Tao1n0yMYHqLNn6tZzLPfPxmYqmKZY2cOLAtqpa8ABeSx5jeYcOGJ/5/Kf8kdN++lLbz6ktqM5X9IKAoKAICAITA8EJpwGZyLB/ufDT1JR0iIKDQoVguNxY+zsb3PqInyzKtQSRhtLXqGTPK0eJEdEEBAEBAFBQBAwQ0A0OGaoSJggIAgIAoKAICAITGoEAif11cvFCwKCgCAgCAgCgoAgYIKAEBwTUCRIEBAEBAFBQBAQBCY3AkJwJvf9k6sXBAQBQUAQEAQEARMEhOCYgCJBgoAgIAgIAoKAIDC5ERCCM7nvn1y9ICAICAKCgCAgCJggMKEIDtbWCQ11fvXa5FolSBAQBAQBQUAQEAQEgREhMKEIzoiuWBIJAoKAICAICAKCgCAwDAJCcIYBSKIFAUFAEBAEBAFBYPIhIARn8t0zuWJBQBAQBAQBQUAQGAYBITjDACTRgoAgIAgIAoKAIDD5EBCCM857tjRlBc1NmDfOXOR0QUAQEAQEAUFAEPAnAkJwxonmvQvvp9vnfmCcucjpgoAgIAgIAoKAIOBPBITg+BNNyUsQEAQEAUFAEBAEJgQCwRPiKi7ARWRFzaAbZt1EW8repL7+Prok4zKaGZNHjV2N9Ozxv9Kx+sPqKgIDAmnDjOuoKGkRJdgSqaajhraUvkG7Kt92XeUSNkutSF/tOk4MS6T7l3zWdfziqefpbPNpdXzNzPdQVlQO/e/+J6i3v1eFBQda6L4Fn6TSlhJ6+fTzrvOwc+ucuynaGkNPHXmSrp55vbqO0KBQOlJ7kJ4++gfq6XPQtbk3UnZ0Dv3j6J+5Tu+jWXGzqb2nnV45/S/aU7nDLT8cLFi4hJYsXa7CN2/aSKdOnhiSRgIEAUFAEBAEBIGphMC0ITgxtlial7iQQoKslB83l0lOL7V0NSvysSp9rSI4QQFB9Ojqr1NGZJa6x7Xt1ZQbO0v9UiLT6PkTf1fhFiYosbZ4t+fAeGwJHIS1MHGBOj/4kIV6e5wEJygwiBYkL6Ho0NghBGc+X2NieDJFWaOZuMyhVr7G4CALrc5cR8+ffIZaupuoIGG+yhPxtuAwau9upfSITLqXSVMNX3NpS7HbtWVmZlJaeroKS0hIFILjho4cCAKCgCAgCExFBAZ74qlYO5M6gdy8XvwS/fPEX6m/v5/CLBFMaDJVyitnXKvIzcmGY/Trd39ObY4Wircl0BdXfZ2gidletplq7TW0o2Kr+uGkJ655kmo7aumbWx8zKW3sQWkR6fT4li9RVXuFyqQwsYi6eu1uGYLMPLH3x9Ta3Uy3zLmL1udcQ2sy1lHpEXeC43aSHAgCgoAgIAgIAtMAAb/54IRarRQeHk4Wi8UnbNYQpIugkGHShVhCBtKF+MwPkZbgYAoLCyebNZQCA31XqcFeT88c/4siNzi3w9FGJxqOYpfWZa1X2zfPvkYRIRGUEp5GlsAQerd6jwqHNuZCyVOHf+8iNyjzcO0BJjhdbsVvOvu6IjcI3F3hNE0lsLnMU86WlNDZkmL1q6mp9oyWY0FAEBAEBAFBYMoh4BcNDohFVHSkAqc9IIAcDocpUCBB0dFRKq4jMIC6vaSzhoRQTEy0SmcPCuR03ab56cAQLj8i3PkNq5aWNrJ3ums6dDpsta+NMQz7AXzdMaFxKvhjix70jFbHyREppuHnI/B4w5Fhsz1WP5imuqNSpbdZwoacd/DgPsJPRBAQBAQBQUAQmC4I+IXg9I8QLbYIDYpxfzDUucdxfZw4kEmH2zme6VzHvjJzJVI7TZ0N7gEDR0EBTigc7MT7y3d+YpqmoaPONHy0gYEUMOwp0CwNJ/bejuGSSLwgIAgIAoKAIDAtEfALwens6qTexl52hg0mR4+59gbodnV3UUNjEwWzSamnp8cr4F2ssWnkdBY2U/X4yE9n0MXl9/X2Um9v37Dann4yJ0OYnWTv6VBOu9DywD9npOKLsMCZGRLBvj5dPZ1qPzt6htpeqH8REVGUnpGhiqtlE1VDQ/2FKlrKEQQEAUFAEBAELgoCvh1WRnFJMEvBNOSLuCA7lc5u92rG0kUiH7u9Y9h0SN/Ds5PsnZ3Dkhudt7ctnIshq9MvHZIk3BKpzFieESAtmPWEmVVm0tTZqILh3KxlHk9Bv5BStHAh3XbH3eq3fOXg9PYLeQ1SliAgCAgCgoAgcCER8IsG50Je8Pks669H/sjrziym98+7l9eZmUnFTacIa9DM4U8xzE9aSI+99TA1dLqbqYqbz9Cc+AL60prHaV/1XupkwvNu5S412wrXerTuEC1LW8WrHd9DKRFplMlr4iD9hRT4F4kIAoKAICAICALTCQG/aXAmPGgjMDk1dNar6d7V7VV0SeZl9IH5/0G3FdyjyE0JE5lOj2naqPMfD/6G9jOxSQpLVlPJb8q/jdKinNPOEb+rcruapWUNDlULCObzonxPHfodotgM1qe2/vxnlmdC/ODMqorycn8WJ3kJAoKAICAICAITEoGA/IJFI3c2MVQhLj6eOto7qNPHjCVD8hHtno88R1SwSSKbJVytZNzb10P19tohU7RNTvEZFBeawP49NqpsL1crKftM7OfIhz73KEVERvL9aqcf/eDbfs5dshMEBAFBQBAQBCYeAmKi8nJP7I52KuOfv8TTtOWvfIfLxxrCU+iZ3EBeefnF4ZJLvCAgCAgCgoAgMCUQEIIzJW6j90pYeE2hbVs2KQfsw4cPeE8oMYKAICAICAKCwBRCQAjOFLqZZlVpa2uhN994zSxKwgQBQUAQEAQEgSmLwPRxMp6yt1AqJggIAoKAICAICAKeCAjB8UREjgUBQUAQEAQEAUFg0iMgBGfS30KpgCAgCAgCgoAgIAh4IiAExxMRORYEBAFBQBAQBASBSY+AEJxJfwulAoKAICAICAKCgCDgiYAQHE9E5FgQEAQEAUFAEBAEJj0CQnAm/S2UCggCgoAgIAgIAoKAJwJCcDwRkWNBQBAQBAQBQUAQmPQICMGZ9LdQKiAICAKCgCAgCAgCnggIwfFERI4FAUFAEBAEBAFBYNIjIARn0t9CqYAgIAgIAoKAICAIeCIgBMcTETkWBAQBQUAQEAQEgUmPgBCcSX8LpQKCgCAgCAgCgoAg4ImAEBxPRORYEBAEBAFBQBAQBCY9AkJwJv0tlAoIAoKAICAICAKCgCcCQnA8EZFjQUAQEAQEAUFAEJj0CAjBmfS3UCogCAgCgoAgIAgIAp4ICMHxRESOBQFBQBAQBAQBQWDSIyAEZ9LfQqmAICAICAKCgCAgCHgiIATHExE5FgQEAUFAEBAEBIFJj4AQnEl/C6UCgoAgIAgIAoKAIOCJgBAcT0TkWBAQBAQBQUAQEAQmPQJCcCb9LZQKCAKCgCAgCAgCgoAnAkJwPBGRY0FAEBAEBAFBQBCY9AgIwZn0t1AqIAgIAoKAICAICAKeCAjB8UREjgUBQUAQEAQEAUFg0iMgBGfS30KpgCAgCAgCgoAgIAh4IiAExxMRORYEBAFBQBAQBASBSY+AEJxJfwulAoKAICAICAKCgCDgiUCwZ8DFPG6or7+YxUvZgoAgIAgIAoKAIDBFEBANzhS5kVINQUAQEAQEAUFAEBhEQAjOIBayJwgIAoKAICAICAJTBAEhOFPkRl6sakSGRFNKeNrFKn7SlxtAAQq/MEvEpK+LVEAQEAQEgYmEwITywQEwMfnLKSQynmre+TdRf/9Ewmr81xIQcN7qFGSxUcKCy6mjppRaSw+N/1pHmMMXVn6FQoND6QtvPEj9/DdRZG5UNGWGhbkup9Jup4PNTa5jf+zEWEKoMCaaApmkHGpqokZH96iztQSF0GOXfIOKm87QD3d+Y9TnywmCgCAgCAgC5ghMOIKTteE+Co1NpboDb1Cfo8v8qscYmrzkOnLYm6nhyDbTHJIWXUMZV3zANK6z/hwd+d2jpnHDBUbPXEQ51z9A1qhElbSzoZxO/fOH1FF1erhTRxxviYih7Gs+Qe0VJ+jw/z0y4vPGk7AoeTHFhyXSM8efHpbcrElMpPaeHtrX2DieIkd87vqUZFqfnOJK/25Do98ITjQTm6/Nm08zIsJd+f/g2FHaVlvrOsbOvOgYirOG0BYO7/dC1rt7u2hT2Rt0edYGyoqaQaUtxW55yIEgIAgIAoLA2BCYViaq7Gs/oUiAN6gCLRYKCAxSv2BbJOEXaLGq48Bgq7fTfIZHzVhIs+/6Olmjk6izsZK6WmopND6DCu/9AYUlz/R57kSPvDn/Durr76UtZW/6vFRoOh6ZM5fuzMr2mc6fkb88eZLufHsbfWzXLn9mq/K6MT1DkRsQmkf37aNP791L7zQ0DCnnAzkz6LOz51AwNHc+5PUzL6nYm2bf7iOVRAkCgoAgIAiMBoEJp8EZzcX7O23VrhcIP8jCh35HIRFxdOS3j1JH9dg1LVnrP0LEHVzFtr/RuTf/oPLOvelhip+3jjIu/wCdePq/VNhk+zcnvpCSw1NoK5Obrp5On5efG+n0Lzne2uoznT8je1hj0tPbSw4mrP4Wbfr6U0kJVXbax519Y2cDHa47QIUJRZQWkU4VbeXjzlMyEAQEAUFguiMwYQlOVE4RZay7h6xxKdTdVE1lTA6aTu52u18BQcGUWLSe4grWUHhaPvX39VIXa0nKNz9NTaf2qLRJS66lxIUbXOdZbFFUeN+PXMdlG39HLSUHXMcj3Sn48Heps6GCGo5tp4y1d5E1Po0cLfV05l//Q23njqpsgkMjKSxlhtqv2PIXV9ZlG59UBCcmdzFrhwL5uvtccbk3PcI+SLF08u/fpawNH6FoThMYHMJ+NUfo1DPfc5nt4gsupfS1t5MlOpE668upavuzrjyMO9BIZTLJipm1lCwRseRoraeavS+7iJwxbcrKmyi+8FI689yPGNN1vL+GLOwP1VVfQac5zF5X5kpemFik9g/XHXSFGXeCuV5fmFPA3ilE6QO+MKvi4ykt1KaSnbN30JPFZ4yn+NyfP38hzV+wkLZu2USlZ/1rxglkAnpzeiYti4+j5NBQqrR30itVFbSppsZ1TSl83ffNzFXH8LuBfDxvFjkG7t2fS8/SmbZWyggLpw+x5gaSM2DC+uLcQtZ09auwHfV1tLG6Su0b/x2pcRKc2fHzfBKcD33koxTEz31LSwv9/a9/MmYh+4KAICAICAIGBCYswcm//THq6+kmR0cz2ZJyKP+Or9DJv32LGo/vcF1+1pX3UvKyG5zEhkkQCA+ITtLia10EByYmdOxGMR4jfiwSkTGX8EuYfwX7VzgJSmhCBs394Ldo7/fvVEQEx5DutgZVF11Od2udilfXFh5L3Uw6tETNXEiWsCgq4HxCE7Oot9uuTGQxs5ZxeDR1NdcwYbuKZtzwKXUKjm2cLvd9Q/1ugMeCB35FIVEJKq2jo0WZx7Ku+qjCtJjJmFEiuT7hqXmUe+PDFJaaq665v7dH7UfnLnIjOOmRmerUmvahnTUiooItlMRkAZJqc27tvX2UOBBWzk6/oxEbk6SZuXnq19HRQXt376Sd29+mzq7R5eNZJsxH31u42OVPA3IzNzpK/TJs4fSnATKFdPraQ5i8QeKtVuodIC5hQU5NEWJ0uiA+B5LA6Zz0higi2PyVq+qoVGkzBnBVByb/MgfMfElJySaxEiQICAKCgCCgETBvbXXsRdx2NlXRwV8+QOhgdYeefc3H3QhO8tLr1aykfT/5sCJCuFxLWAxZYwcb/6odzxJ+kOWPPc9Oxi2076cfUcf++NdwdBudeeGnKqv5n/i58rWJL1xHtftedTkV99nbhhTVyw7UIDggH0aCoxOGxCTTod981uWIDI1ND/LhThOaHciJpx9XRA4zqIoe/LUiRvp8bDOv+LDKv7O2lI796StMtBrJxqSr8L4fK61W1c7nyV571niK2ge5OfP8T9nRe6M6BunxFJhSILUd1Z5R6rihu4seesepRfvjqtUUygTgMwPHpicME7hr59tUV1dDq1avpZwZM2ntusvpkksvY21OCW3buonOnD41TA7m0Tey5gbOwoebmul7x45Qi8NBSdZQ+v6iRXRrVqbStlSxGQoaJ12f/5pXREWxMfTlA/uoldMbpbSj3ZXuuwsWUX5UJD2y7x2XpseY1rhf3TZAcKKyjMGyLwgIAoKAIDBGBPxGcGw2GwXyyLbH0UNd3Ll5Exur+gODhk937s0/KnKDfEAWsjbcq6aPB1nDqberXXX0MElBSxHMGg9oeiCOjib1UwcX4B/8avRsr8bjOyll+XuYYDln71jY1ATpdQz1Ueln7RQkONxp7lAHhn+lr/7GRW4QXH9ks4q1JWQSMAAp0ma4XoedKtnHBzPQjJK4cL06rGQiExweR8HsUwRpKd6vpuPHzV1D5SYEB6ZATW6Qvr1yKHmIssYo35uevh4k8SoR7LgdzlqLU178b1JS0ig1zUmWvGXS2NhAJcWnFYkBkbFwnouXLKOly1ZQds4M9etkzcu2rW/R9re3esvGNPzatFQV/q/KcopkrRM0T5DtdXV0dWoqLY6No5c47nwL/HAgCTwrzZeg/kFMFtu84OnrXIkTBAQBQWA6IeAXgmMNsVLUgCNpB3c03ghOCM+miYpyOpzaO7u8psMNwHRno8APx5Y8g00s6c44Ng1AewJnXWhOQHDaSo/Suc1Pkb2mxHjqedsHscHMKC0dVU6fkuBQ5/RhpXHhSPjQeErAgEmjt7PDM0odgyyZCeoP6TT4w+C4reIkNi6Bbw+IEESbs1yRAzswbZlJ00mn5sUsTofZezrIFhzGCqUAr1OgkTYvwnm/j7e26FPdtstWrKQFbCLyJVUVFfSbXz/hSuJgrcnOHW+r36xZs+m2O99PoWwGW75y9agIDq4dZibIo3MLXPkbdzLCnD5DxrDzsa8X+mvpMsdJl/nUH3+nd2UrCAgCgoAg4AMBvxActhO5ihhwSXAdu+8MpjOc4p5k4EhrRXSkdsQNCnH6cyD89LM/ZAfhg5S6+n1q7ZzYOSsJv4qtPGPprT/oU8/bFj5CvqSbp4RDAq2DC87p9HrauU6jw/UWmigzCbQ469/PM4SM4olXQJBTEwEt1+lnf2BM6tq3s/OwmcCvZzipZt+bnOiZFGuNp4bOOq/J8yKiVNxJLxqHPTt3UPm5c17PR0RdnRNHncjKz8DSFSuUFiea15qBdLS30zZ2QB6N6Onb3ewo/O0jh01PrWEifiEkJcKp9atoLbsQxUkZgoAgIAhMeQT8QnC6urupublVzQjq7fFusujmkXdzcwubsoKol31rfImVF/tztA928tqUgxlDRoH5Cj/4oWAWUPq6uyh5+Q0+CE6A8fTzut/V4NTuYGVm+M7olZmDQsJYu+IkPWb+N74uCjO3IJYBc5NOG8qzzYwCwgMCBu1RI8/00gTRmMbr/oDTtNd4jihrPqsITjJ3zL4ITn5kpMrmZOtQPyREVPJsJfyGE2hb5rCWZcWqNZSR4dQ8YfG8UydP0NbNm+jcubOmWTgG6hIWHDQkHjOgsPggTGj7eSVib4vxDTlxlAEgUu6eOkMzSB743MW51tKhkYaQnBm5ZIXTMl/7iRPHDDGyKwgIAoKAIGBEAJM+/CKdXZ1kZ0fM7mGWq+/s6qIOTgdS5EuSl17nisYieXDGhcOxkRCA1GiBH0rF239TM6qCQmzKN0fH6S3Oxwylsc6c0vmMdItF/XC9mKoNJ2EtyUuvVbsdladdfkY6britcgrmjj0sOcdlgsI5SYuuHnKqNtWlrrx5SFwIzyyDGWusUtzk9MuZEZPnM4uscCeRq+PnYzyygs1Pt9x2lyI3rWzueuP1V+j73/4GPf3U772SG5QHAlPb2Ul5TLRAkjzlcLPTd2u9yaykSPb1MTvHMw9vx80DDsizBkiet3QInzmAY3GT7zWX7rr7g3TbHXfT7Xfd4ys7iRMEBAFBYNoj4BcNzvlAEb41mH7dWXeOUlY5O+jqPS+6igq2RtDizz9FrWcPUnPxPjWiTeBzQCZazh4wJQ743AKmnC/41K94TZ097Kzcwdqf110zifAdrLQ1t6oyQnj6NiTvps9ST3eHWvPmzHM/UWGj+QfnX3xCYeaND1HUzAXsYG1RfkPI49yWP48mK5UWmpn6I1vUejVF9z9BNXteYrKTS1gx2VNOP/sjKrr/l/z5iQ/xlPYCai07RIGsPYrhKd+YTn/gF59Ua+h4njeS4z1VO+iOgg/wJwaupJdPP+dV+1HCpiOsLfPVwvl0gL8F1dvXT69WVw6ZfTRcmR3tHXTs6FF6e8tbVDFKp99t7DB8U0YG/XrZcsI+NDd/LClWRf7m9GlazuvzPJCfT7N4xtPxllay8TO0IDZWrYuDlZBrx0jOjrY0qzwe5lWcsepxfVc3nWBy5vlNLCt/y2tl+hpqsNfTsXpzU9lw+Ei8ICAICAKCgDsCE5bgNBzewmvMXO662qYTu6hs429dx/At6bG3UmT2fPVDBDQ0raWH6Qx/58lMTv79OzTzvZ+hiPQ5rsX/7DVnXQQnPHWWijOei7VoINbYNGOwz329Lg4SVTMBCeap6+lr76DEBVc6z2MNTMlLTxDqNBY58/xP1IyyyKxCNsm9X2XRcGQrL853iVt2MGfhu1T5d36FZ00tUz+dAM7RvR7T143XrdN522L21L9OPUu3zLmTFiYto3erzevyx5ISSreFqY9S6gXyXjdZ6M5bOTr8wIF3Cb+xyDPnyiiLF+BbwFO735vudNLWBAfk5TP8qQU4GV+Vkqp+uowTTHY6fJhS9eJ9Or3n9oWKcooJCaENKSl0bZrz+fl3ZcUQgrMm4zIKDAiiZ0/81TMLt2PMHgsaMLVhLSARQUAQEAQEAe8IBOQXLDJ4/npP6BkTx6NejKo7/bBUvWfe+hizgMLTZvGsqZPOqeE6wrDF4ndWnlnUx1PTx/NJBUOW52UX5iBb0gxlQtOmo/EWpOturyrmqei+F7wL5hWcbYmZ7JfjUFqxXtZKjVcsgRb6wZW/oKq2Cvr2218db3YX/Xz44iTzMgY9rOGpYeLT6eHIfT4uMIDXev7O5T9ln/t++tKbD6mtt3IKCubR+267U0U//89/jJnwectfwgUBQUAQmEoITFgNDkDGejctbH7yJZgertfA8ZXuYsfBKdSfXw9HfUZT9x5e4BDaLX+Ko89Bv9j7Y0qPzOJumqeL899kFvjr4HMLF1JCLWG0seQVOtl4fFj85vAnHyDtbW1Cbi7kTZKyBAFBYFIiMKE1OJMSUbloQeA8IVBUtIjiExLoxPFjVF4u08nPE8ySrSAgCEwRBCa0BmeKYCzVEAT8gsBYfZD8UrhkIggIAoLAJENg7POEJ1lF5XIFAUFAEBAEBAFBYPogIARn+txrqakgIAgIAoKAIDBtEBCCM21utVRUEBAEBAFBQBCYPggIwZk+91pqKggIAoKAICAITBsEhOBMm1stFRUEBAFBQBAQBKYPAkJwps+9lpoKAoKAICAICALTBgEhONPmVktFBQFBQBAQBASB6YOAEJzpc68nTU0jQ6IpJXzk3/7yVjHkkxyW4i1awgUBQUAQEASmMAJThuBE5y7hj02u8d+tCghQH/uMzJrnvzynaE5BFhslL72O/IXVF1Z+hR5e8WX1+YfxQLY263L62qXfpRkxuePJRs4VBAQBQUAQmIQITJmVjGe850EKiYijXUfe65fbEBAQSDNv/Cx1NdfQ/v/5D695Ji+5jhz2Zmo4ss00zcJP/x8FWqyuuJ72Zqo/uo3q9r9OXU3VrvCx7MTkLydrdBLV7H2JP+LZ55ZF0SeeoECrjfC19ON//rpbHL6oHjVjIZ195VfUeGy7W9xYDiwRMZR9zSf4o6gn1NfLx5KHPqcoeTHFhyXSM8ef9vltpgj+svbi2Fgq4w++Fre36dPdtpvObqQb8m6mm/Jvpx/v+rZbnBwIAoKAICAITG0EpowGp6e1kfocXX68W/0qv572Jp95Zl/7CdW5e0sUEhlPwbZIZzRrhUITMih97R204FO/pqQl13o7bUThWRvuo+yrP0YBQZYh6UP5C+soOzp3MWtWnB9p1InCU3JVXEhErA6aMNub8++gvv5e2lL2ps9rArn57Ow5tDQu3mu6dkcr7a7YTrPi5lBGVLbXdBIhCAgCgoAgMPUQmDIanEP/+1m/3h1oRPZ89za/5fnOD9+v8goICqaMyz9IqStvoswrPsTal5f9Voa3jLKv+hgd+s1nvEVPmPA58YWUHJ5CW5ncdPV0+ryu/EgnaTzV1uIz3Stn/kXL0lbRjbNupZ/v/aHPtBIpCAgCgoAgMHUQmFAEJ6FoPSUvu56qtj9L9Uc2u6GcvOwGSii6gsre+D21FO9TcdaYZJr53ofc0h39/ZfcjvVBdN5S9qm5TJlmAplkOFobqJbNRJXbn9FJ1BZ+PMlLb3CFdVQXK1OOK4B3oHlJXLjBFWSxRVHhfT9yHZdt/B21lBxwHRt3+nt7uH7PKIITZA0zRrEmJpgSGQNcQ3haPpudeqmrsZLKNz9NTaf2qLT/f3vnAd1WmeXxG9uSLEuWu+XeYxybOE7vyQQCQ5uhk9CWUGaGoRwY6iwDs7Nz2AF2qLsHMpRhYCmTPZQJgSFLCZDewSQkJHGJ7bjITe4qlmXvvd/zU55lSXZixZGVe895euX73vfe+8mgf275ni45D7IuukNsU3iKrPCmp2BgQApRmQ9uGfJMfdYuiEjKhghjLlgaK0R/QE+SJ4ufugyS518OahzXabdAZ/V+qPr0pWGesbjCJeiFugZUUQlga60T35en8ehYQsn5yPNi0MQYwdlrhY6Kb6Fq/WogDu5WlFAsDh1o2e/eJPazdXq4LjNLbE+JMoj1ioxMuCg5VWxvaWmCjU1NYlv+qO+uBUe/A/LjpsiHPK6nlcyEmbPmiLZNGzdAedkRj/34IBNgAkyACUwMAgEVorK2HAP6AU9dunIYvdQl14o2W0utqy1Uo8OQT7pYItMLh4Vi5I5ROdPhrJW/h7iiJTDQ1wsODDtpYpMheeFVchfXmvJ4XGNiaIfyXNyNcmpUGN6hRTZ5n9bKnBu5XV5rE7Mg+2eSN8ViOiofFuuM5bdA1sV3QmTmVHGPJAhI6CTOUISyMDdIvhblCZGFYQ6MfCxUDoeJFoC6b94RW5kXeM8jog6pS64XOUfahEzos3WLsBoJnml3vwaTQkIHR5MES+4VD0B4QgaQeNLimvY9Wd7lD0L2JXcJgdWPgoZCZiQMi+/4C3gSWamR6WKYph6Tp+EgIVyDS7hYdGFh4BwYgHAShYPH+nDfkzVZTKAKUYFONRgq9NApPT0dUlJTxRIfn+ChBx9iAkyACTCBiUQgoDw4lKRKP67hcWmg0kWLH3mCSd4HymOxoTejt6vFxdfSWAnfPXuD2C+59w2RZOxqVGxkYq4KWfmHT7mSgclbYsiapuglbZp2fQy00I/67Ef+MaydDph2rBULbc95dB0mGXdC6Qs3065Xm/O7j6S2Qe+JrbUWyj94ckh/8nSgKwZKn18FDkuHaFNFRAvvh9yRGMnXKr7zZQiPSYZ9L/5qmJdF7t92eDukLFkBkelFEB6bAjZzvdzkWoeqIyBlkST2Dr7xEHTXHRbepKm3vyjGT5r7c/QKIQu894zzpOc8suaPwqtEFVTFd78KqgjJoyIPasgqhtiixeK+Dr75W7CYKiAsPBKm3Pg4aI3ZkDT3UhdD+ZwUveSJabZ4Tr7e1doKtCRowuGVOXPgh/YO+MMPnj1l8pi0buxqgFR9OqRGpsIR8yFlE28zASbABJhAkBLwmwdHq9WCTqcDjfp4xZAnZtpw3/1af9goTkvE6iTZkuZKIaPmbz+TD53Q2umwif7knZGNQiQdFXvl3VO+7mkowx/5ShGmoYtRGMiQU3L8uigeKCRFIiJMIRYclnYhOI53PPGt2q/eEidlnP8LjycbcqYJQUfiicQNGfE59uXrYptCUmRaFJ7kNevtanWFzJwOKzRsfU+0Kz+S510udtvLkTE6ViIosTk6UYQFqSGucJGyu9g2aKJF7k1f//DwlbLz5MH8myNdvvNv5HOarVLYyqhLlg8NW1dXVUF1FYYjcWlq8iywhp3EB5gAE2ACTCBgCfjFg0OixhCpFw9psdrA3mv3+MBqlRoMBqmf1Wb32K9x5zqRsxE/7RzMPXlXjBNTsECsm05S4DTs+AjyrngQ6Ac+den1mItyFEw7P4K2wzs83uepOHjg9eNhHApTnX3bc5B14a+hs7JUeKbIc2PG8vG4s5cCeU7Ig9Nd8yPUIgNrU9WYbql53wZ89lshOm+mCBO5D0bChaynsUqs5Y/uWknsqAySMKTKLDIbhhKV1l1fptwV25p4qW/slAVAi7upo5PcD4G1zwLasAjUeCj2vISb6KT8SMlbNFqBY8AJ/8ja7W1i7elj//5SoIWNCTABJsAEgoOAXwSO+Cf6IA8fv0vYQ5EjodhUohRhqM4WMb8LJdGqMZE1VK2FnoZyTHztUXYd9bb54GY4iF6HjOWrQJeUJ3J1qHTaH/O2jPomFB1JsHQe/V6UcEfnz0axtU60Vqx9BpOT90PygitEaCimYB7QUr/lPaj9RvLCKIYZ/SZ+KXWb/o7hpduQwS3DzgtRhYtj7mX2/Y5ecVwuQ5f7DTjR06Qw9/OoKXRw7p+aL/46JKwon9ZnHf5dNmLuTVZUDsRo4sBsOx6KlM+R164Kqq5u+ZDPdTKGpsjqOmt99uNGJsAEmAATCB4CfhE49t5e6OjowjBHCDj7vIcXeh0O7NcJIZjf4vRQRSNjbf7uC/S0XAuJWDmlQYFD1rj7n3LzSa27jx2Eg397SISAYgvmQy4mwFICL1VijXXCPRz0hO8pJEyau0alCJvRIM2ln4uFcluSsJScOBjnXOJT4EyaFDri9Ylf2k9uxAqtRWDvbB7SX87LCUcWStNgfg9ZX3e7WMv93O85PHa4N8behom9uhiwNtdAR+V34vyRPo51VAuBY9Qn+RQ4WXodWFFktQ8KsJHGTdAmiLl12mytXrvq9QZITZM8Wc0YojKbvff1Ogg3MAEmwASYQMAQ8FsOjs1uA6vVAr0j/OjY7HawYD8SRd6MZuYliy9eBtGTZ4vclNYDUm6Ot3N8HackWpeJUNA2LG+W/jWvS8lzNZ3MBuWqUIKtr8op93HpfuTXGnSh8JKNRI1slNtSv+098ezkwaKkaHdzYhUTGeXQjGSU39Ow7UMh8OTycvmcnnopFEU5QcrryLlPPZggTGZtrkYn3AAmfWeJXBz5/MTpP5U3XeuOCknUpGA5ubsRK0o4drej7eXiUHa09+9EGxoKtLTZvf/9KMel91Hp1JHQ0FPvc2bk4pISuHrFdWKZM294SE05Jm8zASbABJhA4BMY/qsZAPdM+ScUxqFcFTLyAHiaN4Xmo6HSY7IwTH4lS/vJDWJNH/WY/Erhk+K7XgEnVjqZ8bUEju42iMLXFFA5NM310nZ4p6t/SJgaw0NXoycKPTKYB0JG1VvymFRe3rj7E1d/2iChRPc5Da/RXrZHjNlc+qUkBhQ9C254XDh6VPjDTiXWND49Y/uRXaJXmEYPMx58F7pw7pkOnOeHJhqMx3wcqubqrN7n8fk7aw4KL1TupfdBe9Fe6EXPTFfND0OeSXELWAn1AVZL4fO5iSUrlt5TuI48WlTC3bTnUxQxOZgPJCUXH9vwphiGWLZiuI/K7YvveGmwX66YW0h5Hdom9kasvqLqram//C9xHgHQp5wFUXkzsHz9bRRwHww5bY9pB6wovBGWZSyH9RUfeczDsSOXHvQSpkRo4e78s6DBagUbenM+qa8bMpa8syxzudhcXyaFAeXj7mvK+2FjAkyACTCB4CEQkAKH8Dbt/T+g1yCQNWLZtidLP3eVyM9RtqUsOu4xIDFCP8qUFEs5NykLr5a6oheCxEX1F68PEQ6qiCicD2aFcjgxvjwm5QC5C5yy95/EyQbvAX1qgWvyP3r/k/B2KEaismlheG2a36a9bDfUfP5XVw/ysNC8MjQHDi1kJOq6ag5A5T+ecfVTbpBIoMowZSKvJso4ROAo31HVj3MANe75pyjRVo5D24ff+QOcdcMfxVxDxJWM+tPzKUvzK9c9L0Ql8aSEbTKaXJBCX0qj59m/+g7IX/GoEE5pg2KV+jgsndCDFWXuRtVTn5SvhSsLVkJJ4mz4rlESf8p+/chvdXkZ3JaTC+cYjaLJjN5ATwInFEN3yzLPh3abGcfarRxm2HZ8nBQKpYb6Os9iadhJfIAJMAEmwAQClsCk/MLpXtJ9fd9zbFwcWPBFhzab1XfHAGmlsIgWJwWkNZVCe/IIBcKtksjSYLVSP1aiuWYeHscbozJwCkGRp0vOufF0efk+rThZIYXTfBkxjyCBg94oO87DQ54wb0YT8j29fDWYuuvhiW2/99ZtVMfnpiyEm4p/CW98/zLsatjm85x773sY9Fh+bunpgWeffsJnX25kAkyACTCBwCcQsB4cf6MjTw5VYgW6UXhOnuTvdNwreanIazSSnch9Ent5fp0Rx8XXKqze+xxOypeBAS0sF1dW3o10slt7j6MbPji0Bnabtru1DN3VqMOFuKGjn60fWzL70JF5jwkwASbABE4XgTPGg3O6APN1A58AVVDNnjNXJMhv3bwx8G+Y75AJMAEmwARGJHDGeHBGJMEdzlgC3fhG8q+/+uKMfX5+cCbABJhAMBLwW5l4MMLhZ2ICTIAJMAEmwAQmJgEWOBPze+O7ZgJMgAkwASbABHwQYIHjAw43MQEmwASYABNgAhOTAAucifm98V0zASbABJgAE2ACPgiwwPEBh5uYABNgAkyACTCBiUmABc7E/N74rpkAE2ACTIAJMAEfBFjg+IDDTUyACTABJsAEmMDEJMACZ2J+bwFz1/S27iRdSsDcTzDfCLE2RiQF8yPyszEBJsAE/EYg4AROdP4coLeEy2/z9tuTBsJAp/CN1aEqLRhnXYQvFT17XJ/0oXmPwf1zHxGvVRjXC5+Ci9H7xGfHxkGePnJMoxdFRcPChARk4l9bnLEM/m3JU5AdnevfgXk0JsAEmEAQEgi4mYwzzrsVwmOSoWXfV+JN4P5kbpx5ETisHfj2660eh02cfgGknXOjxzZbay0cfONhj20jHYzKmQ5ZF98JGoP0xmqbuQ7K8Q3hFlPFSKeOul2lj4bMC26HnvojcOD1B0Z93lg6FhtnQFxEAnx4eM2I74yiH/yevj4obWsbyyVP6bmTUIA+UlQEld09cP93e0/6WtdnZsGUKANcZzaD1ekccZy0CB3k6HWwv60d2hy9XvtvrN4Al+RdDpflXwPP7eIXgnoFxQ1MgAkwASQQcB6cU/mtZF54uxAB3q4RolLBJHzjNS1h2kix0JuwaT8kTOPtNJ/HDdklcNa1fwBNVCLY2hrA3tkM4XFpUHTL0/jW7hyf5wZ64+X5K6B/wAmbj33t81ajVWp4oGAKrMzI9NnvdDcO4A10OhzQareP660sik+A35xVADmRep/X7XF0we767TA5tgDSDIHN0ueDcCMTYAJMYBwIBJwHZxye2eslTLs+BlrISu59A9T6WDj4t4fB0njynpaMc28W4bb6re9B7ddvibFzL7sf4s5eCmnLboQja/5dHJtoHwVxRWDUJcEWFDf2PpvP288d/OE+3NXls9/pbhwYGICbdvh+8/jpvsfPKj+B2Snz4dLJV8GLe5853bfD12cCTIAJBCyBgBU4hqxiSFt6A2hik6C3vRGOoThoL9s9BOSk0DBIKD4XYgsXgi4lHwb6nWBHL0ndpjXQXr5H9KV8noSS81znqbQGKLr1Wdf+sQ1vQGfVPtf+aDcKVz0FNnM9mA9th7TF14ImLgUcna1Q+cl/Q3ftj2KYsPBIiEjKFtv1m//XNfSxDW8KgROdOwO9QyF43/2uttzLHgB1ZAyUvf8UZJx3M0Rhn5AwNXTVHITyD//TFbaLK1wCqYuvAVVUAtha68C0fa1rDOUGeZ/SUWRFT54FKn0MOLpaoWnvepeQU/ZNmncZxBUtgcqPnkWmS3F7Iagi48DeWg8VeMzacszVvSihWGwfaNnvOqbcCMPneqigUOShpEZEiKb5cXGQEq4V27VWC7x5tFJ5is/tqVNLYOq0EtiCb/uuqT7qs6/cuMxohAVxCfBqRbnIraEwWbI2HCq6u+HV8nJotEvCrCQmBpYbjyfvVvVY4P1j1fIwrnV4aCisys4B6m939sPm5iYw9/bCDNx/raIC2t3CS3GacLgqPR3OjoqC7j4nfHCsRpwjD/hI4dmCT6ZO4nN9ZjZckCQlbDfarPBa5XBhXd9dC45+B+THTZGH8bieVjITZs6aI9o2bdwA5WVHPPbjg0yACTCBYCUQsAIn/5pHob+vFxyWDtAmZkH+iseg7L0/QdvhHa7vImP5LWCcfYkkbFAEkeAhoZM440KXwKEQE/2wK025T+0nY/q0KUBL/NRzYGBAEijh8Wkw5V/+BHv/vFIIEdon6+02i2eRr9Pb1SLaxb3pYqAXRYdshpwSUEUYoBDHCU/IAGevVYTIoifPxuNRYO9oQsF2PmRfcpc4hfa12C/3iuF5N8Rj2p2vgNoQL/o6LJ0iPJZx/i8E06MoxpQWic+jS86D3Evvh4jkXHHPA84+sR2VO32IwEmNTBenNvWYlEO4tg1hKkgMDxf7JCrIrCgKEgaP1Vmt4thoP7QoknJy88RisVhg7+6dsHP7NrDZvY+Tj8nCs+JiMV89D2bGxoocIDuKSdreGh0FjY2SwInC0GTOYGIx3WuytmeYwKH8nD+XzIC0CK0IY3U7+uD6rCzX7b9bXT1M4Dw5bRrowsJE/0ydBu4rKIAGfO7ybsmTFatWAwlBPV6fzKAKg5DBRHQ7inVv1mQxQao+HXSqSKCwlSdLR2GVkpoqmuIxBMYCxxMlPsYEmEAwEwhYgWNrN8H+v9wJ9AMr/6BnXvCrIQLHOOtiQHUBpc+vEkKIvihVRDRoYoyu78y0Yy3QQjbn0XWYZNwJpS/c7Gof64b5x61Q+fELYpipt78ocm3iipZCc+nnrqTifmv3sMs4HXYggUPiQylw5I7qaCP88NpvXInI5LHpo3HwB5A8O2RH1vxRCDmqoCq++1UhjOTzaZ1+zioxvq25Bg698xgKrTbQougquvU54dUy7VwH1uZq5Slim8RN5boXMNF7g9gn0eNuKXrpx7PZ0ujeJPbNvXa491vJi/b2/AVA3o97Bvc9njDCwV07t0FLSxPMX7AYstCLsnjpMli05CfozamCrVs2QiV6abwZCZonDh6AXa2SkKSkXqVtbGoCWkhcfLBosbLJtU15MiRujnR2we/2lUIf/t3NQY/UvxYWufq4b5CYefzAAehAz86q7Fy4NC0VliclQXm5JEoeKP1WnLIyIwtWZGbA6vIy2IuJySNZY1eDEDipkalwxHxopO7czgSYABM4Iwn4TeBotVoIwX+N9uG/bO344+bNtBiiCAkduV/t128LcUPjkFjIOO8WDN3EQahGB057j/ihp5AUeSnC0ONBnh4yh6VdLGJnHD4or6YfxQpZ2+GdkDTnZyiwpHCHCkNNZE6H5CkQO4MfA+idIgvTRQ0eGbqq+fw1l7ihltaDm0QHbXy6YECiSA7DOR1WaMAcH6pAU1pCyblitwGFTJguFsIwp4is8+j3QOX4sVMWQp0HgUOhQFncUP+ehuHiwaCJFrk3ff191MWrkXeCvBjlXvJvkjAkk5wiiSVvg7S1maHqaIUQMSRkVDjmjJmzYdbsuZCZlS0Wm9WGQucb2L5ty7BhvjSZXOKGGmst+PdzgrYwQfKCvYPhMRI3ZCSYKERFnhhP9mlDvRA31LYFw1kkcBIxbDVWa7Y2iSGMumSvAqe6qgpisOSdrKnJswgVjfzBBJgAEwhSAn4ROBq1BgyDiaQW/KHxJnDUWE1jMEiVIlab3Ws/Yk3lzkqjPBytMRtDLKlSG/7IkPeEknXJc0ICp7vmR6jd9C5Ym6qUp56ybRI2VBklm8Uk5ZSEhUseAuFxwUbKoXG3SejRIHPaLO5NYp/Ekiej5yezKfJhaL+7voxWLqPcHhKDZHI4y9U4uEGhLU/WXiZ5Xjy1ycesfRbQhkWgQ2kSOtGkH3y5TbnO00vf9+GuTuVh1/bsufNgGoZ+fJmpvh5ee/UlVxcHVjrt3LFNLJMnnwVXr7wewjG0NGfeAo8Cp7R97KXpiRqtuH4N5ucorRb3vQmcfVj2LVsd5hyRkdgbqxlwwj+ydrv359q/vxRoYWMCTIAJnKkExv5/W0Hu+A+cj9867Hm8n3LTE3zZKyK3yYm4oerj/wKuWPsMJgjvh+QFV4i5c2IK5gEt9VuwYumbt+RTT9macoR8WS+WhJOFaKQkUmVfuexc7qNso23yRHmyEJX0/ANu86u485oUKuV1kJerYu3TnoYCKyYPezLK6xnJGjH3JisqB2I0cWC2tXjtnqc3iLYyLx6cPTt3QF1trdfzqaGlReIod9Lg38CsuXOFFycKJ9Ujs/T0wFZMQPZkZrvv78nTOe7HVCgYyZxuf7hOH3/wFgyvngpLxtAUWV2nb26n4to8JhNgAkxgohDwi8Cxo5u+o6NLVAQ5cTI3b9aL//Lu6OjEUFYoOEf4n78GJ/tz9Bz/kZdDOVQxpDQKX9FCeShUBZS69FowzrnEh8CZpDz9lG7bzZJ3h0JrlDtD+UJkoeoI9K5IosdT/o2vm6LKLTLVYLhJ7huO1WZKI8FDAoy8R21Y6SULRGUfr9uDSdNe27HhWEe1EDhGfZJPgZMfGSmGKesanodEDQ2merGITj4+yFNUMKUQ5s5fCGlpkueJPEeUPLtl00aorR2eSyQPp5DV8qETXpswn4ZycJIwxNqFf8eyGQeTpuX9saxD6W9kFJagTRDzD7XZjienu5+mR2GZmpYmDjdjiMps9t7X/VzeZwJMgAkEAwHpn6V+eBIbltxa0Q3f61Yq6z60DSdRs2A/EkW+jF47IBtNkkfJuJRwrBQEJGpkozyU+m3viYqqULVW5ObIbfKazqcKpZOtnJLHGe2aJvWj+6VSbUoSls0460KxaWmocOUZyW0jrUVSMP6wRxizXCEoOidx+k+HnSqH6pLnXT6sTY2VZRTGOlk72l4uTs2OzvM5RMZgCXTLYEm2z84+Gudi+OnKq68V4qYLw11fffkZ/PmJx2HNu//jU9z4GPKEmva1S2L754OVSXRyBiYrp6DoGavR5IJkUwye87GU49P7qHTqSGjoqUdfknfpVlxSAlevuE4sFLpjYwJMgAmcaQT84sE5FdAot4bKr20ttZA0X/qBbtzzT9elwjR6mPHgu9BVvR86jpYKD0U8nkNiorN6n0fhQK9boJLzaXe9gnPq7MFkZQt6f750VRJR4m3KwqvENdRYvk2Wd9lvoK/XIua8qfzoeXHsRD4o+ZdeoZBz6b1gyJmGCdYqkTdEY9Ru/vuJDCX6kmem9eBmMV9N8R0vQdOeT1Hs5ALNmOxuFWufheI7/oKvn7gJS9oLoevYDxCC3qNoLPmmcvp9q38t5tBxP280+3tMO2BF4Y2wLGM5rK/4yGseThWGjsjL8fuiqbCvox2c/QPweWPDEC/IaK5nwVyXQz/+CNs2fwP1DUO9eKM531sfKtP+qTFZONhCxKw0gDk1KrhkMPG5s88Bm7DC6jP0NF2blQmLcC4dHSa20zw+VBHlD/uxs0MM8zMUT/EaDVThqyLolQ1fNZqGDb8sc7k4tr5s3bA25QHyeLExASbABM5kAgErcMwHNuMcM8tc3037kV1wbMPfXPuUW9Jn7YLIzKlioQby0HTVHIBKfM+TJyt7/0nI+fk9oE8tcE3+Z22qdgkcXfJk0aY8l+aiIdPEpCgP+9yW58WhTo0oQMKwdD118QpImCb9OFGoqurTl4Ce6WSsct3zoqIsMqMIQ3LXiyHMB7fg5HyLhgxH4Sx6L1X+ysewamq2WOQOlBztdCtfV9633M/bmqqnPilfC1cWrISSxNnwXaPnZ3m7qgpStRFQhPPO0EL2pYcfbm/XkY/v2/cd0HIi1u/DwyGPo0exclterrwr1tFYFXVrrnSMXttAAqcX58+5Z+9e+C2WhU+PjYHigWjY0dICahTUs3GuHYdissYhg7ntePK6HO3phtVlZXBNRoYQUCSiGm22YQIndFIoLMs8H9ptZuS9223kobvxOMGhbPV1/hOE8pi8ZgJMgAkEOoFJ+YXTvfu5fdx9LM4BQv+qtuGMq6fKqApIlzIZq6bKpNJwDxeiye80WFnUj6XpY3mlgoeh/XqIwkHaxGwRQpNDR2O9gPzsVtNRLEX3/T2E4QzO2oR0zMtxCK+YE71SYzVViAqeXr4aTN318MS23491uAlzfhh6R2gaPsoBenb6TMjGF2VeuWUz5sWc1H9Ko37uuSkL4abiX8Ib378Muxq2+Tzv3vseBj3mP1Hy9bNPP+GzLzcyASbABIKRQMB6cAg2zXfTieEnX0bl4fIcOL76ne42SvL159vD6XlO5Nn7cIJD8m750+iVAav3PgepkRkY3MFy8VF4TPx5/fEeiyb2K8dkaZrEkBKC56OnhcQNvX38VIsbetYeRzd8cGgN7DZt9/noVGVG4obss/XHw7o+T+JGJsAEmECQEQhogRNkrIPycQ61HgBazgS7Dt8VRe+Nosn99DifjRq9clQmvhorucbDfmj+HmgZyVQYYqOSeUr4P3Bg30jduZ0JMAEmEJQEAjpEFZTE+aEmLAF6yeZc9OIYcdI/yu+hSf8+qa8THp0J+1B840yACTCBICXAHpwg/WL5sfxPoLStDWhhYwJMgAkwgcAncPIToQT+s/EdMgEmwASYABNgAmcoARY4Z+gXz4/NBJgAE2ACTCCYCbDACeZvl5+NCTABJsAEmMAZSuCkc3DMrfxumzP0b4YfmwkwASbABJhAwBNgD07Af0V8g0yACTABJsAEmMCJEmCBc6LEuD8TYAJMgAkwASYQ8AROOkRFTxarU8H0rCgw9zigpsUKrd2+3xAe8DT4BpkAE2ACTIAJMIGgIDAmgZOdqIMbF6e5QKzdbYK1e4e/AdnVgTeYABNgAkyACTABJjAOBMYUoiqt7oD73joAL2+oFrd60fTEcbhlvgQTYAJMgAkwASbABHwTGJPAcfYPiPDU9rI2sPQ6QR0Wgq9cZGMCTIAJMAEmwASYwOklMCaBo7z13r5+sRsSwhJHyYW3mQATYAJMgAkwgfEn4DeBM/63zldkAkyACTABJsAEmIBnAn4TOH3OAXGFzIQIz1fivj87pQAAAgVJREFUo0yACTABJsAEmAATGCcCfhM4tWabuOXLZyWBXjOm4qxxenS+DBNgAkyACTABJhCsBCblF06XXC9jfEKDVgW3L8+AwtRIMZLV4YT/+Ec51JqtYxyZT2cCTIAJMAEmwASYwIkR8JsHJ0IdAvF6tbg6JRwfbbKADUUOGxNgAkyACTABJsAExpuA32JJF083QmKUBnaUt8PLX1aBX9xC402Dr8cEmAATYAJMgAkEBQG/eXCK0vQCyMffmljcBMWfBj8EE2ACTIAJMIGJS8BvAkee/8bUbp+4NPjOmQATYAJMgAkwgaAg4DeBEzo4wd8Ax6aC4g+DH4IJMAEmwASYwEQm4BeBo1WFitJwenVDPyucifz3wPfOBJgAE2ACTCAoCIwpyTg/SQ93X5AlxM0kfEPDkYbuoIDCD8EEmAATYAJMgAlMbAJjEji9zn5oxJybcpsFykzd8MX+lolNg++eCTABJsAEmAATCAoCfpvoLyho8EMwASbABJgAE2ACQUHALzk4QUGCH4IJMAEmwASYABMIGgIscILmq+QHYQJMgAkwASbABGQCLHBkErxmAkyACTABJsAEgoYAC5yg+Sr5QZgAE2ACTIAJMAGZAAscmQSvmQATYAJMgAkwgaAhwAInaL5KfhAmwASYABNgAkxAJsACRybBaybABJgAE2ACTCBoCPw/nLM+3zqmGHEAAAAASUVORK5CYII=;" vertex="1" parent="1">
          <mxGeometry x="680" y="1520" width="499.08" height="210" as="geometry" />
        </mxCell>
        <mxCell id="1CHQfiaJzoFtv51jB6GE-54" value="&lt;div align=&quot;left&quot;&gt;&lt;font style=&quot;font-size: 27px;&quot;&gt;Inorder: 2, 3, 4, 5, 7&lt;br&gt;&lt;/font&gt;&lt;/div&gt;" style="text;html=1;align=left;verticalAlign=middle;resizable=0;points=[];autosize=1;strokeColor=none;fillColor=none;fontFamily=Helvetica;fontSize=11;fontColor=default;labelBackgroundColor=default;" vertex="1" parent="1">
          <mxGeometry x="680" y="1470" width="260" height="50" as="geometry" />
        </mxCell>
        <mxCell id="1CHQfiaJzoFtv51jB6GE-55" value="" style="shape=image;verticalLabelPosition=bottom;labelBackgroundColor=default;verticalAlign=top;aspect=fixed;imageAspect=0;image=data:image/png,iVBORw0KGgoAAAANSUhEUgAAAkEAAAD5CAYAAAAgAuGcAAAAAXNSR0IArs4c6QAAAGJlWElmTU0AKgAAAAgAAYdpAAQAAAABAAAAGgAAAAAABJKGAAcAAAASAAAAUKABAAMAAAABAAEAAKACAAQAAAABAAACQaADAAQAAAABAAAA+QAAAABBU0NJSQAAAFNjcmVlbnNob3RZI8YhAAAB1mlUWHRYTUw6Y29tLmFkb2JlLnhtcAAAAAAAPHg6eG1wbWV0YSB4bWxuczp4PSJhZG9iZTpuczptZXRhLyIgeDp4bXB0az0iWE1QIENvcmUgNi4wLjAiPgogICA8cmRmOlJERiB4bWxuczpyZGY9Imh0dHA6Ly93d3cudzMub3JnLzE5OTkvMDIvMjItcmRmLXN5bnRheC1ucyMiPgogICAgICA8cmRmOkRlc2NyaXB0aW9uIHJkZjphYm91dD0iIgogICAgICAgICAgICB4bWxuczpleGlmPSJodHRwOi8vbnMuYWRvYmUuY29tL2V4aWYvMS4wLyI+CiAgICAgICAgIDxleGlmOlBpeGVsWURpbWVuc2lvbj4yNDk8L2V4aWY6UGl4ZWxZRGltZW5zaW9uPgogICAgICAgICA8ZXhpZjpQaXhlbFhEaW1lbnNpb24+NTc3PC9leGlmOlBpeGVsWERpbWVuc2lvbj4KICAgICAgICAgPGV4aWY6VXNlckNvbW1lbnQ+U2NyZWVuc2hvdDwvZXhpZjpVc2VyQ29tbWVudD4KICAgICAgPC9yZGY6RGVzY3JpcHRpb24+CiAgIDwvcmRmOlJERj4KPC94OnhtcG1ldGE+CheHLeQAAEAASURBVHgB7L0HfBzVtT9+VFar1ar3Xm25yJZ7w9jYgGkxLdQACQnk5VHSE9Iej+RH8l7aI+XlH/LSSSOdXkIxBhts3HtvKrZ6b6uu//ne0V3NrnZXK2ltS/Y5+qxm5s6t35m59zvnnHsnqHDmvAESEQQEAUFAEBAEBAFB4CJDIPgia680VxAQBAQBQUAQEAQEAYWAkCC5EQQBQUAQEAQEAUHgokRASNBFedml0YKAICAICAKCgCAgJEjuAUFAEBAEBAFBQBC4KBEQEnRRXnZptCAgCAgCgoAgIAgICZJ7QBAQBAQBQUAQEAQuSgSEBF2Ul10aLQgIAoKAICAICAJCguQeEAQEAUFAEBAEBIGLEgEhQRflZZdGCwKCgCAgCAgCgoCQILkHBAFBQBAQBAQBQeCiREBI0EV52aXRgoAgIAgIAoKAICAkSO4BQUAQEAQEAUFAELgoEQi9KFvtZ6Pz8wuo09FJFZVn/EwxeaNFRUVTcnIyVVdXU1tb6+RtyAVQ89DQUMrJyaXW1haqqam5AFokTdAIREZGUW5unj5U2yNHDlNPT7dL2Lk6sFjCKC0tnSyWUGpubqa6utqzVjT6F/QzJSUl1NfXe9bKCWTGF9MYEEjcJlNeASVBISGhdNXV11B/fz+9/tqrNDDg/QP106fPoKlTC+nQoYN0/PixUWOGgeKaaz9AQaaUDiYs5eWlVMoPWWdXp+nM6Hft9iiaN2+B6hgCQYJiY2MpITGRKisqqaOjffQVGkeKcGs4ZWRlUlNjE9XX13nMadq06Wrg3b59m5Agjwidu8DkpBSaO3c+nak4PaFI0Pm8h88d+me3JJBbPGtmOXLkkPnwnOyjT7hs9eUUaY90lnfq1MkxkyB/+pgFCxdThC2CysrKmAQ5i52wO4EeA85HQ2fPnsOkO9dZNEbk9rZ2JqKnqLT0lBqr9UlbuI3mzp+vXoZDQywquKe3h6qrqmjLls3qePXqKyky0q6TeN3+61+vMLHv8Xp+Ip0IKAkqKpqlbnI8TL4IEAjMzJmzFA6lpaVjwiMhIZGsYVZVDt6igkNCKCYmhn/FKu9/vfoyOTodY8obiaKjo6i3r4eqqirHnIc54azZxZSSnEqtLe+ccxIEAjR3znw6fuK4VxIUFx+vqltbe/beBM14yL53BBKTktTJ+jrPhNV7yrN75nzew2e3Zecu9wMH9hF+QUFBdPPNt1Jff+95GSwWLl6iCFB1TTUdO3qEuru71OA4ViT86WMwyEIDdL60XqNtW6DHgNGWH4j4aenpFMbjJMay/r5+CmPNnzXeSvHc36ekpND7729SxcTGxtHll1+p7kuM3Y1NTawdDCF7RCRlZGQ6qwICFBxieNEEsQoCig8I8tcC8jNZCBDqHDASBGIzZcpURUr27duj8fC4BQFCJ3Dy5MkxPxCJicZAcebMaSdLtdnsrIm6mkL5wuQw+z18eOxvWJWVFfT8c896rP9YAmNiYlWy+vr6sSQfV5rEhJEHVbwR4ubv6GgbV1mSePwIgOBDzqZpYiy1PJ/38FjqO5HTxMbFqT6wuan5vFQzOSlZPe+b3tvoog0Ya2VG6mOio2NUe1taJ0//EugxYKzYjied1vS98vJLTmICC0xx8VxKTU1zZn3pipXq+mDsPnbsqLo3cNIWHkFZ2VnOeC+++LxzPyUllS69dCW1s2UDSofJKgEjQTOLZisQoW3wxQJDQy1OsrR/v2+y5AvUhIQEddps3nE42gk3blZmNqvsopzJQbhWrbqCWlqamXgdp2lsiksaJFFlZeW0Z89OFRckaumyS5zp+E6gDRvW89uLq+4Wqt9ly1dQLb9FwbRVMKWQwsOtquz9e/c6TXFT+GbLyspR+SENZOVlq9UW//ZyuWZShDelotmzKYk7KGtYmCq3tbWV67eLGhsbnen82YHprbh4nooaEx2ttjOLimhq4TS1X15W4jRD4kYPDg6mtvZWgg3cW3t0ual8889gIhsdE63qCG3Zrp07huGk44+0Xc4P0gCbUM+cOUOF06ZRREQEm+Taadu2LdTS3OSSPL+ggM12+bRn9w5K4Yc4PT1TqWc7Ojpo69b3qZnfYLQUcltzcvP4bSaCurq76QTfm0fZ/2KsAv8JaEOSk5P4eofzte+kfXt3e9QWLliwiLWJMbR507s0kzWkyfzWZbWGUUN9I23e/B71spoZgo6ksHA6xSfEcX4O2rdnt8IV55pMbcGxv+0ZDUbI15eM9h72p2w8jzAJpeHa2fne4zfL+voGKmczCVT0WtBZZ/Lzs53vA/hHmWUOazbjuQ/YuXOb85qHsDYY4ckpyRRutXLn7OBnbBf7uVWZk6p9f69PHJOVWbPmqGti4Re9nt5egoZu547t1D3ox+Nve8yVSElOUYd1AdK8ZmRk8bObTyBXcEeo4b4Jz2Qv11dL8Zx5BIIdws866oyXnsu4X4R0tLc5XyZ1/JG2o+ljkga1m03cj81hU29GRoYqv5wtAftZM+Yuge5jLBYLzeaBPy0tjcvtp1OnTlEP9wnQcuzevYvdHox+w58xAC/gyOsEu3GUcT9qluycPCoomML5n6SSUyecp/xpTxr3Z9O5X4VmDtiOhJEzcy87ERF2dZ17lfZtSFNTN+gSAVMXBGY/WFVAZo5y2WZxdHYMC9PntSIC13QyS0BIkCI2fOHxUB30cEObAcKAgAfw+HHfZMmcxtM+TF+QWjdHvki+oJCmpqELA18GqP/srMqDTR6CGwMao0w2FWkSZOcO2WazqvMgBmiPOwHCyUQmKfHc2cRxvmgLbialfcrO5cF8gHbs2KbyiI6KUflh8ISgc9L547inZ6iDAgm58qqrlboSZeKGxECLTis2Ln7UJAg46LIwOKAtoaEh6oey+7guWrT5BapP+EF5aw/i4w0CgxOki1XoUK/mcLtjY+LozTdfU+Gj+Yf06CAgcNBEniHBIZxfDK3gt5OXX3rBJbvc3AKF+4KFSyg6Koqvj4FhNDtcAm+QIFyT1ZevUfGQGP5h8EWYPatYPewjaSpdChw8AEG9Ys1VKj3uHaIBVf5yJsNvv73Ohcwiib7PLr9yDb9N2ZS6OCQ4VNnbB7NUHfDSpQbpRh2jmLhfwvmh/jjGNYOMtj3+YKTrMNJ2NPcw8vKnbJCXIn5pQvs6HB0U3B/MpuIU9bPb7XTw4H5VLajx8ZxhADWTIDzPU6ZMUSSkhZ15IXZ7JF3BWFv4JQv54h7G/YE31Xf4RcadbPhzfeDEeznfRxDk185E284Dixo4dxkvTjjnb3sQV4t+5mpqx+/4PmPGTKd7AVwAcL9lM3mM4ufhrXWv6yLVM4U+Icxi9HF9/X3OPqKTB7vRymj6GAzqkFzW0ON+BoHEs48X0oaGBpfJJ2ejj1nDvqp4EcWzG8T1mDmjSN0nqi5dQ07p/owB6HNwX3ZnZbmQIPTh8+fNUyairVuqVXvxz9/2ZOXkqHwXs6lyJIycmfvYwcs0pKVlaKILxoJi9hOClA26ooTwuADBfYNrosm9CvTxTysiNKnyEXVCnwoICSqaZWiBjjEz9qUFAhufMkiWYBcfq+BCooNEZ2d+84c5Dm9uCD9z+rQze30zgO3CfAYNA4gGyAnexLXA/AC1oY0HzOuuW8udnmfVre7AUM67725Qb12wqV5xxRpKz8hwkiC8pULw1juLB2CoGffv36uLc9niPG5AOMO+v9mw0yIC6t7a4voW7JLQywHeqPGDRuzqq6+lZs5jnReSohn9SO0BViBAeEg2bnhbaSpgBr2WsQIpBQZm8umlai7BGksEwikbdUZnsvb6G1WnBTKKtxEt0VGGIye0Oxs3vu10HM5Iz3T6O+EtDQQVnev7rHXBwKBxQP3HQoJWrlqlCNBJfsPbtXO7qs7CRYsVAZzOHep7fB9owYCMTgyC++yVV9g/jbWUkLy8AqUFwr23ZMkyFbaBsazlwRBh13O7IWYcR9sefzBShfjxbzT3MLLzp2yQ/y1b3udnsVw9q0iXnp5By5YtV6p3TYL0GyZeAoiG3qrnz1+EJLR71y5nepBHECA8Y+hbgDu0WHP4XiiePZfeeusNlQb//Lk+iLdkkKDq+xJhEGhdzBMv/G2Pkdr4j2cFYtZkG2dG9x8vEHAvwMD8xhuvUztrdNA3rl17g3oGzM8P7jMI7rvMzCzWsG1T10AFjuHfaPoY9MsQkN53N25Qky9QbxC4nLxcJwk6G30M7g0QoPLyMqUtRj3g4IsXY7yYmvsXf8YAzKKDRA1q2NUB/5vB/QB8ZMpPl6nrgPDRtMdfjHR5I20TB4kn/HhWrOD+i7Wj0Vxn9E2wLBwZdBeBth0vnxgf0e9iDMJkpZF8ErUiwv0FY6R6TbTzoeOtEIhNQX6B6oxG0gIV8UCPC4COSpsDPJWPPJUzFztY4eK4i3biRfjlV1zFN14Im1DCWRtjUVF3797p4hSNNzUIBm/tCIZjOOid5hvWXTQp8GaCio838oN5BWpniH5TRefrLvotCA+YN4lgLRSky/RWgmMMjp4E5EMRQS6vi9uBh9mTaALY2ODdFwmdAcRXe3Ddliw1Bu1tPIBpU00vq9sx2wPkFtfFPHgjT5j1Qnlw7+Hr2O1htoDGGjiiU4WgLcAqLTWd0jLS6OQJYwAESdSOeLvZbGSePo4HFwKyM5XJMAjde+9tVA6fCG9ra6VW/kHbgocdRCuFNU++pJfri/sDdcRbL7RzmgAhHWZYQAvmPltCtwlxNm54x0mAcHxqUEU+g9+AgSnU8voa435EBwtNh+6A/G2Pfk78wQj10IK3P5ijHDw49bMW05v4cw/7WzY6XfzQfmhbQnl6dleXfs4N8oh6NAyq2WPYrKgF2GKwaOPBHjNBITA/QOsDc+5eNk9qOcnPJ956IweJsw735/ogro1N3JCuTteZpiBvZvG3PToN+ivcg7hmnvoLHQ9baJ76+V7G9fEks5jkQbZu2eIceOHkjHtdaUfZZG0e5BEXJjNIvY/+COfRx1iZPPSxFqzTeX1wxlX86WOgZYZs377VOfu0ZfDlrq/X6DPH3sdY1T0E85Z7H4PnBxoL9P0wl2spLTulSBDuI0+i7xFPYwD6J2iU8OxoAVYwV6Pf2b3T0BKOtj3+YKTLQ/9lPG8h3LYuF6uCjhOnXh5IxcPyBFpAmPfs3aUw0WEbuJ9ayv07+sdMJvn4oY8HZnps03GxVeXzPYz2alOi+fxk2h83CYK9HBfbIDZD5h13EEBs8vPyFWgHDhjqbvc4OEY8+LCEcMfc2RXikQRpfx6UC7MJBDd5Y0ONsu/C98cs+q1r/z7/tE/6AfBGWvC2i4t/6NABZzGamLWaVI/6JAY1iK+3vhJ2Eoc2AxhlZ2dTBfvHHDhwwKujMjqnSLvxELa0tLmQPl0utvptwN1saI4T5Ud70Aa8aUPmL1xoTq4eMgTAFOguVu4obOFhNBBh44eq2eXBQ9yEQUKJtVLMgocM0uXQgyPakqTCcK3N9nYVOPhPmzlweOUaw5Shz4dbDbxw7XLy8qiI30R9CQYTkKCphYb57+hR1zrSYHN7ul3ve63dqqyqUD5jnsqA6hvinifuaYi+Xv62RyXif/5gpOOiE43g6wIzKUyQLW5+Nzoetv7cw/6WnZ6WQXPYbAATpbtAk6EF2jNcKzOJmb/AuPcwmGrJYT8MCAal6z6wVgerLfBEHmbx5/ogfll5uSL3yy9doTQY8Fk6fPigi58N4vnbHsSFaMd3/SJhhA7/HxkZySQIM6r6lc+cWfuE2HgJQl8JU523ZTyGyOVQ/iBWIF/u+Q3FMPaQN+6Nrm74QvWoerjHwfFIfQx8TnAd8BJh1hrol6/GxgaV7Vj6GPh+xTDRg3Rwn+FOgvKZIENODb5IqQP+F8z3O6SRtcWeRN/L3sYATDOHJgTPEPojvOCjz4JPDY4ho2mP1k6OhJGuK0h0dLRBLNvb2SWjZ+i50XFw/0BeeflFNT5EMBHNyclWmsMVl15Gzz33Tx1VvZRgWRv4MUKDmstuI6j/ipUrlXXEGXFwR493ZrO9e5zJcjwuEgT1fR4PJmDGvogNwMB6BXgQcJNoPw5vIMFxjW9TuF14lPjB2TMwLbkPnp4SoLPFQ6/fwj3FMYfph7Outs4crPb12y5uVrPpTxOzBg8aFwy+mEJoju+ecRU7b77zznqC8yKIXXZ2jvptZdNdeZnxxuuaxgs4rpGUdgZB5s7HHAUdKbQrI7VHv+3BtORgh2CzOMg49tR2fRH71TU1pzL2o2ONDkxrQ3QMvMFBmk2EVg9ecBz0Jnjrg8D81++mlUO9+9kPAp1UNTtzexogzPm2txkdC7QVEPf7AaplSEurK+nWb2C+SDc6MQzO0FCZxR5pEAPdOfvbHp2HPxjpuNgODD5kems+Z9735x72p2xocZZdsly1HX0BrhM0Dco5nDWJDW6zJ9HJ6jduOI7iTRWTCbSmDHXEVGZg2dw83GyMa94wOMjq9vhzfRB3D2uUYZKbMXOm0sjArA1z6ms8WOi1vkbbHuSLmVmQOi9aXnWS/2nuZlyb4c+7Np+0emi3zaZfkFzvTTxX6IfbBu9tXZanrfHMGv6E3vpipNMDorc+RjtFmzW3SKfJoCYaY+pjTLBovJC3Fj0pxP0FVGNXVze8j0daX2MAzuNFGyQIbcezCmsIxrUDB4ZetEfTHh13JIxQtiFDDR/a0+dImf+gccTYrJeKwcxfrMsHYgjzIIiexl6nRLt27timJnxcf/1N/OxFKPOx+eUEcfV4Z3ZH0XlMtu24SJC/xAbEITfXIEva3u8NKBCFJn6oMTj3sanFk+i3UvcL6CmunpqJWVb+itaMuGuUkF539NpfQeepiZl7nWKYTaPTaWkeuXykhSMjHM0X8Bsv7PbTps3wSIK6eHDAII+3RP3moeti3ip1Oh4EL+p0/RY3UnuAIwQEBFo/f6XT4VCqWph6YDozC9oJEyYGMPPbOmZooN5QOZtJgjZDYm0Tb2IffPvBrCw9UHmKCzW3J1W3p7g2mzGzz8FtMUt+vvGWCa2dWSLtdtUeT/cP4uHexj2Bt2uzgPAAD2ig0HlB/G2PzscfjHRc3Dcd7TxTiN9gvd0fiOvvPexP2SBAkHXr3nCq0UHCFy9eqsLdn582fm5BgkBE5y1YoOKYtUDAEelxr6xf/6Y6P9K/ka6POb32e8Fb9IqVK5RZdAqbW7XZbbTtQd7atOhO/M3lYh8DD0g72JAnc1QUmwAhnd2uLyUgF9Dawv9G30cqIv/DpA4I/OVGEpirwsLCuZ/pdZlI4Z7O3z7GnXBExxjkVWvExtLHdMKkyIvAwhzlycXCxr6DEPc+Elp3iLd10XyNAUgHs39WVrYyzWax5h734b59e13wHk17dD88EkYoG+JgEy36flhMMGPRXRIGteaezH1ay27uc93TYxxGn42+CuZqd9H3sDu5dI83GY4Nm8MYagpwcnNz1UU3m4U8ZTW72KwFGu4z454GWht0yu43LuLhZtPTzf0ZxPTN5c9Dj/y1pgcdiCdxqknrXd8ghoiZWzjPmoL4GpBRplnwMNcPapTgl+JJetmOjgfBE0Y6PkyLuOF9xfG3PZqMaNODLgNbaATRCXkSqKdxLd0JEOImDmptcE215gfh8wcHuxPHj+PQKZiSD3EnbM4IvOPgadEQ+Ci5C8jVWKS727gGcHLUkpGRqd4E4ddRUTFEgjBg4w3Mm1M90oPkoAPCQKVxAwbzeVo9RDteYn+07fEHI+SrBZoWXwQI8TDzD+LrHsZ5f8rWsy71/YR0RUWz1H2KffOSEThuGnRCLeY+BGlPny53IcbAEf0FZmdqzQLSaXG/5v5cH6R1fybxFt3RbvQJZjPSaNuDvMMHtTTw9RlJQLzxnHsSLAsB0Zot7ON5X7jIuI8O7N+PIBdJTExQx+5k0yXS4AEGWdwbWF7Cm/jTxwxpimqc2eC+B+E3m1P0PTHaPgYDNnAyz7bVBWmNoSY9CIe2Hc8o7p129iNzl5HGAMTXYw/W2sFMPLTjxAnX/mo07fEXI3Nd0a/j3vDYtw4uSWAe93CtMFMN7QM5BoGBRszTcwPnf6WI4GfLk7ZHu5hos725XpNt3/PI5UcrNLHBgoTohLwJgIRfA+LAnj5e0U59GHzc33I85e0c5H04AeKCYlCDaDtqcHCQmsaLMNwseuVofcOYVb+amBl2c1dWrh2FkT9mZeBhxSCnnYCRP5avD2MHYqyZAbMU1pSBUzAe0m3bhnwfEHc0gocDuIM0Yi0eaMOgXTtgUtn62x6spzSTfWigAl5z1TV0mmdaBAUF85TvFH6IEtTsG90x+FtHfW0Q/7JVq6mUnYTxpor80KmYF7vE2z5Ig7nT9FTOqVMnVXrYtdGxgKBgtl9aehprlyLpmWf+7imZz7Cqyiq1BssC9oUCXpawUNXxqeuzdYtLWv0GNhIWeAOFs+LlPKOw4vRpdgDPVM69yMxMBEbTHn8xcqmwHwf+3MP+lg1nZ0wvXrlytZpFk5qaqlZSRzXQqbv3JZrwYrAB3rt27RxW46rqSuVPt2LFZWqtLrxAwJkaMzXhu2GeGebv9cEsGRCwSna4R52wfAPuV+zjOdUy2vYgHe4nTPFfuXIVrzVWowaxI+xv5mmw0eV42uIeAiYgdpfx+mMY8DNZKwHNDAa/srKSYcni4gwS5E0DMizBCAH+9DFDC7G2O3NL5OcIYm7z2ehjSkpOUm5unlofDRNkcJ/qF1bzi8poxgDUWz8Tuv/EulHuMpr2+IuRexnejrWvJVaFxswwG/uWwZSsZetgv5WXP4XyGB/4A0ILhTE1MzPTqWjw9Lzp8Q55abO9zncybsdEguDPkMM+K+gQRiI2xXO0FujwsA5uLIDpm8788PjKJ2ZwKqov+zvs/PDBMQve8PB9Mwh8FzQJinL6HxiLa+E8iAGkxYNtHp7zpaUlKn+YtyDVNVUuJAjLmYOo6IUMEQeEaueOHR7fVHDeH0EHuYdny+AtGlNp8YNvkpkE+dsevAlvY2fUBfMXqlknIEQQlIEBX6u0/amXjqNn7Z04eULZ1LFmCAQzW95+a52Lelvb6EcqB+QSHRoGGQxammjh4T7Fs7nGIjB9gFBh2j3yhWDA3vTeRhfCgnDdJv0GijBPArNwYuIq1TGh3bguevaa+S19NO3xFyNP9fEV5s897G/ZWFwSC5IiPn5GH3JIPWt6zR9zXbTTLMIwbRdaNHfZsX0bhS831tTCM6afMzxDJ064vp37c33wLOJzFrje+Glp4ZeIbVs389v3kFl0tO1BXod5QgWIPgZjkCuIez1V4Aj/YK7AS9IiXqpB3+t4HrEMiHkWrDkbLC2BZ0Ev2WA+N5b9kfoYYAntFO5ts2j3AbM55Wz0MXihKONZhFhAF2MHXp5LmRxiVqf5ZWM0YwDaAe0T7l1olODXVsmL9LqLv+0ZDUbuZXg7jhp0mgZBxg/XCc8DXiqwOKQ21cPkCl8mY501Q9OOPHGPY5abJ4f76MHxzmy291aPyRAeVDhz3sBoK6rXR0FHDkcrb4KLe90HrlcP3QsvPOuX5sZbXhd6OExKcLSFmhiLWwWqkwo0bngLgOkKfjKYzt/GnRs6g7HI9fy2DU3hs8/+Q5k5QV7gh4DOfbyCzgkPK8wk0L6hnuMV5avEjsstHma5jSVv1BGazW7G0dM0VHOeZ6M95vzP9T58fHAv6c44EOVDzY+1W5AvnNrNZGUs+UODCM0w/HJaW9s8EjCd79loj857pC3uDbyI9fLLFKbrT3YJZB9jxgI4oa/CJyLwHceNG4fWGTPHC/T+2WpPIOsZwVpyzBQFQUZfBJJ3sciYNEGYTgsV9Egzs9DB4622hNXHAFfEOwIY+M1vRd5jnt8zeKPAQzLSoD1SLdEhgQCZzZqBbD86u0CrakFMA0lOUceRNEYax7PRHp33+diO9/7xVGdo5wJ5D8EfZiR/KV2Ps9EenfdIW9wbZt+PkeJP9POB6mPQzgLW3JaXljn9IuHUDgIELYb7TKyzhUsg23O26qh83rwsDny2ypwo+Y6JBG3Zstmv+sOEpM1IfiWQSBcNAtoR8Hx9QPKiAVoaKghcpAjADDeXvyWHHwgyfAqhlQEpeffdDRcpKtJsdwTGRILcM5FjQWC0CARzZ4RVok/yIpEigoAgIAgEGgEQHkyuwAzhMF5UsaWrWfkvwoUjECb3QNdX8js/CIzJJ+j8VFVKFQQEAUFAEBAEBAFBIHAIjHmdoMBVQXISBAQBQUAQEAQEAUHg3CMgJOjcYy4lCgKCgCAgCAgCgsAEQEBI0AS4CFIFQUAQEAQEAUFAEDj3CAgJOveYS4mCgCAgCAgCgoAgMAEQEBI0AS6CVEEQEAQEAUFAEBAEzj0CQoLOPeZSoiAgCAgCgoAgIAhMAARknaAJcBGkCmcXgdQYqyqgqnn4d6fObsmS+8WCQJzdQvbwUDpdP/RdsUC2PTbCQvkpdoqNCKV9ZS1U2zr+T8sEsn6SlyAwWREISUhK+8ZErLzdEkUzEouolz9k6Ojt8KuKOTEFNDWukGo6aqh/YHSf6YhILaD46cuop7WB+rrPTkfmVyPOc6QgXmWVl1Q9K7WIzi2m2IIF5KgrowH+HtO5kITIMPr+3TMpK9FG7x5pOBdFShljQCA/PZquXZZJLe091Nw2+Qb425am08dXZdOxyvaAE5RripPoi2sLaMmUWJqTE01nGh1UWnfx9lFjuL0kiSDgFYEJqwnKjsmhB+Z/ll47+RI9f/TvXhtgPrEm9xqan7aY/t+GL1N1R5X51Ij7yfOvpuT511BfZwfV7X97xPijiRBbuJisMclUs+MVHvyHkzNbci7N+PB/uWTZ62iljsoTVP7W76irucbl3Nk4SL/0NkpZfCNZIqKpv7eb2iuO0dG/fov6utoDVlzGyg9RVHYRtZw+RI7qsX3RfbSVuWt5hkryj/dHdz94KgfEfGbiLKpoO0NnWss8RZkQYWmRGZQZlU1H6g9RS/fk+KDmqgUpdPNlORQTaaGfPXN4QuBorsTypCRq7+2l3fwVbk/y/PZquqIoke6+NIO+9tfA1v+GhamqyN9tKKc9pS3U0tnrqQoSJggIAmNAYML6BHX3dSkNUHtP2xiaNbGSZK+5n3Ku/gQFhVg8Viw03E6htigKDY9U54P4y+fh8ekUX7SC5nzyl2RPm+IxXaACM1d/mDJXfZgsXIeOqlM00NejyErxwz/nOk9Ynjxi82FCmJ8bQ3WsWThWPf77KDUylT425wG6JGvliGWfzwgLUherembH5J7PalwwZcfy1+m/OH0G3Zmd47VNLY4eOnimldLjwqkw1XiOvUYe5QmbJYS6e/tp/cF6amBNWW/f2dHUjrJaEl0QuCAQmLAk6ETjMfrCmw/Sm6devSCA9qcRnU1VtPOJu2nH9+6gfb/8DOGYv/hHBTd+3p/kY4oDkpO27IMq7aE/fI32/+oztPMHH1baJ2iFkuauGVO+EyHR7WyiYPjoxR3j1wJNhPZIHQKLQHHKfJqeMHPETAuiDFJzpLXVZ9x/bDHus7uWp/uMN9qTuIf7zpKJerR1kfiCwIWGwJhe85NsyXTbzLvpeMNRev3Uyy6YZERl0Y2Ft9Le6l307um3neeKk+fRqpyrKD0ynVX0LXS47gC9cOyf7PPT44yDndU5V1NB7JDmY3vVFtpdvd0lDg6sIVb64LQ72Twxm3oGemhbhX9fth+WkVuAJSqOpt/zLda+FFBvJ9v3d71OFe/+zS0WUcyUhZQ4exVF582lYCYS8CWq3fMmVW5+RsWF9ib3uofUPkxhkJn3fpfdbQxzWMPBd51x1Um3fzAXnV73FE255StkjU9zORuVPYuy19xH1VteUOa1lCVryZaUQzChlb/5G2o4tEnFDwoOoawrPkaxUxeSJTKO61jPJrlXqWrri878EmZcSogHk1tr2QEVPtDXS1XcjpxrHqCUhdepNDqBv2WHhEVQ/g2fpaicIq5jLzUcfE9nMWxriYhVWNkzplJImI26GiqplNvRWrrPJW6wxUozPvJtai0/RPX71pNhXptJ/X19VLvzNTr99h9c4s/IMAavbSeaXcLNBzBxzU9dSBgQc6PzqK2nnU40HqVXjj9HDZ31KuoNfD9n8n0dFRajjhekLKIkW5Izm1/tfpKgudSSzfmsnXoTbSxfr3zTLs1cRfl8Tzd2NdJzR/5Gh+sPEJ6HZRkr6KVjz9KZtnKdlO/pOyg+PJF+teenzjC9c0nGSlqYvpSfoQzqYW3dca4nzMVV7RUqyoPzP6dIX3pkljq+ofAWWpm9Wu3XdtTS3w/9UWfl9/YrH5lNuazZ+OFfDtJDt06jzCS70kq8uPE0Pf36CZd8Ytn/6mv3FlNWqp3CQoOpnh3R//z6KVq/s9IlHg4+c8dMWjwzkcLDQqikqp1KKz0TjNCQIPrsnUU0uyCOolmz19LRQ29uq6A/vOpa9rAC/Ai4Nv8G1jY7+HocHBY7lH3jvjR9JjH/oIyICHV+WUICpYfb1P5pRwf97tRJl3Qna9qpr3+AshKMOC4n5UAQEAQmJAJjIkH1nXU0LaFIEZB1Jf/it5QhJ9eVWVfQrKS5tOWMMRCj1auz1zBpuocHhD463VpOCeEJdGXetTSbB4JvvvtVFyfmZHsyZUXnUHhoOEVZY6jWUTOMBOHrwF+55HFKsadSK38ZuKOrg66fektAAAZpgNNuV0sthceksJnoHgqLSqCSV3/mzD8mfx5Nu/MxddzdUkc9nW2KqKQtv3WI2AQFK+KBSEG8DwmNjHU6HYew6Wkk6esynB91eh3fGpuiTGRpy29R5AeOzH3dHcrvCH5NIEHQ8Mx5+BcUFp2okvV0tFB4QiZlX/VvBB+kUy/9RIXbUvPVto2JhVmaT+xSh2HRQ4M9AvwqmweQ4k/+nP2LYpSTORzNUxatNWfv3Ad5m/XxHxpmt8F2RDABhY/U8We+60KegoJCVLvDmFTChys4NEz5LMGMl7J47TASBHMYBqWO7qH701nw4M4D8z9DBXFTqb27lcnIaYqzxtMlmSvpQO0+JwmyhUZQnC2BopgwQawh4ep4MAu+vhgqhyTWFqeegTAm6oXxM9R9jy9YZ0fnKuIDEoSXhTkpC+j9ivdcSNCc5AWUZE8hciNBn1r4CE8UmKXyKmspVc/HkozlTL666c8Hn1KFx4THUggTWrvFro4jLZHOunWzn9dYZEZuLMVHW+m7Dy+kECYkfX39FGmz0IeuyqOTZ1ro/QO1Ktsoxvq3j15KoUx+eth008mYpyVG0OfvKqJENhH9fd2QD9i3H1xAs5jUDPD1bmbzztTMaCrMih5WvTBLMD31nysIeUMcXb2qLrdfkUe5aVH0zd/sHpbGV8A01voE8R/w9ySzk+dShyLBxyg61ELJ4eEqWprN2Dq47UmDYWccxrPpnk+Lo5cwUwz3XhMTtvGKntkoJrDxIinpBQHPCIyJBGHm1TYmOZdkXUazuOPYU71D5Y4OZnH6MtVR76nZqcKsTGZumn6H2v/2pq+zQ2k5hfBg9oWlj1JuTD4tSV9Om89sdNburweNt3l0+Oj4PcmC1CWKAJ1qOk5PbPkvRaIWcth9cw3Ni6c0/oZBC7L3yQeUZsSWmEmz//2nymH69Nt/Yk1Li8omh318IOZBGqQjOneOCse/9oqjtPvHH1PH8K0Jj0ujvT/9d+rvGdIYOCN72IEmJXPV3epMN2twPAkIRN2+t+jUi/+rNELQqERmTVNRsy7/qCJAnbVldPhP/0ndbY2E9hTd/0Nl4qpiLZKjtpQJXryK39Pu6kDb02YcQzPjSXyVDSIGAtTZUEH7/u9hRSpTFlxHOdc+MCyrqR98RBEgaNFK//VzhU/ctCU09bb/oLy1nza0Wm6mAJjpOutO08GnvszaulaVPqHoMpe843kgAjdp5UHJm2QxKQEBgibmv9591BktJSKVOvs6ncd/Pfh7tY+4X1jyKG2q2Eh/PziyVgUE6M1Tr9CzR/+mBvwIJiXQKI1W8IzgeYDG54n3/5vaewytiXaA1vl9h58vyNopN9N1U26ipw/8jvbXjo4o6Lzct63s8/LIT7ZRFU8Bf/zf5tO8afH0wdW5ThL08K3TFQE6zdqQh77/vmrvmsXp9OnbZ9Jda/Lon+tLqJ8JaQ5rlUCAsP/g9zZTRV0HTcuOoe9/apG6XuZykRYEqK6pk77y5A6qbnDQFCZM//OphUqLVJgVQ0fLvWv5zHlh/+r8tWz+KmKCu5f+tP83ztMJNnZonnW/Mo2hL4MpvqG7iz6709BA/3HZJRQeEkKfGTx2JvSwU9PSpUhQXnIE7Srxv24esqII1pLdssQwre1lh2gRQUAQCDwChopiDPm+d+YdlQoqei1T46cTSM/uqh1OM1ceEx1LsIX21exWBAhxoTmCWQAyn504Rytw/IS8eOwZRYCwD7MZtELeJIQ7MZvNxr8ICuV9bwItip6N5eCBtqWEBxEeTeN4hpeWvh5jgAyLNAgEwkGemk8YZFDHG+0WZrNZH/8Ra1F+QQu+9BeypxeqLMre+JXHrHpZA3Xy+R8pAoQIPR1N1Hhki4qbNPcKta1kshNqjycsARAUaqWWU3tUePyM5WprsceqbR+b/szS1zP4puum5dBxfJWdMMsgJKfX/14RIKSp5plx7ksPhLGJLjwpW2nHanb8i53BM1U9u5rrmLQ1KNNYRHKeLtJle+TprysChEBgX7d3ncv5zATDhNHgY7p1d69xHcODw9V9qzPAzMLmriZ9OOZtg6OenjnyV0UIkEkHO/kfbTg06vwuy7lSpfnDvl87CRACKnmW2rbK8ZmB8UzY7Xanxshb5daxCQoECPLKpnK1jY8OU1v8K55iPAs/+fshZ3vf2FrBU967FTkqyjPus6vZTwuy+1iDIkDYP1LWTKc8mMOWzTK0kC9vOk2JvNYTTGI2awgdKzdI4JWLXc3EyCuCTVf4eZKfbP8+Pb2fTcy8jMa3Vj3BGuds1tRNo29e9gTlsBP57/f+kn6xy9CQ6vSRFl7/JzSUTrX551hf02xo3LLiDe2Rzse8DWZNKTC3DZrWzOewDy3Sk/fNVr9F+TG0/WQz/WPrcJOiezo5FgQEgdEjMCZNEIo51XRCmRCKkmYT1P7wiVieaQx+Zl+gRPYfgpx2m1J8pvW0Ck+IMMw16sDPfwkRRudY0XrGJUUlvynDhOZJrGFWiooyzAStbUHU2+E66Os07VXH9a7atlWeZL+feS5+OZXvP09TWIMB01LGZXdTB/vvVG15ngnI+y5pR3sA35yIFGPQ72MTX1djNZUyAXL3jdH5tp0+onddtljrJ8RqtDVv7SddzukDG8gHS6/D6NyDw1w7bZialLhpYYxAIm9l47w2obVXuGLZzX5H0CBpsTExU8JEq+i+/9HBLlvg0VF90iUM0/ZhrvQl9W2Gxi2KF7DzJiA7mO4OH5snrniSYGY6ULuH3ip9gxxsFhmveDO7jDZfmH0hJfzMBVLwTERE2NRLAQbmVh+Ov+tNzuUHThkEEeYqLRFWA+eDg+d0eGV9J0XbwygvPYr2nWik9ETjvjzBpjSzlFW1UT7H0RIcHERhPCsKcu91U3SwyzYr2chLB+IFJypyMGyASSf77ZgF5rd3T6+nLRXvKk00zJMQaH5+vO07ak0yFWD6NyUyUh0daXWtrymKy24sayAhmJHoTSI5T1u4lXp5yn0f+7N197jGhZaspLaD8lmbFM4YFGVFUhz7WzWy6VBEEBAEAouA9xHCj3I2sRlrTd51NCd5Pu2o2kpz2cG0i9+ujzQcdKa2MEGC9LDvgll6+43jsGDjvPncSPuWYGOANvsiIQ2cRb0J94kmcT0ynRhurhpc1C/YMkQSGg5upINsosq+8qNkT52ippNj/RuYwA785ovm7Ea139lYqUxm/ibq9kIE9FR8+DadeM4zuXDUV6hitKktlE1MZsGUfQjWDPIk3spG3CD2p4C4px3gTt8soYNEDe2G1siTtJUN3Uv6PPybRpLKRoMEwT/Dl3yXTUirctbQsswVyjwLE+21BTcoMyuI/nikqbNh1MlDgoc/kqGsSYVYQsJcHLBHnfmwBANOrY0XrutM0TjCCsXMoTwKfIggtkGSBIdpSE+v6zPY2W3EUyf5n3UwHojLz57xTPZLK921M+wbx+twsRWUXHPXuZIyf95ZdC9lDDqP4wzMnI8sfUyZD0ubXa/5lEjjuTjmgyAO5U6UMqgdO1ntSsDMcdAmiDfMsQ7Q91406vGRFZl0Oa8/9FHePvYPzziY85Z9QUAQGB0Cw3vcUaTfdHqDIkHL2JG0i30oYPZ6h8P0Q46s6juNN/Z4diw1Sxw7R0P0DBzzuZH2Gxx1yico1hrrYh6AQ6o36erqpCY2m8BvqYe33gSOv2YJizbq2cUDtVnayg/Swd9+SZnKsNJ0wc2PKPMV0nc1VZujOvfh2BtQ8dKLwu8IBATanMbDm53mMk9ld2MaPkuk1soMRorKKlJ7PR1eTIxeykainpYG5RMEB2azr5FyDB/MH5uOmhLjiPPyNXvMiDS6//2cZxs70kby4GsJYWfdwcHYPZcenp34Bvvt4IfZX5idBYfjVezM740EBZOXEd8tc6YYbiFDh32DswS1szXO4Plxf04QXu+opVR7uvIL0v53CB9JoN3xJV3d3RTUHsyzA4PJ4aY18ZXO0zk4QoPoYIZYk0kLEhdlvLCUD67TVMV+PbMpjpLZWdosKXGuvmcOzq+P18OBM/ZrW84oHyJzfE/7DjgrD0Lu6DRMd+Z4987+hLq29TxT7vvvf5Nun3GPmh326onn6WPF/05fXvYYvVP2Jmm/RKQtjDJeBo61uhMuc85D+9AE4dGo9vGJFmjcenv71HPprgUaysnYe3FntSJB8VG+ybx7OjkWBAQB/xDw3UuOkEd1eyXVtlcrh8IreLVmCIiRWc60lKnDBWlLlEO0Poc3b0hps6upQ5/3tYVDNGRRxjJntLjweJe3O+eJwZ1+fkNEp9/JDo9QQXsT7c+izrOZJrZwidptNWkk4LTsFAzg7EfUWX9aBdnTpzhP6Z0+nroOic4fcpzW587W1jFIMNKW3jysCPjiYOCD1O1Zr7aYMRYWlaj28S950bVqv26vcd55wo+dtgrjjTVloZEHksAxHLPszNJZX67IGhaGRPnuYq6P+zl/jvV3nKalGSYN9zShrHUJHpy5h3Ot3c20rvQ1FS0lMs09OrV1GwMhNAfjlSaHoSXCjCUthQkz9K7L9tDgbKZFqUtdwnGA+95ddD2nxI5cz05+ORgvAUL5NfwpB8jdV+erLf6BEKUO+mZpM9ke9gWCYHq8FkyDn1Vg+AzpMGyr6g1tyn1rh7cjJd5GMJm5C8iPJwKEeIfq9vMyAU/TYxsfYYI7ZKo91nCYHn3nC8pP8Wi9ce/qfLPtxrNexziNJNA6QtOFWWGDXMxrEmAO7EcSbQIL8dDWkdLKeUFAEBgZgXFpgpA9/H9u5rdnOEW3sDNpeUuJS6n1rLWBUzSmn35p2dfpndI3KT2KVby5V6t4r598xRkf66Ng2jAkg/00IAXsxIi1gyDI+3jjEVrPeVxTcD1dlfcBFd7saKSrC9aq/fH+w0AN/5SGQ+/xOkCr1SrOmGFl9kuB43IfzxRrYC1LD8+6iuG1guDrAj8e7ZhsrkcLEyg4OWPRw6aiHQRTUmvZfo9xzenGs3/iuR9Q8UP/R5mX30uRmTN5bZ39FMzkLbZgnqrL3p89yMTtDPV2tbFD906KKZhPsx/4Ca919Bab+PIJmiCY06pNawr5W58z7zxNyfOupsTiK1SSrqY6Sl1y/bDk+IRI2Ru/ptxrH1TT5LEmE2aUwacobvpSpU3a/t3bhqXzN+BvvHjdYzdH0U0LU2j/6eEmNCzlcO/sf1OzvUobTyp/slXZRp3hG+Qu0MhAc4RPUnx60ZfpGDs5Q6PzFi8TgW/cjUZwH0PwcoC0ffxbmnmpxyywlhDWGsInYR5kkxieJ5jGlrLGqqTppHOKvE58vOmo2sUzBo1rOfvjYdKAeRamjhuo7c+fPUr/zVPfr1mWSbE8pb6WSdGVi4zFKg+xn5DWDr2zq4oevGW68hP62SPLaNexelo2K5ksg+Yvc32+98f99OPPL6EbV2bT9JwYOnCqkSLCLVTMhCk9yU6f+cFWOlkx/Lqa8zDvb63cZD502ceMV/c1zxChpL2dUnha/GNFs2lvc5NacuH16kpq7Rluer958PMWL5j8p1wKGeMBNEusrxtjakkmCAgCvhAYNwnCekAgQZD33LRAuuDf7v0/uo8/N4BB557Z96tgfBT1yR0/VG/fOh5mbdw24y59qLYIww8CLRMGD0wR/tHW79CnFn3JSYQwEweLx+m4KsEY/jUd3aYWF9QzszBT7NAfHnXJqbOuXPkBpS8fHKC5l4LmpfSN36iZSi6R+eDM238kzCSLn3GJ+uG8ldcg0oTJ0/fE3PNwOR40pbiEuR2ATMA/qfDO/2Rt1iL101Hgg9M36BCNsKN//SZNu+v/8RT/YkpdbJAVELpDv/8P57IAOi0zI+eutx2YwJDn1Nv/w0mEMJsM09rDeZq+WbB44wBr5nJ5+nzygiHNEWwKTUzOxiMnq9vVV72n8OJ9mDKPTw6Ypbmrkfr5D+tYUbZxBn48b5W+Ti/zYonuArLyk23fp1v5HsVKw3q1YZhQXEgQRq0RBGbgl44/q6azw/wG2Vj2FudZZKwTZEoPJ+3HN36VPj73YfUygRcKCNbdWl/yuimmsXuaHbwxC+q6KTcokgWiBRNQoEmQuZlwev71C0fpvuun0tKiJGedjpW30Nd/uct5jJ1HfrKdnvj0Qsrkr6Ljh3yOM0nF9HeznKxopcd+uZO++pFimsYkCD8tja1dvMaQZ381HWek7abT76iyfcX7Y0kJZbDDdVFsjPoh7pvVhgnZnA7arEsK49mhvo/e5s9bBFLwyQwrO6EHau2hQNZN8hIEJjsCQYUz543cYweolZg+n8xrsGBhurH4ArlXA/49KfY09XaOt/RACdb8icycQd3s26Ony7vnjdWLbYlZhG3bmSMeyY97mvN1HGqLZk1VFpueehQRwcKKngRtiUjJZ5+euhFnX3lKPyyMzYnIb4D9kxxMHEcSLBFgjUvlqf4tyryIqe/jlelsCvvKjVPUF+R/td4wzbrnGcO+ZTHWONZkNlNTl2GucY9zto6xYjX8gGrYtNxlWnXaW3l4hlLtWDG6i2p4dpsL+fKW6ByGY+FILHxojwilw7xOToePj31iwUN8MPXAycYRv4eFBRunZEZRV08/nTjdSm28btFEkqtmJxE+1vv0e2fo9X2B64vQxk9dnUcL8mIUYYOf26/Xl9PuUi++ehMJFKmLIDAJEDinJGgS4CFVvAARuG5uMvuCsdnqYN0F2Dpp0kRAYNnUOMrgtYGe2VrFGrrAvldCy3QlzxAr4IUm45hc/mVzBR1nLaeIICAIjB8BIUHjx1ByEAQEAUFAEBAEBIFJiIAxRWgSVlyqLAgIAoKAICAICAKCwHgQEBI0HvQkrSAgCAgCgoAgIAhMWgSEBE3aSycVFwQEAUFAEBAEBIHxICAkaDzoSVpBQBAQBAQBQUAQmLQICAmatJdOKi4ICAKCgCAgCAgC40FgTCQoPiGBwsNt4ylX0goCgoAgIAgIAoKAIHBeERgTCTqvNZbCBQFBQBAQBAQBQUAQCAACQoICAKJkIQgIAoKAICAICAKTDwEhQV6umfF5gnSyhli9xJDgc40APpOSak+nCIvnr8Kf6/pIeYKAICAICAKTG4EJS4LwTaXi5HmUYEv0C+HosFian7qYFqYtJeyPV26Zdic9tuLbFBnm+lHH8eYr6ceOAL6c/uil36IH53927JlISkFAEBAEBAFBYBCBkISktG+MFg1bRAT19PRQb+/4P3Dprewp8YX08IIvqI+jHqk/6C0aRYXF0BeXPkofnH6nIkHzUhdRSfNJqmw74zXNSCeQ5/1zH6LDXO7b/EVxX1IUE0szYqKpvKODAvvFIF+lBubc5TMT6dPX5NE1c5KpvK6TaluHvsqdGmOlb94+nRblx9KGww3qK+zfv2cmLcyPoXcOuX5k9Nt3TqebF6XSq7trVMUsIcH043uLaOX0eFq33/f3um5dkkYPXZVL7fxhyNI6h8+G9fFX0+3WKL7Oi2hfzR5q7mryGV9OCgKCgCAgCAgCvhCYsJqgbv5KtqO3g9p72nzVn67Mu4Yyo7JpZ+VW+v77j9O33v0aHazb5zPNSCevmXK9ivKvE8+PFJU+P306fbpwGn/hebJRIKKUWCvF2S3qd8+KDJe2RoUb4ZkJ4SrcEhpMkdZQSmZy5C7J/IVvnNPCHIiiwkMpKSpMB3ndpsSEq7TRNovXOOYTb558RR3eNO12c7DsCwKCgCAgCAgCo0ZgaOQaddKzm+BE4zH6wpsPjlhIWmS6ivP8sX9QbUf1iPFHimCz2OmyrMupwVFPRxsO+4weHhJC8WFhVNY++bRA7g1Ljwun/BQ7nZzgX6du7GygA3V7qSixmNIjM6hiHBo/dwzkWBAQBAQBQeDiQmDCkaDVOVdTQewU51XYXrWFdldvdx5jJ8mWTLfNvFuFTY2brrYfKrqXevt71P6Lx56l8pYStT/af7kxeRQcFEIHavd4TfrRvALKsNkoymLAlxRupf+YOUvFhz7oe4cOUO8k0gy1sSkKmpx7lqfT488cU+0ICvLa/PN+4mCNQYKmJcwSEnTer4ZUQBAQBASByYvAhCNByfZkyorOofDQcIqyxlCto2YYCQoJDqU4W4JC3RJimFFiw+MIPiMQG6cdq6RHZqmkVe1VXrPItdspljVAaTajHEdfHyWFG/vtvewrNQoChNlnSzNWeC1Ln9hQto6mxk+jtMhMHeRxW9J8ikqbT3g85y3wVI2DMuKslJ9sp4z4cDrT0Okt6oQIr+qoVPXIjDKu1YSolFRCEBAEBAFBYNIhMOFI0F8P/kGBOCNxFn1q4SMeAa1qr6D/evdRde7Ti75M0xNm0hPv/zf7D7V6jD+aQD2wVrV7d6z+xv69KstHZsykSxIT6fH9+6m03bfvkrc62ELtdMfMD3s77QzfUL6OVrCZbkHaEmeYp511Jf8aNQlCPn/fUkn/fkUO3b08g7734uhIlKd6nM2w6rZBEhSdfTaLkbwFAUFAEBAELnAEAkKCwsOsFMKmoe7ubjVrzBtmVtaehFrCqIfjdfcMzUTyFj+Q4aGhoRTGZcOBGWX3sfbGk6QO+hg1dPie1YS0UyMjVRblHe2esnIJs3LZodx+97a3dDfTD7b8t0tcTweo9wtH/0HvsEbIl8CXySwWvi5hFqtqL9rd399vPu3c33yske5iAjQzI4oS/XBodiY8DzvwC4IkRiSdh9KlSEFAEBAEBIELBYFxk6BwazjFxEQpPNqDgr2SICsTpdhYY82djuDgc06Cwrj8qMgIVc+W1nZyODo8XsMmHmBz2C8o0hpN1R3eTWIWbgNMYBUdDur3w/xlZdOZjX2HBuw2ampsdra/n014xxuPeKyLeyBMg/iNRqxh4WTnMiEtLW3k6PQ+Df3ZrVX0kZWZ9KFLMui1PbWjKeacxtWLJbZ0tZzTcqUwQUAQEAQEgQsLgXGTIFc4fE8Tx1nD39Z3PNc8A3XkX5mnW8toTsoCXpk4jU40HvVaeK7d0AIdbfNzIB4sfsBNExPGPkGXZq1mXHx7Ir/FZq6p8dPZXyrXa51w4mTTMTrVdNwZx7XVrkfOSIM76w/W0e3L0mh+bgxBM2SWnl5DgxTsw2Pad+7m3Ma3nxqZqjKoaC0fX0aSWhAQBAQBQeCiRmDcJKizq5P6GvsoNCSUetgp2Jt0dXdRY2MjhYZazuoii17L7+oN0+vEAABAAElEQVSifjaBwazU42ORxzOtp1UW2izmLb+pkYb262iLf35InayBQbk9bJIyLzIZwT5Bt07/kLdinOFvlf6LfYJW++UTZCZBXXx9+vt62RzW79Q+OTN12wGJeXFHNd22NJ0+uNAgGjpKV69BcYI9cDVfxEinD+Q2hT+dAQFhFREEBAFBQBAQBMaKwLhJEArG6tH4jSQ9PSABZ2+VaV/lwwfImx+QOV0przYNyTdN0zef1/tZgyamWiYZ/kg38PGAUUt3E3138+M8Ld93LiBvzx75K71V+prPiI0OVw0OCJeZdPlMzCf/tbdWrf6czrPEzIIVnWH1C7eEEBY2bHEY1xuzyaAc6uzx7GNlziNQ+/ranGqa2A7cgWqv5CMICAKCgCBwdhAICAkKVNXiwxOVKQr5ZfBCeJCCuELC2kEQrP3jr/+MSjCGf+bF+LAekTcfnJI2w6fo4wVTaHp0La9u3Uc7Gxvo1ChnifUP9Ps9m6uhs57wO5vS1z+giNDaeSnDitl8tJEumRZH37trOr17hLV6zNwu5WPIa0ye3CWUl45+9Kap7sG8lMEAffv5IZMdIlw5m6999vDvtL19qJ7LGvpMBz5suzRjuVrM8nD9gWF5S4AgIAgIAoKAIOAvAhOKBE1hwnPbjLtc6o4w/CCbTm/wSoL6yfOsJ5fM/Dx4/sg/1IrEa/I/QE8f+K3HVG/VVNEynh4/KzaGbsnKUnFquztHTYI8Zn6OAg0D1/DCYBK7lr8nFuKmnnpqYzlF2kKomMnKlbOGPmwLcvTctiEncmiMtExJtetdj1touCAxrF3Cz11K+HtiZhK0PHOVWszyuaN/c48qx4KAICAICAKCwKgQCCqcOc80ZPmXNj4hgTr4UxHwc7lQ5XOLv8paqKn0xXUPU2fvhdvOsVw/G5vEYAZjpREvrOigrkGn6bHkNZo0cB7/zuof84dqB+ir6z+rtqNJL3EFAUFAEBAEBAEzAhNKE2Su2Pne//OB31Fx8jwKDwkXEuR2MRzs/3P8PHxjLNwSQetKXqNjvKQAiJCIICAICAKCgCAwHgREEzQe9CStICAICAKCgCAgCExaBIInbc2l4oKAICAICAKCgCAgCIwDASFB4wBPkgoCgoAgIAgIAoLA5EVASNDkvXZSc0FAEBAEBAFBQBAYBwJCgsYBniQVBAQBQUAQEAQEgcmLgJCgyXvtpOaCgCAgCAgCgoAgMA4EJgwJwtpD4eHG187H0R5JKggIAoKAICAICAKCgF8ITBgS5FdtJZIgIAgIAoKAICAICAIBQkBIUICAlGwEAUFAEBAEBAFBYHIhICRocl0vqa0gIAgIAoKAICAIBAgBIUEBAlKyEQQEAUFAEBAEBIHJhYCQoHFcr4WpS2hG4qxx5CBJBQFBQBAQBAQBQeB8ISAkaBzI3zf3Ibp9xofHkYMkFQQEAUFAEBAEBIHzhYCQoPOFvJQrCAgCgoAgIAgIAucVgdDzWvo5Kjw7Oo/WTr2JNpavp/6Bfro0cxXlx06hxq5Geu7I3+hw/QFVk+CgYFqTdx0VJ8+jRFsS1XTU0Mayt2hr5SZnTRewCWxJxiXO46SIJHpoweecxy8ff4FKm0+o42vyr6fs6Fz69Z4nqW+gT4WFBlvo/jkPUllLCb164gVnOuzcOv0uirHG0tMHf0dX539A1SM8JJwO1u6jvxz6A/X299C1BTdSTkwu/fPQn7lNH6Sp8dOovbedXjvxEm2vfN8lPxzMmbuAFixcrMI3vLOOjh87OiyOBAgCgoAgIAgIAhcjAhcFCYq1xdGspLkUFmKlwvgZTIT6qKWrWRGUZRkrFAkKCQqhL1/yDcqMylb3QW17NRXETVW/1Kh0euHoP1S4hUlMnC3B5V4xH1uChyAtSpqj0ofut1Bfr0GCQoJDaE7KAooJjxtGgmZzHZPsKRRtjWFyM51auY6hIRa6JOsyeuHYM9TS3UQzE2erPHHeFhpB7d2tlBGZRfcxsarhOpe1nHKpW1ZWFqVnZKiwxMQkIUEu6MiBICAICAKCwMWMwNCIfRGgAAL05qlX6Nmjf6OBgQGKsEQy6clSLb8y71pFgI41HKZf7voptfW0UIItkb6y7BsEjc7m8g1U66ih9yveVT8kevKa31FtRy3917uPBhS99MgMenzjV6mqvULlW5RUTF19DpcyQHie3PFDau1uplumf4iuyL2GlmdeRmUHXUmQSyI5EAQEAUFAEBAEBAEnAgHxCQq3Wslut5PFYnFm7GnHGoZ4kRQ2QrwwS9hgvDBP2biEWUJDKSLCTjZrOAUH+25Og6OenjnyV0WAkElHTxsdbTik8rss+wq1XV/6BkWGRVKqPZ0swWG0q3q7CodW51zJ0wd+7yRAKPNA7V4mQV0uxb9T+qYiQAjcVmGYwRLZNOcupSUlVFpySv1qaqrdT8uxICAICAKCgCBw0SIwbk0QyEd0TJQCsD0oiHp6ejyCCaIUExOtznUEB1G3l3jWsDCKjY1R8RwhwRyv22N+OjCMy4+0G98ca2lpI0enq8ZEx8NW+/6Yw7AfxPWODY9XwZ+Y9yn30+o4JTLVY/jZCDzScHDEbA/XD8Wp7qhU8W2WiGHp9u3bTfiJCAKCgCAgCAgCgoArAuMmQQOu+Xk9YuvTkJj3h0KNPT7Xz5GDmZi4pHGP5zz2lZkzktpp6mxwDRg8CgkyYOhhx+P/2/kjj3EaOuo8ho82MJiCRkwCDdVI4ujrGCmKnBcEBAFBQBAQBAQBHwiMmwR1dnVSX2MfO/CGUk+vZy0Qyu/q7qKGxiYKZfNVb2+v1yp1seankeNZ2CTW6yM/nUEXl9/f10d9ff0jao0GyDNhwqwrR2+HcjSGtgj+Qv6KL1IDB2xIJPsedfV2qv2cmDy1PVf/IiOjKSMzUxVXy+awhob6c1W0lCMICAKCgCAgCExoBHw70fhZdZjAYIbyRW6QlYrncHg1menikI/D0TFiPMTv5VlXjs7OEQmQztvbFg7RkEsyVg6LYrdEKZOZ+wkQG8zmwowxT9LU2aiC4ZCtZRZPvz+XUjx3Lt12x13qt3jp0NT+c1kHKUsQEAQEAUFAEJiICIxbEzQRGzWWOv3t4B95XZ75dPes+3gdnnw61XScsEbPdP4sxuzkufTo21+ghk5Xk9ip5pM0PWEmfXX547S7egd1MinaVblVzSJDHQ7V7adF6ct4Vel7KDUynbJ4zSDEP5cCfycRQUAQEAQEAUFAEBiOQEA0QcOznWAhfpi3Gjrr1VT36vYqujRrFX149sfptpn3KAJUwmSn022KOlr4x32/oj1MfpIjUtQ0+psKb6P0aGPKPc5vrdysZp9ZQ8PVIoyFvLDh0/ufwik2ufWrbSD/ecozMWFoxljFmTOBLE7yEgQEAUFAEBAEJjUCQYUz5/nvADPY1PiEBOpo76BOHzOxRovK2chztHXQ8W0Wu1oxuq+/l+odtcOmp+t4/m7jwxPZ38hGle1n1IrV/qYLRLzPfv7LFBkVxdernX7wP98ORJaShyAgCAgCgoAgcEEgIOYwD5fR0dNO5fwLlLib0QKV70j5WMN4+QAmQJDXXn15pOhyXhAQBAQBQUAQuKgQEBJ0AV9uC6+59N7Gd5TT+IEDey/glkrTBAFBQBAQBASB0SMgJGj0mE2aFG1tLbT+rTcmTX2looKAICAICAKCwLlE4OJwjD6XiEpZgoAgIAgIAoKAIDApEBASNCkuk1RSEBAEBAFBQBAQBAKNgJCgQCMq+QkCgoAgIAgIAoLApEBASNCkuExSSUFAEBAEBAFBQBAINAJCggKNqOQnCAgCgoAgIAgIApMCASFBk+IySSUFAUFAEBAEBAFBINAICAkKNKKSnyAgCAgCgoAgIAhMCgSEBE2KyySVFAQEAUFAEBAEBIFAIyAkKNCISn6CgCAgCAgCgoAgMCkQEBI0KS6TVFIQEAQEAUFAEBAEAo2AkKBAIyr5CQKCgCAgCAgCgsCkQEBI0KS4TFJJQUAQEAQEAUFAEAg0AkKCAo2o5CcICAKCgCAgCAgCkwIBIUGT4jJJJQUBQUAQEAQEAUEg0AgICQo0opKfICAICAKCgCAgCEwKBIQETYrLJJUUBAQBQUAQEAQEgUAjICQo0IhKfoKAICAICAKCgCAwKRAQEjQpLpNUUhAQBAQBQUAQEAQCjYCQoEAjKvkJAoKAICAICAKCwKRAQEjQpLhMUklBQBAQBAQBQUAQCDQCQoICjajkJwgIAoKAICAICAKTAgEhQZPiMkklBQFBQBAQBAQBQSDQCAgJCjSikp8gIAgIAoKAICAITAoEhARNissklRQEBAFBQBAQBASBQCMgJCjQiEp+goAgIAgIAoKAIDApEBASNCkuk1RSEBAEBAFBQBAQBAKNgJCgQCMq+QkCgoAgIAgIAoLApEBASNCkuExSSUFAEBAEBAFBQBAINAJCggKNqOQnCAgCgoAgIAgIApMCgdCJUsuG+vqJUhWphyAgCAgCgoAgIAhcBAiIJugiuMjSREFAEBAEBAFBQBAYjoCQoOGYSIggIAgIAoKAICAIXAQICAm6CC7yZGpiVFgMpdrTx11l5JMSkTrufCQDQUAQEAQEgQsXgQuCBMUULKD4mcsDd5WCgihx9mqKyp4VuDwv0JxCLDZKWXhdwLD60tL/pC8s+RoF8d94ZEX2avr6yu9SXmzBeLKRtIKAICAICAIXMAITxjF6PBjnXf8pCouMp60HbxhPNs60QUHBlH/j56iruYb2/OTjznD3nZQF11GPo5kaDr7nfkodz/30byjYYnWe621vpvpD71Hdnjepq6naGT6WndjCxWSNSaaaHa/QQH+/SxbFDzxJwVYbOWpK6cifv+FyLv+Gz1B03lwqfe0X1Hh4s8u5sRxYImMp55oHqL3iKB34zRfHkoUzTXHKfEqISKJnjvyFBvjPm0RaLDQ/Lo7K2zvoVHubx2jvlK6jtVNuppsKb6cfbv22xzgSKAgIAoKAIHBxI3BBaIJ6Wxupv6crgFdyQOXX297kM8+cax9QBMBbpLCoBAq1RRmnWbsUnphJGSvuoDmf/CUlL7jWWzK/wrPX3E85V3+CgkIsw+KHJ2QQyo4pmM8amiKX8/bUAnUuLDLOJXwiHNxceAf1D/TRxvL1PqsDAvS5adNpYXyC13jtPa20rWIzTY2fTpnROV7jyQlBQBAQBASBixeBC0ITtP/XnwvoFYRmZft3bwtYnjufuFvlFRQSSpmrP0JpS2+irMvvZS3OqwErw1tGOVd9gvb/6jPeTk+Y8OkJRZRiT6V3mQB19Xb6rFdhlEEsj7e1+Iz32smXaFH6Mrpx6q300x1P+IwrJwUBQUAQEAQuPgQmDAlKLL6CUhZ9gKo2P0f1Bze4XImURWspsfhyKn/r99Ryarc6Z41NofwbPusS79Dvv+pyrA9ipixkH59VygwUzESkp7WBatkkVbn5GR1FbeFXlLJwrTOso/qUMhs5A3gHGpykuWucQRZbNBXd/wPncfm6p6ilZK/z2Lwz0NfL7XtGkaAQa4T5FGt0QimJMUAd7OmFbOLqo67GSjqz4S/UdHy7imtPm0K51z2k9mEKg8y897s0MGCYwxoOvuvSpl5HK0Wk5lFESgF1VJ9Q8Yk1Up4EPlBpy26mMM63r6uDWkr3UckrTw7TsCXMXMnarNvJEpNEnfVn1PXylB/CkuZexXh+gKxxKdTX7aDmEzup5NWfEXBwl6KkYhV0oG6f+yl1nGePpLtyctX+jJhotb0jO4euS8tQ++/W1dA7NTVqX/+raDtNPf09VJgwQwd53M6Zu4AWLFyszm14Zx0dP3bUYzwJFAQEAUFAELiwEJgw5jBHXTlhkM+47M5hCGes/JA611l32nkuxGpn81KW+kVlzRxm9tERY/Ln0bQ7H6OEopU00NtNPWzissanUdryW3UU5xZ+Rc482YwEvxt3gY+PhU1J+GnRx9iafYD0eb21JedS3vWGVqaj6pQOVtvsK++j3A88TFE5s1UdQRpAhpLnm8xm7Kuky4LfEiSUfXJ0WIg2vakzRGfe/pPay7nGu18TImSsvFv5QNmScqi3s02Z8ECK5nzqVxQUHDKYm0FqCj74RQpPyiYQLBtvcexJptz8COWt/aQiYf1MemCeA3ksfuj/yBMRy4jKUtnUtFd5yo6Swq38C1c/e2go9Q0MUDiI42BYLx97kpqOKrIEW8huGTRLeoiUlZVF6RkZ6peYmOQhhgQJAoKAICAIXIgITBhNEBxrMQCHJ2SSxR6riAAAhxYDfjWdrBXpbq1zXoOO6pO06wf3qOO5n31KOUY7T5p2cth3BnL8me86HZihdYnOnWOKZexWbX2R8MPAv+hrzw47j4Cq959TP+wvfvQFdoxuod0//hgOvcri/3jeODeohemsP03H//kdl/jQmLBKh3b/6KPU09GszlkiYpUWRUcERrqs4od/TuFxabT3p/8+TFuj4zce2UzpK++gqKwiCo9Pp86GCn3KuQ0Ji6D0Sw1CePCpL1HbmSNKKzX7gZ+q/FOX3MDaJcaC6569xmjn0b88rrRTmBlW/KlfkiXC0MzoTKNziym+aIWq18HffYU6qk5QaHgUzfjwt8iWkkepS250YqjTpEcaGp3aDs8O41t5RXH8kqzh9IvFi2l/UzN9Y79njZvOE9vq1krKiMyijKgMOtpw2HxK9gUBQUAQEAQucgQCogmy2Wxkt9vJGjY0E8oTrrZw3/Hq97+jkiXzrCstqUsM81Ttztd00Ki2fT2dKj60PFpgjmk+sUMfnvVte+UxJgInlUkIhcHkFJ0/d6hcJhgwf4FohJoIRU9HkyIlQxFHv3f6rT+oRNlX/ZvHxNH5cxTpA8ECAYIAn/I3f6P2Yf6C2JicQvvW3VrvNM/19Tio8r2/q/Pmf2lLb1aHTccZY1bQRMAZOzZZmSBxImHmpeboaj/aGqt8gXr7h5vKzJGnDvoDHW317Q+k09Q6DBNZij1NBw3blpaUUGkJmz75V1PjmYQNSyQBgoAgIAgIApMegXFrgkB8oqMiFRAdjk7q6u7yCEqYJYyio414js4uj/Gqt7ygfEgS51zOvjBPq3zipl+itjVjJEGV7z9PUz74CIEEZFx2N/vGnKKqLc9T45H3PdbzbASap47DJDbr4z+k3GsfpJaTu5WGCxqgBp46nzDrMoIGBpqgtrJDdJoxcNSUjKtKtXvXcdvvp9gpC5RJyj0zkBtIe3WJ2up/bacNQmSJNsgjZpxBOtlsaZa2imPmQ7VvTTTixs+4hPBzl7DYVPcgcvR2kC00gnkgE0Ivpi0kKowytE7+kqBoXjQR0tTVqLae/u3bt5vwExEEBAFBQBC4uBAYNwlSr/qDmPkYuziGyWfDtGuGW5m8WurU+jdw/A1j59uQMBu1Vx5nZ912c1S/9xsObqSDrL3IvvKjZE+donyHMG08EOva+F0JU0SQmpZTe9T09djCRUzIXlBnTzz3BDtU76O0Sz6ozFBx05cSfhXv/p1Ov21oc0zZ+L/LF+XMhj+zKevjjMF9w9IFW8JVmPsSA/093SpcT8HX8Qb6WGNlEvd0OBUyuDZS2Ru/djFh6mS9juHXspp9gXJj8inOmkANnUNmT51Gb50zw1o9rw+k4+ltGpvBIGdaTusg2QoCgoAgIAgIAgqBcZOgru5uam5uZZNKMPX1ejdldPf0cLwWCmZ/mz4Ps4P09ajd9QZrbD5EyTwjzMokCFK97WV9ekzbtvKDdPC3X1Lmpvjpy6iAnXbhdIwZZuNdtJAzHXWdgkONtX0sJhMdMqnd/br6wdcmlafRA4eUxWt9kqCgoJARywd+mas+zDPPLqWullqX+NpPKJyxMIuV/Y0gvW1Naqvjudc5PH64VqerkZ2R7XHkqC2j5pO7VPqR/pU3lyoSlBKZ6pME5UbaycFErGmQpI2Ub5ItSa091NhZ7zVqZGQ0ZWQaGrFaNoc1NHiP6zUTOSEICAKCgCAw6RAIiE9QZ1cnORwd1D3CwNTZ1UUdHA/EyZtgBWRIYvFqip26SPnK1B8wfIW8pfEVDsdfpyiz0yae2m1oBezpU5ynxrID3xk4BfuaEeaeL+qjP8fRyuRMC4iPFvjaVGz6u2o7NGFw5HaXPp6dBYFPz0gCf6PKTc8oEqin1us07RWG2Qs+SuZytC9WOzs1Qxy1pazMG2BH9VzlG6TTJ8+7Wu86t80nDOKTzlPp3QVYwUnaXU41HVdBebHer4ktJITwa+zyfv+Y88X3w+xhUVTZXuFzBeriuXPptjvuUr/FS4eb78x5yr4gIAgIAoLAhYPA8NH1PLcN/jAwGcF3BgJNgqd1ZbBeD6ZdQ0LZYReSueoetcW/CnbYhamm+JO/oD6ewdXAn4joaWukGP5kBKaCYy2cxiNbnPGDQ8PYFHUba7RYs8N+KRDMStN5Ymp99baXnPGxAzKFes7hMpqObVd51u5+0yAMppjT7/mWUhhZePDH9HLkjzY2Hd2qYoVaI2n+I09TK6/N08zrIGGxxkT2D8IstZbSvR7b31J2UGmzCm78PDUV7aBu1vC0lu13aZOpCjzD6588C4zb50aoHLzsAEyD0Ixh+nrN9leY6OSzf5LhEF2+7ncqG2BZz6ZFLDVQ/NCTg/EK1NpL5nKwD+xTeFYZZqXN/sT/qnQAIDJ9GsVMmc9T9//IJO+fLsm2V71Pd8z8MK3OvpJePfG8R7+gLsalnbWN6RE2+lThNKp0OKiTtUIvVZxxyUsfrM65Uu2+eswwOepw9y38kEQEAUFAEBAELj4EJhwJwiWo2fEvwicpINU8Zd2TZF3xUeUvZD6XfumQ5gGEBQM3HHnhA5S+/DYjKmszQEBK3/iNC7mwRMTwejl3mLNT+es84ZPkToKO/eM7vGDjZygyY7pzAUV8r0tpTUw5Ycq4Ei4b6/80HdtGZa//2hkDmhqsu4M1gvCDgPi1lh2gk88+4Yxn3gGRwIw3s/OxNSbFhQSZvynWz2skVW9/WU1PN+eD/SN/+gZNu+dxtRYTcIUgPtpnXpbg5As/UsQTeMLJHIIFGmFmMwvas+9nD1HhHY8qcpU5SGgRp6ejhdp5ppy7YFbYS8efo1um30lzkxfRrmqDIJrj9TN+Pzt+jD6eX0CXp6SoUw2sVfREgkLYTLg65ypq6mzgvLaZsxm2n5hgmF1xouKMZ0I1LJEECAKCgCAgCEx6BIIKZ87z4qbsvW3xCQnUwR+v7Ox0eI80gc7ABGPjhRWxxTRwT5qliVBdEDErz8Lq5xl2zhWez2HFMAUe5i5ozLQPkKfidT0dvOAjTHe+BJhHgASxVquL1ymCRs2bYFHD/7nyZ1TVVkHf3vSYt2h+hS9JX073Fn+Cntrzc9pauclnms9+/ssUyVPvO9rb6Qf/822fceWkICAICAKCwIWDwITUBAUaXmiEMMNsogtMgXqhxPNRV2i7oH0aSUZTT2Cv1x8aMV/+xMXPdvyQFzbMZuMZT5U3zygcKbHb+faeNvrn4b/QtqrNbmdcD61h4YoAIfS1V8fngO+asxwJAoKAICAITHQELgpN0ES/CFK/84cAZoYtWrxEOfW/t/Gd81cRKVkQEAQEAUHgnCNwUWiCzjmqUuCkQaCNv0S//q03Jk19paKCgCAgCAgCgUMgIFPkA1cdyUkQEAQEAUFAEBAEBIFzg4CQoHODs5QiCAgCgoAgIAgIAhMMASFBE+yCSHUEAUFAEBAEBAFB4NwgICTo3OAspQgCgoAgIAgIAoLABENASNAEuyBSHUFAEBAEBAFBQBA4NwgICTo3OEspgoAgIAgIAoKAIDDBEBASNMEuiFRHEBAEBAFBQBAQBM4NAkKCzg3OF3UpWP051Z5OkZboixqH8TQ+KiyGUiJSx5OFpBUEBAFBQBBwQ2BCkaDYwsWEr8Prr7i71fWiOQwKPnuXJXHWKv4S/GXnFMs5KQvosRXfpuKUeee03JEKszDOV6WmufxsISEjJRvVeXyhvigmllYkJdPcuLhRpTVHXpG9mr6+8ruUF1tgDpZ9QUAQEAQEgXEgMKFWjM5ecz+Fx6VR3d631Bfgx9GuYUlTFlxHPY5m/ur5e8POISB18fWUvuJO57kB/mJ5T0s9tZTupdP8xXZ8A+tsShB/YLTg5i9STMF89fV6fMernuta8vL/F9Bicz/wMKGs+gPn7hMRNxfeTj38XbCtFZ6x1w3MsEVQQVQk7W/i68QfkT3bEs6E58GpU12KOdzSQmUd7S5hYz24IT2T7s7LpbBBUlvf1UUf37rFJbvMCDvlR9ppX2MTNfZ0u5wzH7xTuo7WTrmZbmIsf7hVPvJqxkb2BQFBQBAYKwJnT+Uw1hqdpXQ51z5AOdc84DX3sJhkCrVFKQKCSKHWCIpIzaPUJTfSvM8+pb5A7zVxAE4U3fcExc9YrghKR+UJCg61UvK8q6jwjv8MQO7nL4tZSXMpyZ5Cb5W8Rr39vT4rcktWFn1u2nRKtFp9xgvUydaeHrpz03vqt6GmJlDZqnxAfD5WkK/2nzh8iD69Ywc9unfvsDIuTUxSbc5n8udL2ntaaVvFZpoaP50yo3N8RZVzgoAgIAgIAn4icNGQID/xoNrdb9DOJ+6mbd+5hY785XEa6OulEKudMld/xN8sRh3Pnl7IhCtfaZt2//g+2v/rz9Henz1IA/19FDt1EVmjk0ad50RJcOO0W1VV3ip5fcQqTYsyfIZK2ttGjBuoCF19fYRf/zi+WO+pLknWcBW8u7GR3q2tpXLWLlV1OjxF9TvstZMvqbg3TjUw9TuhRBQEBAFBQBDwiMCEMofpGkbnFlPmZfeQNT6VupuqqXz9H6jp2DZ9Wm2DQkIpqfgKip+5nEAiQBi6GivpzIa/UNPx7SoO/IuS5q5xprPYoqno/h84j8vXPUUtJcPfzlUENoc1cz71BzdS4uzVFJU1w5kOO6lLb2LfmpV08vkfcB0u4/3lZIlKoK76CjrBYY66chXfEhFLudc9RPaMqUrL1NVQSaVv/oZaS/c580vjvCD1BzZQr6NF7Xdxu1tO7VHmsRQ21ZVxGi1R2bMoe819VL3lBW53P6UsWUu2pBxO20rlHK/h0CYVFWF5ax8mW2I29bQ3UeWmZ3QWw7bAMHvNx1RcnOyoOk4nX/hf6m6td4nrb9lIFBocShmRWVTfUUut3c0u+eiD1SkpdEmCQfLSI2wq+JHpM/Vp+lNpCY2GFN13/wN0/NhR2vL+Jurq7nTmE4idpYmJdFVKGuWw+aq1p5e21tfTX8tKqI/vFS23ZeVQYVQURVmMRwv7/zFzljpd4XDQb0+dUPtf47Ag3suxR6jju3Py6JrUdLVfzWTp/2/vTKDjqK68f7X1IrVau1q7rN2LvMgytvGC8fkwMdjgYMYOwyTfl7AkJHgGmMA3yRfmy5lzyAyZj8VwwgEmCyQOHCYmxjETVmMbY4M3GYHxpn1p7bvU6k3bd+8rVbm61S21NqbVuvec7nr16tWrV7821F/33vfqN1VSO1Ex+tVoMYuwYn6c679FdRsqL19RDMWrVovq4x9/JHi4t+F9JsAEmAATwOeUP0LI3/04DA86YcDaA/rEBSIkVL7/X6Hr6illuBk33QOm67ZL4gcFA4kiepAnrrxFEUHBYVoIM7gmo6r36fhENuSQ/noPCnJNmI1MWwQRybmQs+PHEJ6cI8ZLXiMqR+UUCRFEIqTwvmfF2AAflENOqzi+6Du/gIoDv1Tyk/TxaWIYPVXnXYbTWyOJIH2ia/hDG20S105ef6cQP3LfWgzpJa7cKkQQ9Vl4/14RXhvo7xKhvqzte0T/NE61Jay4GcWSdIxynyhnyJhVBMv3/Bq+fOEH4OhtU5r7cm25sSkiWRSb+5vkqjHbZF04JOh0EDUqGmzolaF92ey4PxlLSEyElLQ02HjjZqiproKTJ47jdqygmEyf1Pa+7BzYlpoqTmuy2YV4IQGzEpOdHys9r/iRojQoznH8uhDJyarFvCP5fpwjw8plYzUaFInBOGMuTNQZ8f6DMYmazIGC3pu1WpuFsIwIiwQKkXmydAwrpoyONR7DbSQK2ZgAE2ACTGAsAb8UQfbuZrjw0oMiFCU/oDO3/sBFBJlWbQN6+Jfu/a4QS3Rr5HXRxpiUu2w+dRDoQ7b68UOYGN0Lpc99Tzk+UYFERfyyzaKZtbXKY3MSPVWHnsNk7o/EcRJGsuXtfEwIoLYvDkPtey+LcFdMwRrI2/UzFB3/IHls8B5CI6LEKQOWbvlUl31NRLRLvbxDIqv9whGofvt54RGi+zekF4jDGVvuE2Km9fP3Mbn6BVFXcNfPISq3WD5dbEM04bAA86XIKg8+Ax1fHRNjpvNNq26FrB0PwZV9j4vj6q/xri23SzFI4q65v1GuGrN9vbYa6HOTKQkezM+H/6ythb80mMe087Xi+b1PwZo162DlqusgC4ULfewoWkrOnoZTn50Em93qa1dKuzwM05EA6sUcop998QWYbVbQh4bCP6HHanlMNNyI3qyjLS2i/W8qJcGVFWGAZ1auhJMYCnvBgwh5FIUT2V0ZC+BbmRnwYkU5lHR2irrxvlr6moQISo1MhbLOK+M15WNMgAkwASYwAYEZEUF6vR6C8a/aQQwROMaZ1aPXYTv8C3miduajfxQCiMbeVvqBCP1oMNREuTk0a4qm0FP4i7w/oeFGRQQNWLux7CokJrj/MYfjCm8AQ2oBhBnjUFRJ4oSuZT7yhzFtqYLCdLIAov3+pgragAY9ULqEDCHUWkveA10sCgL8Q9/R0w5OSycej4XwxCywtlRh0rXk+Ri0472pbMgpeaGCdRGq2mvFQbsFw3F7lQq6966rp8V+ZKYUgqn/8BXleM17LwnvjlKBhfilNwqOFPaytdVjbpI0Bbvjq4+FCIpMuxaaUp833rXldkkGKbzTjuGwiazAaBRNyvvG5gMZDEbIy5fEnbd+BlGgXLhQCjYUKMeOHRaflORUuH79RshfuAjW37BJfOrrauHggf3Q0+P7v5NvJCeJy5KgocBXGs5iIzva2ixE0PUYzpNFkDgwi19ttlbRO3nZvImg2poaiImNE+1aWyVxNotD4q6ZABNgAnOWwLRFkFajBePozBYr/sXtTQRpwjRgNBoEKJvd4bUdNehvdHXfU16Q3pQFurhU6Rh6Tzovn4S4wk2w9IEXhAiy1F0G8/HXwdZaI64x1S8SWuF4rREMXVCOTX9DGdS8+yIKly6PXXaXn/NYrx8VEyTYltzzlMc2dB0SQcODAyJfKESjd2lHM8TIRrzktljMV13ayzsUzgoO1WD4zSZCcHI95RmR90xtepwBR0Yis/D+Z9WHRJmEJnmLKJSnNm/XVrfptkueDaNWEjjqY+5l8raQVfePDfFQaGfbbTvcT3HZH8bcKBJBamtsaoA/v/kGhGHIafdd3xZeofSMTEhNTZuUCMrEaexkt6SkiI/6GlROC5dEkXv9bOwbcdFEsm6H53+PdIw4uLOgejYmwASYABNwJTBtEYRPVaVHt+erUi8VrrVTneLWRtp1X5OHkn/JQjTXckUqDz6NSc0XIHndTrG2UMzCtUCfxhP7cV2ffVJHU/huLXlXiB5fT3X0SH+Zu7cPRTFFZsdkbfNRz14kS90l0WbI2oteJyN6tSLFvvwl7zu9eLecqlwd+RzaknARpspBkSpIA13LS6G6UBQ4ZCQqOy+fEGX3r+HBsWv2eLu2+tyGPik5nFaLHs/QQYZCQo9rAzmBcoLcrbGhAd75r0Pu1S77Dg8zr9IzFqAnaAPk5uYLTyWt/VSNCcf1ZmlcLh2Ms6Mb5fl82VXowjG6m3Vw7Jjd28zUfjKGwcgaes0z1SX3wwSYABOYtwSmLYIc+FDo6enD/JNgGBoc9ArSieGKnp5efBiFwJBbYq77SVpcMJFmM8km58zYOxrkKrGlUBl9QsL0YrZW6qa/BdPq7eOIIHrczrC5iQq5d6vskSKvlZcFGuW2zr420GEiswGTrbvLzsjVuL9QlB3dnoWWu1dHPpFEJIXw5DCbXE/eIfISqROjrW21EAsbkbf3hSTl81224yte0bTJIv1eptGwmMv5qp0UDC+FoMes0kMojJpZLL1wvuQaF9WpY4qRxihYe/06WL68GHR6STT3Wyxw9swpOHv6M68eSOeo0NbLAlLVc4OtX4i0RqsdrvZ5nuWmaj6lIt2/L5agT4DhkSHosrvO2lOfS+HDVEwOJ2vDcFhnp/e26vO4zASYABOYbwRmZJ0gu8MucjGc46x4S2DtuGKuFXM2SDiNZ5SQKxslJ2uM8eLBrZ6uTcJHtqEBGzR+ul88+CmkpHhC5Aa4pQc/eVt8mRGmOm3KRXtHvZgxpotNETPc3DvSRMYrVa2ffyDKlIQtvzKDxhmdu0rUt557R2nra4E8VCR4KBFbtsTirXJR2XZXlIiyuLYHAUBhsqmabdAG/c4+fG9YEs6EkmZBeeqLvEBkraMz8Ty18bXuwT2PwJq160Gr00JZ2RV45Tcvw7NPPwknPjnmVQBR31/gej5khVFSuEnsjH6V4mrOZLenSV6Y0WqxoVdvUJL0VI2SrckWoXibyOj9YRGaSGjCRPORcdypy1asgF3fult8Vq9dN1G3fJwJMAEmMG8JTP3/3rOIjHJ9KGxjbzdD0vV3iCu1nPurcsVQrQFWPva6WGunp7pUzIyKx3PooU+vuVB7OuST7B1mIUaW7/kPTGY+hwnWVvQiHcZk4Fq5yYxuKYRX9+FvcebVD8U0+TYUOvbORhR0CSJsR0nX5365S1yT1vWhhG9Kll76/V+JKf6xizdgIng40Ew5Odl6MgNsOPoa5Ox8FHLv/Ak0fXZArEBNrwZxN2tzJV6vBAVXMRQ98gcgwUVj0cWnixWsKWfp8u9/6n6az/vvVL4NuxbdDWtTNsAJ81GP59VbpQTwLfgeL7IuxwDUo/eF1uGZrNXX10AlzbQ6dwYGRgWGL32cHxVB385aALR6cxvmrZ1FD8pFTKD+oLkJdqJnZR2uE/QvhcvgZLuU6E2v+Lgx0QS/rqiAwy3NvlxmTJvLvZJn6TbMe6KVsmss/eL1GUc89Lc58yZx/rvl44cG6X1lbEyACTABJjAxAb8UQZ0XpQUK5eFTiKj+o1fkXeHxoaTlyMyl4kMHSPj01V2EqreeVtqpC+VvPgnZtz+EM78WKgso2lprFRFE+SKTMffcGk/nUn7RCOa40BR08WJYuRFeq7vyvLxHiTq4JMAeWIwJ1BQWS8IPGYnAi7979Fo7ueQlBCcfpm3HpeMo+jIhZcMuSFkviS1KOKd1l4KCXB2A5X96Aui1IolF38D2u5VuaK2m3irXZGOErxz3pfBJ/RG4PW8nbM25zasIakTv4Fv1ZpyGngLbUiRvC822mooIem3fq74Ma0wbWo9o79Ur8N2sbCF2qMEw/i4kgmj749LPYU9ePqyOi4NlMdHK+bRmkCzilEpVYaKVqKtxdewXy8thd0YGbEhIEJ8Wux3cRVAIrlO1OfNmoGTzz1vOqq4wthg/uvgkHaF8KjYmwASYABPwTCAof3HR5J7+2E8sPgis/Vawe0hG9XyZydfSLK2IlDycDVYuTYv30AV5U7Q4Y2wYp+VbW6T1WTw084sqCutpY5JwJlsvkFfKk7eKBkpr/ejiU/F+cCViWg5gmkZhtXBTNq683ex1hpt8CQrF6XB1aXqH2kBvu0jqlo9NZ3tz9nZ88ecu2HvmSZzWfXk6Xf23n0vhL8phIhnZjv/u6P1jX4etSVkP/2vZ9+HVL16GM03SiuDervvwP/4TGHClamt/Pzzz1L95a8b1TIAJMIF5T8AvPUH0q5AA6MVQ13hGK0rTZy4Y5eh4m0mmHr9Y66hOykFR10+1TEnSFrNvwoNCeNNdYsDTOD+u/VB4u+hN8nPdBpBR7df4bjOZV/+ABf585Q042/yZXOVxq8UZlCSAyN5/91oI2WNjrmQCTIAJzHMCfusJmue/C98+E5gSAZoZdt3qNUCTFE5+8vGU+uCTmAATYALzhYDfeoLmyw/A98kEZpIALSdw9Ah63tiYABNgAkxgQgKuGbITNucGTIAJMAEmwASYABMIDAIsggLjd+S7YAJMgAkwASbABCZJgEXQJIFxcybABJgAE2ACTCAwCLAICozfke+CCTABJsAEmAATmCQBFkGTBMbNmQATYAJMgAkwgcAgwCIoMH5HvgsmwASYABNgAkxgkgRYBE0SGDdnAkyACTABJsAEAoMAi6DA+B39+i6CIAjfJJ8ChjCjX48zEAYnsw4PMwTC7fA9MAEmwARmlYBfiaDo/NXSi0bn+Vuw6R1es2XxhTdC3JJNs9W9x36Xm4rh/278N1hmKvJ4fK5VLjJGwYqYmGkNOxXfP7YxIRGMYWHT6sf95LAQDTy+4Qn44cqH3Q/xPhNgAkyACbgR8KsVozO23Au6mGRo//II0DuvZtJMxbfCgK0HOi+d9Nht0urbIGXjXcoxeqv8QG8H9NZ+CeZjf5zx8SgXGi0EBYdAzh2PQlTOSgjR6MW70zpwrDV//ZV702ntL9j2INC1Oi5+fa9UuCN/N9B7w840emYv3xAJg5xIA3zVjb8TvpzUX+2B3DzIiAiHOz45PuUhXh+fAH+3IBOevHQRTnd0+NQPvWXeMjgIpV1dXts7hxzwcf0R2JyxBTKMWVDXW+21LR9gAkyACcx3ArPncvAzspm3PACZWx/wOioNvuWd3p5OAoQsVBsO4UlZkLRmBxQ9/CrQ29hn05bc8zTELlovBIq1qRKCQ7WQWHQz5H/rn2fzsrPed2HCCkiIMMGRmvdhcHhw3OvdmZ4OjxQshHjt7LIedxA+HGxz2KH3a3p7vHo4P164CO7PzlVXeSwfrnpH1H+zYLfH41zJBJgAE2ACEgG/8gT5w4/SVvoh1Lz7IgCG5KJyiiF/1/+BEG0EpG3+n1D3wa9nZYgRKfkouLKFt6n0+Xth0NYL2mgTLPvRSxCddx1ojQng6G2blWvPdqc7Cv5GXOJIzQcTXqogUsoZqvlveEv7hINTNXji4leqPf8rdtk74WL7l7AkfhmkGFKh0dLgf4PkETEBJsAE/ICAX4og44JlkLbp26CNTQJndwvUH90H3eVnXXAFhYRCwrL/AbGL1wOJiJHhIXB0NUHD8Tegu+KcaJtYfAskrNiinBemN8KSe59R9us/ehV6a75U9l0KGA7rwX46Ln0C8Us3Q2T6IpfDSWu/ibk1N0DVX57BMWzC8noIi4wDR0cjVGKdrb1etA8Lj4YFt/4IIlLzhJfJ0dkEtYd/B321F5T+krEvso6Lx4UAorID77u3+gsRHjNhqK4Oz5EtMqMQMrbcAy2nD+F9D4NpzXbQJ2TiuX1Qj+06L38qmlJd1vYHQR+fAQP93dD06QG5izFbYpix5XuiLR20NldA1aHnwdnnGqrx9drUR2hwKKQa0qHD2gZ9zh6qGmObTSZYF5cg6lPCJS/cYwsXK+1eq62ByYiie+59ACrKy+D0qU/B4bQr/XgrhGH+1f/G613t64VTGJbakZoKRZjv4xwegXcbG+HtRrM4NVajhXuys126eerKZZd9eWdlTCyQVytJr4fKPgvsr68T/V7q6YV3mlwFCV3/u1k5cF1sLIQEB8GJtjage6ZwLBmFwDYlmOSuwaTXwc8WFyr7f8K+y3Hs7napVRJBBXGFXkVQoikJtt92hzi1ouwqHD9+xL0b3mcCTIAJBDQBvxRB+bsfh+FBJwxYe0CfuECEhMr3/yt0XT2l/BgZN90Dpuu2S+IHBQOJInqQJ668RRFBFMIKM7gmsKr3fQlxDTls4ppBQSHKtakQmbYIIpJzIWfHjyE8OUeMd2RoUJSjcoqECCIRUnjfs2Js+FSDIadVHF/0nV9AxYFfKvlJ+vg00XdP1XmXa/TWSCJIn5jpUk9eIrp28vo7hfiR+9ZiSC9x5VYhgqjPwvv3ivDaQH+XCPVlbd8j+qFxqi1hxc0olqRjlItFOUPGrCJYvufX8OULP3DxQvlybblvU0SyKDb3N8lVY7bJunBI0OkgKkz6p2gbGhL7ckM77k/GEhITISUtDTbeuBlqqqvg5InjuK302kUoevxWxcVCang4fBPPiwgNhQ6HAxJ1WtiZnqaIIH1ICGQbIkU/dCwEz/MkgtbExcFPFi8R7UgAFRgj4d9XrBD7GuTqLoL+Pr8ANCiEOp1OiNVohHiie34TxQ0ZiSTiozb1Pp3ryZqtEvO0yHRPh0VdFCZ4p6DoIxsYcAIcF0X+YgJMgAnMGwJ+KYLs3c1w4aUHgR7W8gM6c+sPXESQadU2oId/6d7vCrFEvxh5XbQx1/5qbj51EOhDtvrxQ5gY3Qulz31P7PvyRaIiftlm0dTaWuXxFBJAVYeew2Tuj8RxEiey5e18TAigti8OQ+17L4twV0zBGsjb9TMUHf8geWzwHkIjosQpA5Zu+VSXfU1EtEu9vEMiq/3CEah++3nhEaL7N6QXiMMZW+4TYqb18/cxufoFUVdw188hKrdYPl1sQzThsADzpcgqDz4DHV8dE2Om802rboWsHQ/BlX2Pi+Pqr/GuLbdLMUjirrm/Ua4as329throcxN6JR7Mz4f/rK2FvzSYx7TzteL5vU/BmjXrYOWq6yArO0d87DY7lJw9Dac+Owk2u9VjV8noYbnU0wNPYKKyDZOPSeQUo3dGtgabFX507ozYfW7lKpEYLR+Tt0FYuD9H+v1/fuFL+LK7W4iYp1as9NiezhvC3/+hkhKos/aLGWc/L1wKNyUlKSLoaEsL0IfsrY03QAvey8PnJU+nqPTy1WIZFUHGDC8tuJoJMAEmwARmRATp0e0fjH+RDg4MYgjC+6wevQ7bhUzcznz0j0IA0c/TVvqBCP1oMNREuTlDjn6Rr0PhL/L+hIYbFRE0YO3GsquQmOxPHFd4AxhSCyDMGIeiShIndC3zkT947IrCdLIAogb9TRWinQY9ULoEfADhQ6615D3QxaIgwKeko6cdnJZO0BhiITwxC6wtVZh0Lf2lP2jHe1PZkFPyQgXrIlS114qDdguG4/YqFXTvXVdPi/3ITClkUv/hK8rxmvdeEt4dpQIL8UtvFBwp7GVrq8fcpBxxuOOrj4UIiky7FppSnzfeteV2SYYUUWzHcNhEVmCU8oHK0XvibgaDEfLQYzKeDWKi8oULpWBDsXLs2GHxSUlOhevXb4R8TChef8Mm8amvq4WDB/ZDT8/Yfyf/7/JlIYDoOiROzvg4a0seV6JWB3GY1F3bbxUCiOoHMFz5Z3OdSPiW26m3JZ2dQgBR3Rcomui6MegRmq5RXhBZfLgUavTUX3dPF9TWSLPHKivKPDXhOibABJhAQBOYtgjSYq6EEac1k1nxr1RvIkgTpgGjUWpnszu8tqN++htd/4dMeUF6Uxbo4lKlY/ig6Lx8EuIKN8HSB14QIshSdxnMx18HW2sNdTFlI6EVjtcaGRkWOTb9DWUiUdpp8Twtubvc81/l+lExQQnWS+55yuN46DokgoYHB0S+kDwzTW5MM8TIRrzktljMV+WmLlsKZwWHajD8ZhMhOPkg5RmRKFObHmfAkZHILLz/WfUhUSahSd4iCuWpzdu11W26Rx/ERq0kcNTH3Mt5o0nR1f197odEyGbbbTvG1KsrhlFskAhSWyPm3/z5zTcgDNfi2X3Xt4VXKD0jE1JT08aIIAqBdVNIaBpG+Tpk7jlMdSiKvNnnqunulAfUiv9tkFdquiYvltjrGJsvJPfd1toK+37/W3mXt0yACTCBeUdg2iIIn6oKNLfnq1IvFa61U53i1kbadV8jiJJ/yUI01x4OlQefxqTmC5C8bqdYWyhm4VqgT+OJ/biuzz6poyl8t5a8K80O8/FcR0+rx5ahKKbI7JisbT7q2Ytkqbsk2gxZe9HrZESvlpRzIirxS953evFuOb3MGCPhIgyFnLuRuFNbKAocMhKVnZdPqA8p5eHBsd49b9dWTsJCQ5+UHE6rRY9nFEZKw6RoyouhnCB3a2xogHf+65B7tcu+wy55zdSV6RkL0BO0AXJz84WnkkRGdVUl1JulcanbdjimJ4Cor9AgKT9n0I3x8Dj/YfSjAJ4NSzIkiW4bR3+D2bgG98kEmAATmOsEpi2CHPjg6unpw/yTYBjCXApv5sRwRQ/OjglGL8WQW2Ku+zlaXDCRZjPJJufM2DtcZ9ZQqIw+IWF6oNlaqZv+Fkyrt48jguhxO8Pm9sCTe7fKHil8AHpboFFu6+xrAx0mMhsw2bq7TMo7oWOGtIWiiaPbs9By9+rI/ZGIpBCeHGaT68k7RF4idWK0ta0WYmEj8va+kKR8vst2nAe73K5pdGq2aTQsJte7b1NwkUTKwaFEYk9msfTC+ZJrXDy1kesiMdl37fXrYPnyYtCNelT6LRY4e+YUnD392bgeSLmPqW5b7NJstBRM9lYbJVLPlAUhJ1/MNCo8zX11XpuHYLJ3bl4+Hg8CC7JvaPDe1msnfIAJMAEmMIcJSH+6TvMG7Lh4HOViOCcIJ9gx5GDFdiScxjNKyJWNkpM1xnjx4FZP1ybhI9vQgA0aP90vHvwUUlI8IXID3NKDn7wtvswIU5025aK9o17MGNPFpogZbu4daSLjlarWzz8QZUrCll+ZQeOMzl0l6lvPvaO09bVAHioSPJSILVti8Va5qGy7K0pEWVxb9iApR6UwmWp3UkXboA36nX343rAknC4f5vVc8gKRtY7OxPPa0IcDD+55BNasXQ9aFB5lZVfgld+8DM8+/SSc+OTYrAogGloLeqPIk7UoyggmzA+SbWvy+J4wud1EW+qbQmXeZoSpz8+OzhW71d2V6mqXcnR0DOz61t/h527YsfNOl2O8wwSYABOYDwSm7QmaDUiU60NhG3u7GZKul9YxaTn3V+VSoVoDrHzsdbHWTk91qZgZFY/n0EOfXnOh9nTIJ9k7zEKMLN/zH7jm0DlMsLaiF+kwJgPXyk1mdEshvLoPf4szr34opsm3odCxdzaioEsQYTtKuj73y13imrSuDyV8U7L00u//Skzxj128ARPBw4FmysnJ1pMZYMPR1yBn56OQe+dPoOmzA2IFano1iLtZmyvxeiUouIqh6JE/AAkuGosuPl2sYE05S5d//1P303zef6fybdi16G5Ym7IBTpiPejyv3iqFsrYkJYvjXY4BqLf1TzoxmU6ur6+ByopyKMGZXAMzuKozrdcTjXltZNEaSdBtT5Gml1Pd+81NIgn6DZzd9j1cT+jZ4mI40twM6eERsCwmmppM28p7+0RfTxcVw6n2dqCp9Cfb26DZLRSoDdXB2tT10GnrgCsdF71e11evktcO+AATYAJMYI4T8EsR1HlRWqBQZkshovqPXpF3hceHFgaMzFwqPnSAhE9f3UWoeutppZ26UP7mk5B9+0M482uhsoCirbVWEUHy4nTqc8Yru+fWeGpL+UUj+KCiKei0cKNiGErqrlStCYT7F17aA4sxgZrCYkn4ISMRePF3jyqnKQUvITjlOBY6Lh1H0ZcJKRt2Qcp6SWxRwjmtuxQ0mrsity//0xNArxVJLPoGtt8tVwtPVm+Va7IxwleO+1L4BN9jdXveTtiac5tXEdSI3sG36s2wLTUFto0KC5oWPtnZWTSe1/a96suwlDaqTDWlzlPhXpxuH+02a+veHGkmHbX/uK1ViKBDOL0/DPnemZGO95Mq1hx6sbwcfpiXBwOTZOc+jl+Vl8G9OdmwKjYO/gb7JzOjWHQXQevTboRgXNfqYNmf3Ltw2Y/HF7jK1jo6DV/e5y0TYAJMYD4QCMpfXOTrc0DhEYsLwllxxovd7S9QpcEMFGiWVkRKHs4GK5emxXvok7wpWpwxNozT8q0t3t3+Hk792qsorKeNScKZbL1AXilP3ioaFK31o4tPxfup8Xrfkxk8hdXC7WNnmQAABVpJREFUTdm48nYzTs33PMNN7o9CcTpcXZreoTbQi54GTOqeCbs5ezt8M38X7D3zJJR1Xp6JLudEHxS2cqJHcFl0NPzL0mVwAIXevpqqWR17EOb3PLn5OZx7MAI/Pfqw2Hq74B07d8MSHBf9AfD8s09BX5/nVb29nc/1TIAJMIG5TsAvPUEElUIyvRjqGs9oRWn6zAWjHB1vM8nU4xdrHdVdSwpXH5tKmZKkLWbfhAeF8Ka7xICnMX5c+6GYmk9vkg90i8MlIzINEUBT30kAJWBu0N2ZC8Rtl3ZJa/fMJgNdWDh8hC+rLe+6Oq4AojEsyMoWQ7mM70JjATSbvwr3zQSYgL8S8FsR5K/AeFyTJ+AYcsAH1ddyuibfw9w5Iz0iHP55SaEQQD04AUB+xcXpjna44GGBxpm+M9tAv8+sS86egZDQEPGetZkeB/fHBJgAE5gLBPw2HDYX4PEYmYA7gUhcmHELvgIkNzISjKFh0IIzJ0vRK/QJ5gyxMQEmwASYgH8RYE+Qf/0ePJo5TqAPZ6Qd8LAY4xy/LR4+E2ACTCAgCczIOkEBSYZvigkwASbABJgAEwhoAiyCAvrn5ZtjAkyACTABJsAEvBFgEeSNDNczASbABJgAE2ACAU1gSjlBnR0dAQ2Fb44JMAEmwASYABMIfALsCQr835jvkAkwASbABJgAE/BAgEWQByhcxQSYABNgAkyACQQ+gSmFwwhLbEQYFC2Igs7+Aahrt0GHZfw3wwc+Sr5DJsAEmAATYAJMYC4RmLIIykqMgO9slF70STd88GwzHCxpnkv3zmNlAkyACTABJsAE5jGBKYfDSmt74B/3XYSXP6oV+G4tuvZG6nnMk2+dCTABJsAEmAATmCMEpiyChoZHRCjss/IusDqHQBMajO+vZmMCTIAJMAEmwASYwNwgMGURpL495+Cw2A0OZhmk5sJlJsAEmAATYAJMwH8JzIgI8t/b45ExASbABJgAE2ACTMAzgRkRQYNDI6L3zIRwz1fhWibABJgAE2ACTIAJ+BmBGRFB5k67uK07ViWBQTvlCWd+hoaHwwSYABNgAkyACQQygaD8xUWSG2cad2nUh8EDN2XA4tRI0YttYAh+8VYFmDtt0+iVT2UCTIAJMAEmwASYwOwRmBFPULgmGOINGjFKSpKubrWCHYUQGxNgAkyACTABJsAE/JXAjMSuthWZIDFKC6cquuHlwzUwbdeSv9LicTEBJsAEmAATYAIBQ2BGPEFL0gwCyNvnm1kABcw/Db4RJsAEmAATYAKBTWBGRJC8PlBztyOwafHdMQEmwASYABNgAgFDYEZEUMjoIokjHAcLmH8YfCNMgAkwASbABAKdwLRFkD4sREyLp9doDLMKCvR/L3x/TIAJMAEmwAQChsCUE6Pzkwzw91sXCAEUhG/LKGuyBAwUvhEmwASYABNgAkwg8AlMWQQ5h4ahBXOAKuxWKG+2wIcX2gOfFt8hE2ACTIAJMAEmEDAEZmSxxIChwTfCBJgAE2ACTIAJzBsC084Jmjek+EaZABNgAkyACTCBgCLAIiigfk6+GSbABJgAE2ACTMBXAiyCfCXF7ZgAE2ACTIAJMIGAIsAiKKB+Tr4ZJsAEmAATYAJMwFcCLIJ8JcXtmAATYAJMgAkwgYAiwCIooH5OvhkmwASYABNgAkzAVwIsgnwlxe2YABNgAkyACTCBgCLAIiigfk6+GSbABJgAE2ACTMBXAiyCfCXF7ZgAE2ACTIAJMIGAIsAiKKB+Tr4ZJsAEmAATYAJMwFcCLIJ8JcXtmAATYAJMgAkwgYAiwCIooH5OvhkmwASYABNgAkzAVwL/HwEV2fjoruWoAAAAAElFTkSuQmCC;" vertex="1" parent="1">
          <mxGeometry x="680" y="1240" width="486.63" height="210" as="geometry" />
        </mxCell>
        <mxCell id="1CHQfiaJzoFtv51jB6GE-56" value="" style="shape=image;verticalLabelPosition=bottom;labelBackgroundColor=default;verticalAlign=top;aspect=fixed;imageAspect=0;image=data:image/png,iVBORw0KGgoAAAANSUhEUgAAAlIAAAD3CAYAAADWkboHAAAAAXNSR0IArs4c6QAAAGJlWElmTU0AKgAAAAgAAYdpAAQAAAABAAAAGgAAAAAABJKGAAcAAAASAAAAUKABAAMAAAABAAEAAKACAAQAAAABAAACUqADAAQAAAABAAAA9wAAAABBU0NJSQAAAFNjcmVlbnNob3RweY0vAAAB1mlUWHRYTUw6Y29tLmFkb2JlLnhtcAAAAAAAPHg6eG1wbWV0YSB4bWxuczp4PSJhZG9iZTpuczptZXRhLyIgeDp4bXB0az0iWE1QIENvcmUgNi4wLjAiPgogICA8cmRmOlJERiB4bWxuczpyZGY9Imh0dHA6Ly93d3cudzMub3JnLzE5OTkvMDIvMjItcmRmLXN5bnRheC1ucyMiPgogICAgICA8cmRmOkRlc2NyaXB0aW9uIHJkZjphYm91dD0iIgogICAgICAgICAgICB4bWxuczpleGlmPSJodHRwOi8vbnMuYWRvYmUuY29tL2V4aWYvMS4wLyI+CiAgICAgICAgIDxleGlmOlBpeGVsWURpbWVuc2lvbj4yNDc8L2V4aWY6UGl4ZWxZRGltZW5zaW9uPgogICAgICAgICA8ZXhpZjpQaXhlbFhEaW1lbnNpb24+NTk0PC9leGlmOlBpeGVsWERpbWVuc2lvbj4KICAgICAgICAgPGV4aWY6VXNlckNvbW1lbnQ+U2NyZWVuc2hvdDwvZXhpZjpVc2VyQ29tbWVudD4KICAgICAgPC9yZGY6RGVzY3JpcHRpb24+CiAgIDwvcmRmOlJERj4KPC94OnhtcG1ldGE+CvHpgDAAAEAASURBVHgB7H0HfFzVlf5RGc2Meu+SZclFlm2529jGNmBM74RAgDTIppCQXjYJ2bBsCmRDyn93k2x62wQSQi8BbIwLYOPeu9V7r6Ou//nu6I7ejGZGM9LIkvA5+o3ee/fd9r5337vfPefc+4LmFCwZJBFBQBAQBAQBQUAQEAQEAb8RCPY7hSQQBAQBQUAQEAQEAUFAEFAICJGShiAICAKCgCAgCAgCgsAYERAiNUbgJJkgIAgIAoKAICAICAJCpKQNCAKCgCAgCAgCgoAgMEYEhEiNEThJJggIAoKAICAICAKCgBApaQOCgCAgCAgCgoAgIAiMEQEhUmMETpIJAoKAICAICAKCgCAgREragCAgCAgCgoAgIAgIAmNEQIjUGIGTZIKAICAICAKCgCAgCIQKBP4hkJubR122LqqsqvAv4TSMHRUVTcnJyVRTU0Pt7W3T8AouzirjnuHelZQUU19f38UJwnvwqoOCgmj+/IVOV1ZRUUZNTU1OYRfyID4+geLi4lSRRUXnaWBgYEKKDw0NpRkzcqi1tZXq6monpIxAZ5qelkFmq4WKzp8LdNZTPj+01cHBi+ejKRNOpEJCQumqq69RD9hrr77iFdz8/Hk0e/YcOnHiOJ09e8bvxoKH7Zprr6cgQ0obk56yshIqKS6mru4uwxn/dyMiomjJkmXU0tISECIVGxtLCYmJVFVZRZ2dHf5XaBwpLGYLZWRlUnNTMzU01LvNae7cfPXy2rt3z0VJpCbz/ri9IT4GLl22giLCI6istNTHFBMfzZf2NvG1mN4loD3imTQKiMVkEKl58wq4LvMoJCTEUZ3z4yAMM3mA2tPdQyCG7iQ5OYUWL15KFZXl04ZIrVy1ioKDQ6YtkUpNTaMVK1Y6bgdoUU9PD5WXldE57p+7e7od57CTPWMmFRQUULg1nDSRauMB+JFDh6i6popALJctX+6Uxt1BSUkJHT580N2pKRs24URq/vwFCliMVrwxVJCggoIFCigAORZJSEgkc5hZldPb20PB/JDHxMTwr1Dl/c9XXiJbl20sWas00dFR1NffS9XVVWPOw5hwwcJCSklOpbbWbRecSIFELV60lM6eO+uRSMXFx6vq1tXVGat90exP5v0ZD8h4kfX391EPPwNTRXxpb1OlrlO1HiBM//jH31T1rrr6WoqKjKK62guvncGAEu9qaJ8OHtpPjQ0N1D8w6PX97g1TK7fXpTxARafriUglJiapLBrq3Q/6vOU/GeegQGBEqLGxcTKKD0iZKUykwrg/xX3u6+ulUO5PzdzmQKJz8/LoxReec5Sz9tL1lJqSqo5BsDraOyg6JoqiWTMen5CgiFR0TDT3ycPeRCHBoYpwIf+BwX5HXh2d7Y796bIzoUQK5GjWrNnqATty5JBXTPBggsWeP3+eQILGIvphq6gop92731FZWK0RrBG7mhsBq4ZzcujkyRNjyVqlqaqqpOeefWbM6V0TxsTEqqAGfhFdaElMGP3FFBkRqe5d5zRs2IHAczLvz1jrjzrjOWptnVqmWF/a21iv+WJMh2ezv7+fB4adF/zyZ86cqco8c+Y0aybOjrt8/d5u9mKiTGATIqS+fnoM6jCQCWRfMW6Qx5CBxnzf/n1UWlKkcoiOjqFNm65WCgu4D7S1tVJ2do4iUWiLb27d6qQUmMFaquZmu+kZfa+x/9WDgV3vvEVVAVJOjOEyA5JkQolUAdvz8VKH1qO3t9djhUNDTQ7CdfSod8LlMRM+kcDMF2I0VdlsHQQClJWZTZHMprWgXpddtpE7nBYmb2dpLpsVk4ZGPaWlZXSIR1oQELFLVq/RyYiZBW3fvlW9xIYDiWC6WL12HY8Qa1RDyps1hywWsyr76OHDDrPiLDZdZmXNUEmRBrJ+w+Vqi3+HuVwjsbJarDR/4UJKSkrmxhumym1ra+P6HfBbpQ8zYmHhElVWTHS02hbMn0+z58xV+2WlxQ6TqtUSzmrpYGrvaCP4hXm6HpWQ/2E0Mo/JMEYdeMFDa3eAH0Dsj0UwwhnkkUpFRQXNmTuXwsPD2bzYQXv27KbWlmanLGPY5AGzMF7IqHMrm1737ds7whyJc7jP2dnZfG+sQyTRRqdPnaRSvnaIv/dHJfLxX0ZGFmOZS7HsU4JRWC23FWDk6seE0d6MGbl06OA+wqgwPT2T224Et6tOevfdXdTSbL9+mFUWLFhEaelpZDKZqKa6mtuEfQTcOLTVVQsPj6QlS5dQfFy8GhXCpLtnz7tOLz3EhRZy8eJl6sXZzaaWPK5LbFysen6PHDnC5kLftcX+tDeU7esziTrO5ucLI12z2UxdXV1sHq+kc+fOUQe3VwjawsLCxcoEoe+tOsH/YILIy5tFRUXnqbho2H/F1zbs6/3xpb2hTr5cj647tujAgBXeA4EQX54flLl8xSpVXAxr5iGZWVmUxCY3yLGjh1V7Vgc+/EPbXb+e33t8HRER4SpFSmoqXX7FJrXf1tZCe7l9aomOtb+v0M4v5/c2jvGePHbsKDW5aH2Q9yLWtienJPN72UwdnTZ+rx5gX89qnZ3f24yMTHY7mUsxXC6enYOc3+JFS6iJn0XkrQXvLWhxtBw+fIBctWgrVq5SVppt27bqaGqLe7pu3Qb1DsM5bcHx5Xp87X+cChzlIGroPhu1niBOqBfq2tNtN+3l5OSonA7uPzDifVIyRMDcFYXBAKTeg2uJuzRTNWzCiJQiR/yyAujHjx3xev0FbP7DjTnLoxtvhMtrJnwSZjxIncuoJZJV0RDNjLEPf4N4fiFHcAcFJ0ZIH48ioLnKZLOXJlJ4yK1W+4MBcoHrcUcOEpnoxHMHGcf54lp6lSqUtWDM1gdZ7b1v3x5VRnRUjMrPZApTx+hQdf4I6O0ddg7Gi/jKq66mMI6LMjvYj8pisTBhTOTOLd5vIgUcdFl4OHEtoaEh6oey+7kuWhKT7BqrCHTArHb3dD2IX8gdFnzbIFDror647tiYONq8+VUV7s8/pNdq4rS0dJVnSHAI5xfDL5r19NKLzzuyg2P1pZduUJijbBOTcnSiV155Fb344nNOJGXN2kuVKRXX3d7Rrq4bhDKLOwTd2fpzfxyV8GEH6nBtuoZ5GQQ5mwl1FLeHN7a85pRDTk6eakfLlq9i1XgU33t7m4CaHPUDkULbuGLjJqU6RxtC283KyqbMzCyVV73BHJuRnkmrLlmtMEK8IP4DRldddQ299NLzTs8c/BjQjsPCQgntRbX3gT6ubzj7OKT7RaT8aW+otK/P5LJlKwn3DaZLm82m/MHQ/nJz8+gFNjcAL/xwHT2Ge4sygNvSJUvYtyeU3t1dgyAl/rRhX+4PMvWlvSGeL9eDeFpAECCB6IB8fX4iIyIM7w57txEcHOQIcx0M6Lp62prNVrKG2weScMeA4B2n30/tbUGOpOhLQkNM6hjPOto73rFwi8DgGC4bWiK4c9545Sb1HkDbxXsLz9ClTHC28QDY+FzoNKNtMbhaxO84CJ5dPDsbmfChDv0DwwNFHEdxWQoXfl4gA24Gknjm0U+A/Bj9dtVgnvsRDEJRd4iv1+Nr/6My9eEf+if0hagHlBFaMGDFdcJPWPtI4VmCJPK72NdJWBjYIR+8j8bT5+t6TfZ2wojU/AV2bdQZdkrzBhRGGLOGCNexUQiXN7BADDASwI3XI3bEh2kRs0oQXlFe7sgCGh4IHmKYAqHpwIOMBpQyZOvFeaiSX37pRX7Aw+m6625gMuPefquJB8rZuXO7Gp3FxsbRRu7s0jMyHERq/347oYLT6IIFhQT1+FEezbkTnAepgIPlrnfedkRB3dvYydRfwegAP7x8rmYfixbOY4sHooOXBWS06wFW6MTQqe3Y/iaT1WYmKKF0LWMFYgsMjATWlzprLBEXju6oMzrAG268Wb180KlDjYy2o0nUrl1vq/uIeFAZw9kaBPkca0MhyBMvXjz8Rts+Hmiz2f6SRjx/7g/i+yIghSBR6Nxff/011pq0q7Z6ww03qReqvh6dV3SUfaQWwVq4HTve5LZk94MBIdLa1iVLlysSBR+MrVs3q6RLl64gbXZpGBpMoP2sXHWJemnt2vWOwwflUh75prA2AaPs48eP6qIdWl2QIDh8on1CoNI3hQ3j5EjgZcef9oZsfH0mz507o7RvxgkaaG/wDUtirWs1ax7woodEDWle1QH/mzdvviJRZeWl6j4g3N827Mv98bW9oXxfrgfxtCQlDhGpcfpH+fP8wPRSxe9BpLnpplsVocB7cawCdwGd/pZbblfP98svveA2u8QhSwNOHmYXETg6Q5AOzzne4bpTX7N2nSJRaLfoT/BO10SocOFieuON11VaX/9BWwcSBfK2efNrypQFwr9x41UqC6O2Ce9KTepuvuVWRf7wPnSV1tZm9dxDEwlrCQT9Vz477yOP/axN1+Lr9eh35mjva53vaFttnUG8desuU/VDP4r3aw+/Q/ftG9YWYpIBlBKzua/NzMygs2fOKG2vt34/aWig3jbFXBBGw8XT+QkhUnjY8nh0iJs6mjZqPpMFMFM0fDi0eRLkCaLUxyZC/dAY46JRarmCGzkaZjiPePRI5uDB/erh13FgFoCAAKAT1gL/rHJ+ybqKJhaeZshgGjAEHTdMNhCoQSF4mF0FZg+IN5t/+JDKGyYWo3ia/gsCo8gkl9fN14GH353oDqup0bNvFh4MiLfrwX2DpgOyZ/cuRaKwj9FpKc8YA0HGfXElUjBRhnIH38sPZI8bk6/GGjiiM4bgWoBVWmo6pWWk0Xk246BTRB2Ki4sUidLxKtkcCHIXxZ2/FmjWIMASbUPfE7zQ2WI2Qka7P5jRYuGO25tAJQ5T04Kh0ey7u3c7Om+8jOBcq7RMbA7Vvi4gPnqEd/DQQQeJQjkg1BDUf0b2DPV87dixTYXhX1HxOUWkcG16UsUKJlF4+Z3jl53RkffM6VOKSOmp6zoTrdXFC16TKJyDCdxVrKwdDebRqM3W6bGtIY0v7Q3xfH0m9XRytHVlFuI20M5mLhApthUhK1UfjHah+dOC52MOm7HxXjq4326697cN+3J/UJ4/7c2X69HXgK1+19X6sAwA6mvi562vp0e9E4z5+PP86HTQhkOMg1V9zrhFG4X5vJ/fBUatizEO9qGVQVxoiD2Jfh+08vv07BCxR1z0A7i/uM8QmGuhfYI7gnHW13l+JxcuXESRQwMUFXnon8anl/FxNzkD6SAHDx5wvM9BjqDpgvbb1fqBuFqDhutGW3MV+IJBY49nTxOp+TzQAg7ni847nl1/rsff/gd18nbtiUP9E54PaC2Ncvz4MSdrSGlpMZs8Y9X7HoPChYwZlAAYoBl9oox56PwbvPRBxvhTfX9CiBT8NnAD7OTI3sjdAQFylDszVzU22Lo9CeJBlR/CHv9d3SFuiZRm0CgXJiAIHoymxlr1ELh2BNCUQI6y34cvoh9mT8QHo1Q8NCdOHHNkp1947lg3RjUQrWFwJDLsFLPjPbQQwAh+PSAIx44d447f/UvHzC+lyAh7x9Ha2u54IA1Zql3diN29BHTcKB+uB9eAlwlkqcu0VjykEJg1XcXMLz+rJYwGw61MslpGvMC0k+Mp9l0yCggBpNtmt81j8gDk+PHjauv6T9vwEV5eXsYmFGhxoujmm2+j2roa5RultT2uaUe7P6tXr1UExTWd8XgfjyxBzNF28eL1pPbuHvI1QFrdztB2jf47xnzTMzLV84W2aBx8BHPbh7R3DKvioXWCZGRksK9VmtrHP5hKIQODw2Qb+IKcQNBxeBM8k1a+fyYmJzAPaw2QuzS+tDek8+WZhMZ48eIlyoyJZ91VjPXAzCEQQ7RF4IlBG67xNJNI3Wn624Z9uT+ok6/tzZ/rQb64Zjt56FVtC2GeBNcdGxejqKWN350YXBnFn+dHp9PXP5pZETOcw7iNYKAEooPBlTtJGNJ8e3U0H+rUj7m8q0HCkLceFMGxGQJ8rrv+BqfigJsrqYEmK3bI9wr46DZhTIhBANIVF583Bqv7gABX/yyEaQ2a6wAS5yB6MA7yAcGzBK0ZBotHDNP+/bkef/sflAs3EWVK5T6jubnVqV+NHyLMUEBgMI22lJLGyyEsX6mWocBMbt2nAh/4iR1lbSH8f+fm56sZpVjzrK2t3WkAh3IhcUOKB6NGz35mev4POJHCiwHmBTQKb+QIcIG5ooHjxQazhzcZVC/84amTrnH1jYeZzLUDdo2LY/sU8X5WQQ47m7qLp8O0hqa+rl4HObZoZNAiwIfJqM7U5K7RDeu2sI8AllIwxndkOLQDEwWcDgvZqRHkMJu1EPi9y2ZI906/I0mLa5441gTPk78AOlNfrkdrGqD9sHU6r9FlI/uxu2tneqWqZezEjfXUjqWumjc9WaBlSDsC3NHOjDZ85AM/BUiLwSkd7euVV15mf68lypQDMx9+JSXFbD4cVlOrhPxvtPsDZ9PRBCZj3W7aWkaaYq1WTXqHtT1aRQ+NkSeJi7G/gOvrnduiJiLa4Rz+FXi+0Nl0drhRu1EHk3O7aQFl6XYBJ16j2cxTPXTHpLee4ul8PbU3nc6XZ3Lt2nXK/NjIo3rMJIKGMYh9dVayI7RqC4ZZbHjRg0ihfHR40JKjHRhdCPxtw77cH1yPr+3Nn+tBvpiogHvawh2fL4IJG0EYgLh5Nfjz/Oiy9ISe+lG0YVoRY9+6KXwoQ03MvA0oo4fMs1iLSEs0PwPAwThIBXlDW2xx86zh/eQ6AQOgDHB8DEB0fXX+2Iaz2RBl4L1ubOMgPvAfAvHSJM6YznFNLs+njqPNffq6FrLJEeVAg2MknL5ez1j6H9QFyzOorbp453uESUMQvfQNrhV9ThqTKUzcysmZ6aT1Q1w8f9qcD9cDKAAwWcWoCUc8CHzuINoFQR1M438BJ1K+kiPcfNwMgG/00XCHJchGMz8c6OChKnYnWoPgSWNkTAN/DzRcf2a9aA2NZuHG/PTL1XVUpcmda50wEkH5rS1txmzc7iMtnJGhLoZGBc7EWAjPHZHqZlUynBv7+wfcjq50AfArsBMQd50rtCJ29f1o1wMcIej0jWYgXY6nbRc7CMOpHtoa44sD8bVaHC8u48sLsydRb5CCdjaJwWcNYtTI4Bjqcfi8IK1xtgnOgXC9/fZOhX0ud6pY4A/E1JVI+XJ/tDkG+XoTTeq6epyJJkwk0OZ1upjFtIq+Zsg87C7vyCGiiLRGyZmZpw41YdFmusaGRuVrZYzrbl8T/9E6SaTFM2nj2VBdwT08a87mLjtH2GjtDRF9eSYzWBOHjtzoF4a02vxi1MQhHBoBOODDhJLFGl08c0eOHFZtH+ch/rZhX+6PPefR25u/14N8NfHzRjx0+ej8mljji8Ftv4vbxFieH+QbPaTt11oVXZbrFguFQkOO91Ff30jXBh1fDzR0h63D9RbPM977MOPhnaUFvnAQbRrCvcXgD++HrVs362het91szmviGXjAx/U9goSRkXZ3gD7DBCCE57IJEYLZwe5Em6hdBzo6Lkg2fjCDQauWw5p1aKyNCgB/rsff/kfXA7NdcW9c38PAEe8mvENd+zvcDyWKfOmcRm6Vpm7I2uR6FhpD5AMSql0QXONMt2PPKp4xXAkaPBoFGrzRxOUuq4WFRm2U5wdNp1Wgc8fhTv2KRocGCRntAUccTRR8XSxNM37Xjgt5QfQIxFXdPUzuXDQHPJsN4m3UjzKNggddvzTgJ+ZO8FDY+OFwh5GOj9EUzBve4vh6PSA0EK2C1mVgi5cTfFLcCdT98KtxJVGIq9XiuKdaA4XwpcuWYeNYtwakEYI2h2vSAnKEtPAn0teI8wjTghcEPnsDMb6c9XnMNoR4uz867mhbLFkAieNZllqA//IVK9ThsaPOJm09EnQlsTotttp8pbUDCEtNSXOYtHWnpAcKcOxEmUYBHnihGUX7v7gSf2Mc434XmyRxH42E13ge+760N8Tz5ZnEzCRIs0HTiPzzZs1W4U1Nzj5/+l0AfzbMkITPyjk2UxjF3zbsy/3xtb35ez2ot54yDk2TL4JnDPfI1RfRn+dHl6NIDT/XrqRGnzdu9UDNnT+rMV4kz5qGtLe7d1fQ2kxXnyztw6hNQ2iD6COgKdLt2FgOBmLuROPjzjKgl6GB5ki/P0B+5vHMNYgu2zVfxwDGjSVCx8WSDMBzGb8HkPeBA/udniN/rsfX97UuW2/VYMjNe1i/V4z9HeqYyZoozOqFlPDXQiAYvDnIlQqxz4zNn2fHyJ0fnzbnug58hpJPy437nm6Ml6LJERzM3Kk8dbbo/DCjCnFOnjyug8e8hbob4ssDjniOhsfaHk8CM0kGj4AhemSCaa2w+0IwItQrnOsHV2sCcB4ND+QOIw2MPoyibefIf9Wq1fyis6nOUTtWI+6Gy69gkhBGZbzKO1TLySkpytEaDxjW/xmr4MUB3FE3rHmCzhZavmPHhn3FfL0erLdVULBAmU828VT68rJSvu5gdk5MUZqDN9543Sdia7wWfW8QtuGyy6mkqIhn3CWr/NARaudFvKjhVIrZZRuvvIrK2bkdL1ekB+aHDx50ZAun2tzcPP5UUKnSUsQwUcISFxA4dLuKL/fHNY2nY5Aa3DOQlg28XhhevpmsHYGWBkS+lB01teiRoCcnVR2viDHBNGSQA2jnYZ7I4ecJgrK0Dx0mO+CZgC/IddffqCYAdLP2CCNmEC+Y1I33Xfts1LNpL1DiS3tDWfq+eyNxJTypABMYcK1wDkYbmD1njoMkuprd9X3U7dk4G0pfnz9t2Nf742t78/d6UGdMhJnJI/05POsX9xFahaqqKvUZLH1Nvmz9eX50frqDdSU1+vxYtu3sQxOfYOalPK5UEytAEKHh1poKrSXVpEaXoSdJGE1DMP1lpGeqtZjgxI2BZwxrzTFrGv5yeB/5I3hvY9ACYnTjTbeopRPgeI12ANFtFYNGTGLQgv4NzyHaAQQa23PnnAk8Zu7BXxPPId7v7iwMvl6Pbt++9j+6np62+lnEGlyYsYeBAZQC6NMgxewOgTaAwdmypctoCfssoq5wX8A7GPVBXFwX1uhzFa1B0y4Iruen43HAiBRe1phJ5As5KlyktVEnVfzxAqcbkq8PeMyQo7k3EwZmfcHsYxSMRtCBQdAJaSKFhcvw4Bh9cvSopNWNvR7x4JuD/PW6PzW11Y4Zash/gM1zIDt6sUyEgSDs37dPzQTD8VgE9TzEDo2FrBHEtHz84Ktl7FB9vR502HvYv2gZ28Mx+wykCoIyoA3QvgD+1FOrxTHLDD4tWFsFghlub76xxUkF/87bbyuyBVKi42Fmz/Y3tyoC4SiXH2o89Dk5MzkIP3sd8cJ259Dty/1RmfjwD2pzEF98swovKPyAD/ynjLNFkZU2c4yGG3BH24OmRa+BBkd2jBZdZz9hVt/atesUkcP0ZC14yZWXO3/XDO0NbcGdmUOn83frS3tDnr48kyBG5RVlqrPU35xDZxbG9UanpDVxuo4YceN9hBEzlvrQM6T0eWz9acO+3h/uRXxqb/5eD+qLyRFYugGEQZv5YCrH90T9FZ+fn6GMtVnTF7Oir3XBJ2Ywxd++RprdL+fMafuSG8hDl6lJi84XsyJxbzXhQvi+vXvIsta+zh7eq/rdivemK5HR+Yy23bd/D13K9QM5wvOGRT2hJUN/py0QGDjqfkHnByKhw0DGXMtHX5WZkaWiu7oW6Dx8vR5f39c639G28Ql27TkIo56xB1LZwdr1o2wa188RzH+tPBDHs6c0VUPaKjzzJTxAPMSDWey7Spyj//WsyHBNM9WPg+YULBl5pWOo9XLuKDClE/5O+OiwJ8HLGqNjjIief/4Zt6YVT2kvtnCMdKBWhokMn/xwdaqeKnjgpQEznJW/dA7n33YmPXjJjUVuvPFm9dJ65pmn1KgGmkH4W4CQuBOUjVWXTaZQRd7QrtwJiBT8YdD+QCJQR3cPubu0gQhDZw5y3ccE2XVl9rHmD2dYzJzDSsuuWk/XPGHaiIqKYDLOPmb88nNnynBNM1WPgSW0I9DoQeMVCAlkG0Z9/GlvE3E9vmLi6/Pja35TIR7cIrB+GK6tg02GRrI11vqBVOAZwzN37bXXKwLx+muvjDU7v9JNxPX4VYFRIsOvFT7E0Fx18KQWrJN3sUnANFKYTg31ntFhzh2YMMNhdFHMJitPnZ67dBdjGMhDIEd/E4UhCAnMSHrdrLGWgw4FIz+jiXa060fZrg6R7spHW9OmHnfnJzoMxNJXnzxf6wIfLl/9uEDCpyoR9/V6dTxg6WnZCh3H322g2rAu15/2NhHXo+sx2tbX52e0fKbSefhGjvbe8KW+WvME7S9IFGYKXjK0bp63WbW+5O1PnEBdjz9l+hMXGmztj+hPuvdS3IARqd273/EJFzRK/EQEAVcEhh1L3c+GcY0vx4KAICAITBQCuexInZNjn1mOT8HoNfPQf7muKzVRdZB8pwcCASNS0+NypZZTGQGs54LVzM/zQqQigoAgIAhMJgKlvG4S3Coi2G3BbiZs47XLSjwurDuZdZWyJxeBgPlITe5lSOmCgCAgCAgCgoAgIAhceAScF5e58OVLiYKAICAICAKCgCAgCExbBIRITdtbJxUXBAQBQUAQEAQEgclGQIjUZN8BKV8QEAQEAUFAEBAEpi0CQqSm7a2TigsCgoAgIAgIAoLAZCMgRGqy74CULwgIAoKAICAICALTFgEhUtP21knFBQFBQBAQBAQBQWCyERAiNdl3QMqf0ghYTSE0IymcsBURBCYCAXwKFm0s2jIxy/qFhQZTYVY0XVaQQHPTIifiEiRPQeCiRmBintwJgjTCFEV5cbOooq2MGmz1PpUyIyaPkqyJdLB2P/UN9PqURkcKT82jqMy51HRqN/W0Nehg2XpCgBfU5A/YeTo7rvAQk5USF11OnbWl1FZ6dFx5+ZP44xtn0JKcaPrGkyfJ1jS27wf6U57EHRsCN6/LJrS853eUji2DSUxlNgXTw7fNoZqWLvrXJ04GtCY5TNC+detsCgkGXSM6UNxKp6ouvm+hBRRUyUwQcEFgWhGp7JgZ9Mmln6dXz79Iz53+u8uluD/clHMNLU1bSf++/WtU01ntPpKH0OSlV1Py0muov6uT6o++6SHW2IJj56wkc0wy1e57mQbdfGjXmpxD8z74XafM+2xt1Fl1jsre+AN1t9Q6nZuog5Rl11GvrYUaj7/lsYiY3CWUc/2nyRydpOJ0NVbQ2Wcep87qcx7T+HvCFBlLM675JHVUnqZjv/2yv8nHFD8uwqRIVHmjjSqbusaUhzHRnPh8ijHH0d7qXRf0g8nGOoy2j8FKQeICqmyv4AHL9CElH71hllp9eioSqfn8jbYEcxjtrKujATcDja7eAdpzvplW5sVSfnoUnaxsG+02+Xz+luWpikTtPttM/3i3ilpt/g0mfS5IIgoCFzEC08q019PfTbY+/rp07/QfUWVvup9mXP1xCgoxuW1+oZYICrVGUajFrooP4q+PW+LTKX7+Olr0mV9RRNost+kCHTjj2k8qAuMp3+iZi2nuBx5WpLCrqYq6W+vIkpBJ8+/7IYWn5HpKNi3CP7AmQ9XzH+/6R8A9Xdwtc++kjy76JIUETd3xS2pkqqrjmqz1ni5Dwv1E4Iv5+fTZOXO9kmeQHMi9l6b7mbv36CkxYSrCM3uqqLa1m0DaRAQBQSCwCEwrInWu6Qx9afOnaHPRK4FFYQrn1tVcTfsfv4f2/eBOOvKrzxGOeehNeTd/cUrUOnvjR1V9Kt/6Ox3+2Sfp0H99jBqObqOg4BDKvPyDU6KOY6lEpDmUVuTGUmdPP5tD5CPKY8HwvZwmOiyWLs/eRJZQq9fLtISEUHxYGFV02pTp0VPkmpZuKq3vpMx4K8EcFyjB9yshnd1ilg4UppKPIOCKQMCGxknWZLqj4B4623iaXit6yamcjKgsunnO++hwzQHaWf6m41xh8hK6bMZVlB6ZTq09rXSy/hg9f+YfI3yZLp9xNeXFDmtg9lbvpoM1ex356B1ziJlum3sXmyYWUu9gL+2pfEefGtfWFBVH+fd+h7VAedTX1UF1B16jyp1/G5FnzKzllLjwMoKWJpg1SL1tjVR3aDNVvfO0igstUs51D6h9mPUgBR9+jEeq9lFi4/GdjrjqpMs/W00RlW/5Pc26/V/JHJ/mdDY8hb9Ufu3HlTZokM0HttpiKnrxv6i7ucYpnikilpKWXEXx+Ws4bgb193axuewslb72K+pqrFRxk5ddS0mLNznSmazRNP/+HzmOy7gOrcWHWVsWReGpM1V45Y4nDef/QAkLNlBs3lImVMFOpsu8W75MYYznmaceo+xNH6UYjhMcGsZ+T8fp7NM/oIHebpVPQsF6ylj3fjLFJFFXQwVVv/OsI3/jDghbFpO52NnLyRQZx5g3sLn0Fap+9wVjNLWfesktlDB/PZ1/7kcUX7CB99eSKSqBuhsq6RyH2erLHGnmZUaCr9KJCs/az5CgECpMXkaLU5bS3IR51NvfSxXtZYron206rfJKi8ygW+e+X+3jOYB8YulnHff8YPU+ertiuwrHv9BgE318yWfofNNZOsR+fRu57RckcXvmvN8s3UJbS15Vce9b9ADV22rp+dNPOdJmRs+g6/Nupncqd/Kztt8Rjp1YczzdMPtWmhE7k2KZBNSzj+Hb5dv5edyqNCU38fOZyfWLCotR6ZalrGDfQrupFgG/PvgzgkbYH7ltwwy6ZnUG/faFM3TdmizKZ18zfPz1yLkm+s7vDtHAgLM/3S3rs+nGdVkUF2WmLiawZ8pa6dE/HCYb7xtlbnYMff6uAkph0tHW2Usv7Bi+b8Z42H/fFTl0zSUZFB9tpu7efjpW1EyP/fEI9faNTzOTHIH33b10hu9zeVuJa7H0kZl5lGG1UpTJ/opNspjpmwULVDxc9Q9OHKM+FzPfgZJWyk4Mp2UzY6i4rnNEnhIgCAgCUxOBgGmkGrrquTOZTzfNuZ1NF84znNZnbaQFSYvZLGdzoIDRHPyd5sTPpebuZopj35ErZ15L31z7HQoOcq4WXlpZ3EnM5rjwd5oRY++8HZnxDl7Q/7rmEVqXfQWFhYSpjufG2ber+MZ4Y9lHRx2VPZ99hdqUH1DmZfcyafmUU1bwE5p717+pjnqwr4d6O5oV2Ulb+77heHxd6OzxCxq6xlD2/dFhIWzKG036u+0Y6vSIH5W9gBZ87EcUmTmPSUufyiI6p5AKH/gFWRPtnbfOd96HvkeoP0hUN7RbFESxs5ZR9IyFOgoFm8yOOulAXUdscR5iScxU2572Rhrga9bS01ZvJ0R8T0wRcTpYbaNzF1MUl1XA9Ugs3Mh5WZR5M3b2CjKF2zvxpMVXUd5tXyZLUjbBL8zKWxy7CsydMHOmrrpJmT0H+noVkcy+6l9o5g0PukbniQPzlEk07+YvUcb6OykMZJY7s3AmyDF5S5zia62AN9+oq3Kvp39Z8mlanLpcTX7oZLNzYfJSWpm+1pFXEOMbZ01Qv5Chex5nsR8j3GqKcMTFTggTQzwrqzPW0ZcveYjWZG1Q5xPCE+kaLk/L8rRVtCL1En2otvGc36KUZZQVle0UPituLn3nsh/Smsz1ZA0Jp9rOGkqNSKMPzP8wmUMsKq41NNxeT4v9fiFc1xtbPF/+yuzsaEpjYvCNjxTSkrnxFBoSTJawEFoxL5G+fPd8p+w+fXs+3X/THEqKtVJnVx+Fm0No6dwE+sO313G64bJnZUbTfz64nDKTI6iHyVA4z3T78PWzKITzdpXvfnIZffi6WYpw9fUPUKTVRKsKkuh3D13q9/XgPl6de4NHDVS4KZKumjl8f3IiIijJYqGZkXbTvK2/Xx0jLCI0ZASJQt3LG+1+eLrtuV7PWI7h5wfp7XcmrWPJS9IIAoKAewQCppEaYK3Knoq31Yt/QfJiOlSzT5WIF9DK9NXsZNmvRtgINIda6Jb8O9X577/9bTULD+TrS9xx5MTk0iruiN6p2KHO49+Tx/+k9uexE+yDy7/iCDfuLEtdRSkRqVTUfJYe3/1dLm+AlnPYfYvtGiBjXH/3B/v7lNkKDt5WJg8LP/E/ygm9/M3/446+VWU3g32eIGeffszhmI2OPjpnkQrHPzhKH/zpR9Vx4af/lyxxaXT4fz7h0MI4InrYCQkLZxJ0jzprnEU484bPKPNaxba/UMWOJ9R5EAlolXLYx+nEn76pwkAG4b+EtLoeOGFNmUkDrGnTUr3rWcIPsvKh55lAtjrF1/G0c/mAbaTWpp81SyBcYdGJbmc8hsWm0NFff8HhkA4NVB/y4Q4bmirI6Sceoeazewkz9gof/BUTrWhdtNpmXfERlX9XXSmd/L9vUU97k7o/8+//sbr26t3Pk62uxCkNDkCczj//U6o/vEWdc+dvlpNoN9mUNgyTf9eMrp91i2rXX9/6OersteOHDjVuiIwgfmV7OX1350Mq6VdXf1u170e5zY82gzQpIoWg1fr5PtaU8QAkmJ+PBcnDbcm1Lp6Oke5j/Axg+8fDv6JdrK2CYLCyaeZ16jnB8ZPH/4gNz4qdTV9a9RC9XbmD/n78zypsvP+gePnWL/fToTONrJnKpE/dlk8rmNBoiQo30dWsNYI8/OsDtP9UA4XxTLZff2Ot0k598No8+t2LZ9X5B5hwgdTtOlZH32WtFuTxz62kOTy93yhrFiZT4aw46mcC9a1fHlBasNjIMPrhZ1coYvXh6/Lo9y/Z8zSm87SfFZ3DWvU76Dq+5389+nulDVRxg4jWZV1O75t3D5lYm3i07qBy1H/46GF1+ivzCmhNYiI9cvQolXSMfE6M5ZXV29taWpx9oGI85+8+ZultyE8gLH3Q2N5DNtbGiQgCgsDEIDByGDeOct6q2KZSr8lY78hlNs9UAnGCCUN3HjOZLOGlc6T2oCJRiNzPROvZU3Zz2dLUlY70vu4sG0rzwpmnHZ0DTIBt3S0eswhh/wWrxUpWaziPep21aMZEjSfedsySs9WXs1nroOrw43jmnRaYyCBhkfE6iEDAWs7ZCaUj0M8dmAAXfOwnVPiZX9Kyrz5BEelzVA6lr/9abbUTOsqqfGvY3Fj62m+UtiUyq8BRYl+33VwAUxpImRaYDMcyCxAmT4i+dp0fttDKQUIj7FomdWD4V/rarx0kCsENx7dTf08nWZnohZhZ28BkDyQK0t9royr2wXKVpMUbVVAVE6bQiHg2M+ZRUKiZWovsHWz8vGHNkDFt85k9DhKF8I6qs+pnjJMcbXfSrWp2b87CAAHmNhAUaHO0dPJECCzPEQj59YH/cWhxMRBxNdf5UsbM2FyKNseqAYYmUUiHgQZmv/prrjOWiWcngjUvwWy+9SYlNe2KRCHOP3dVQAlImPKvZU1hsiJHlXUdikQhvIedov/0yjkVZfUC1hwOSS7PaoP8vyePD4UQ/eSJ4X0dePsVOWr3BPu3wYS4MC+OslIi6M390MISrV4wTORUwNC/0NBQvqZIspidyUxpaxF9e9tXlPvBhwr/hT617AsqxZdWfoM1ex+hY7WH6KE3v6hIlDG/2UMaqbLO4YGK8bxxH35SkFir5/EtSCQwt7LZ0JM8elc+/fJjhfSh9Zm8pEI3/fKNwLRHT+VJuCBwsSPg+YkdAzJFzeeoo6eN5rNPRxj7K+ElvTbTbpow+kYlsj8VpNxlenVFW7kKhxnDX0kIt78YK9sqnJJWdVRSlNl9Z24OM1NUVISK39YeRH0eXnYd1c4j1/aq8+wHtcTJT6lq13M067avEMxKGRvuoU4mJ9W7n+M1qHY51cffA/gAhbPGCNLPRKi7qYZKmES1lRxRYZa4VLXtZnOacRkFkBL8QEqgGYLvEQgTzHAge8u+8lfluN56/iAZNWsqMx//KQ0SxwUxc5WgIWKKpSPcCdbmcicwOUK6DP5KOG6vPIONQ+B7hWuDKI2c48zwDkyC7qT5jJ2guTunw1o6+yiJ/WriWVtS7kYrNciuw2jTG3l5jf/Y8EOq6aim0w3HaXPxP6mOTWfjleauRvYbbB5vNmzCs88CO8V1C6SEmUxkDbeQiYlHCGteW1s9D1gOsIZJC0hNV08fWdmZX8uMVPt9LK11bisHTzeqKNGsSYLAxBfCvz426cE3SksZEzUXdyNKjrOo0wuYQD366eU6qmMbx/fWncRER1Mom966e9jHkU3F0GhpqWOftJ/v/zGbXhfRA8vskz0wSPzpnsfIHb4mbqMw5VWyo7m7ZQ90vnobw20N0ullZl0kk7xwxr2PTYUDXLfunpFEv6jOpsyoiVFhhF8Ga7gCuaSCrq9sBQFBwI7A8NssQIi8zSY5mAwWsa/Ivup3lf9Id18XnWocfpGbmGRBevuH/Wpw3DdgPw4Ldv+SQxxPYgq2v2yh2TIKtAaexNlrwPnImEY7QDvCBuxlwL9HS+PxHXSctSjZV36EIlJnKZ8qmNLGu+4RlhSA+c+TOOrg2pNwggF+2YbwFqYxfQ3IC0QvceEGZVq0LEtTZsqTf/k2a3JY0+aH9PBSB5Bg87BGRicPZs0QRMfR4Xrb2+meJOjrGeS6G0XXX4fpZSMG+V6ce/aHOthpa2Mncnfii/YNJr1Z3MFnJVjoMDs9u5N/nPwrYSbpJvbtg99eSsQVykfv7yf+4nAKd5fOlzD4DforwTSs5dFpzUOzykzsNxhw0W1Obz0U0Nre5+GMPRh+U5BeF/OTbWimmfaRMjHBgbgnJc7Pr4lNWpCn3iimWjdrgLV1uH8vQFPHT4xywHedZgfSdE3ujep+q8yH/j24/Mv0yrnn6XWeTWzU8OUw6YGcbnfffoaSOzbZCXYtU3WzXbvtOGHYAYFX4ny5hhhE/7vFbs7GauZfvD6X7l6bQVuO1TvFkQNBQBAIHAKBJ1Ll2xWRWs2Ord39XcqEt43DMJNMS0OXvQOGc6xR4IQLaewaHsEaz3vbb+RZSPCRimUzRkdvmyNqrNVufnIEGHa6u7uomU1idjON55e9mf15jBIWba9nN5Mco7SXHafjv/uqMvvF56+mvFu/okxxSO86e06nC2LT0Hikq9FeB6w55SpYiwpDdSNpASEp2/xb9QuLSqTcmx5U2rX0Nbd5IVLsCOJGuofKDuOZb/Bt0moBmA1DhsiV0ZfLTRYjgvTMQZPBRIpIlni75k0nwHXAwR3asKaT7zhp43Qcj1vVWXo8q06U1Nu1I5lDnZun2Jg9ih80sHAQv7Pgg8opXM+uc5cODuXazO3uvC9hMPWFh9k1OTp+bmye3nVsazvs7WMxzy4E8fNV3JEyY9qe3l7qZE1LUHAPdXV59iMzpvG0X15jxxqO5kbRmqr2Ie2TrbtPvUc0SdJxzfz5Hpi8jO+YJjZpRbAj+vmKNtpxyHcNYWtrK4WFWXgQ0kf9hoVyM9iB/6ur/029z7D8yomGo8pfE/6YmABz/axb6cqca+nRdx5m7aQd89mR9mfydOvw+0jX2d02k0k7pLTeM5Fqb29nLVk/t/dBt9ooY74YAMA3Cp83CmeyiqU8RAQBQSDwCIwcwo6zDLxE6jpqKD+hQJk9kB2mWRulorVUHS7jmUfGGX6rM9ep8JKW88boPu3DyRyyImO1I36cJZ4yIrMcx647A/yi7O7hjoDV43g5eRJM5XcIv7Bj56xSh5iyr8XocwRCAb+qrga7qTIifZaO5tj282w0SHSu/w7Ejkx4p7+7Q2mbsHAnfIS0xM29RK3l1NPRpIMU6YCpUAtm15Vvf1IdmnmxT3cC3ys4eeuZesY4WHwTRAl5wllcS8rya9UuVmFHen9EOYczfuEpOQ7THdInL7l6RDZY4gGSdsmtamv8F4aZkcFjb94nK+0+LbnJI7VtuhyQJy3QROwo20q9/BkimJKN7VrHaeu2aybgIzhe6ehpV75ZWNZACyZ5uEpxc5EKguk73uJsMo/lmbKus/HaOV8InM5Hk65uNhfbOp0IzGhp3J0/zMshQGazBgVO5lru2Gg3aZcNES2EN7PjNOq8aeVwe71zU45O4tgeOms3C965yZ6H4wTvWJlUwPHcncCUh2vCe8EoeK8drN5L397+VXr61BMObXp3X7dyyv+Pnd9gQr3PyaybFWEnhnU8YPNF8tPtGqyTlfZ74CmNzWajLh/zbGUTNSR06BMxnvKUcEFAEBg7AgHXSKEq8B25lVdxhqN5K5soylqLnWqI7+TB0Xwhv/gxk2lbyWZKj8qkK3LsneVr5192xMfLH1O6IRm8Jg8kL24OYW0pCPI+23SKTSmb6Zq8Gx1TkFtsTXR13g0qznj/QeOClbobT7zFJrHL1WrjmCnWWTNM+OAM3s+z2xpZO9LLs8dieC0pa9IM5dfkzh+olUkYHMexsGbz/H3KBIZvyLmLO1r9q95+ms11H6CCjzxG2IcDetpqO7mo2PpnR/KEBZepWXzw22ovP0GhrPVJ5jWlIC3nDzjiGXdABvG5mkV8ffAtgp9W3cHNjtlwcALHp1tyb/68IoXBvFK7Jp7lO/5qzMqnfWiaGthMivWeCh/4GdXufZlJVZ5am8s1g3PP/kgt8ZB5xYd56YcCais7SsGsDYvlpQyA7eGff0qtQeWazpdjvUAi1vXJiLdQxdDUdJ0WCzH+6Mpf0L6q3ewfc4IG+G952iVKY7GXw1xNzEiHdoo2fz+vAYWJEE1dTVTMfoWnG0/obH3enmSfpxU8GxZLJLxTsZ1Wpq0hzPRzlfbeVnr57LNqttm3Lv0u/fP8CzwBo5XSo7PosuyN9OUtn6Yuw7IkDbY6RQYzWQPz2RVfozNct37W4L3Bvl99Q0truJYx3uOz5a0ER/P0pAi1NMGWvVUEp/JFs+0k8edPn3QU8bctxfSJW+bSg3fMo3k5sYp4rV/srK1E5F8/f5quZLI1IzWSfvPNtbSbZ/lB8wyyNoeXZXie155CHF8FGsTfHf6Fx+hV/EmdPxz5pdP54na7pu1jebMoP7qOJw700/6mRipyM3sPWqOFXDdojfby52ICJdoM6qrFC1T+ko8gIAjwQGUiQNjNyyCASEHectFG6fLwUrqPP5eBNXPuXXi/CsbnX36278fU1jPsuDqLSdMd8+7WydQWYfhBoO1CBwVz3k/efZQeXPFVB5lqtDWoKeQ6rkowhn/Np/eoBR/1jDn42Jz400NOOcE5Gj5R6WvvsIezVgUak5LXf+tWK1Px5p+V03f8vDWEH8Qck+IgUkbHcXuGnv9X7HyC132KJSykmbH+LkfEim1/VQuC6gDUG4t/xhdcqn4Ih0ar4dh2KnnFfSdx5qlH2fz3OYrMyHcs0mmrLXEQqRomOqHhsbx45p2UtOhKe1F87cUv/4yaT7+ri/Zre/75n/CinQkKT/hzQbBYKeptFJgB8d29OXd9i7WEK9RPn4dvWb/Lsgx64VMdZ7Ttn3ZU0jdvnUV3rEqnn7wyTJqRDr40DZ11BK0qfhD4Au6vepf+5mHZgK0lr/G39mLVBIwN2XasdpS+4UykGDtfBN+axCKgMI/DrIRnB4tzYmFN3XnqfF5iItXR20m385IjmMKvBZM9XMkRjv9rz3/ydP67lVYZmmXIttLNI+LqfAKx/ep/71PrQ2HdqVt5IU9IP6999JMnjlHlkJkVYS/uLGOSFckaqQyHVgokLCU+XFmXEQfSx2k/9dg79B8fX0IZvObUjZdm20/wf5gIT5UMv2McJ/zYqed7v6N0q9O7yjX5G7XVtJqXPlgQG0O3Z9k143U9XW6J1PVLMXOR6B+7q1yzGddxM5tF02It/A2/CHrrdM+48pLEgoAg4B6BoDkFS3x7c7tPP+5QOHAmh6eq2X5j8Y1yrQBGnSm82CBMLBhdB0qg5cGClz28UrgnZ2WYv7AAJrbtFafcEqhA1cddPqgjvm8HB2yQOGzdCZZUwGKUWAUchCMQAjOaNXmmo+xA5IkFOs08i89WXaSWQPCWZyivvm5NymK/qV6e8VeuZix6i+/rue/dma86ok//7ohbH5NwXlAz3prIHXcvVfMM0QspWAsKC2tiQgVmlI0meDZQ1xg2PdZ31gdkVuBoZfp7PjoijPJnRFM9Lztx3svHe2Gem8ef8KngmX41/FFpb6LizoxVM/6K2WxW58WZ21s+E3WO+RP94v5CdiNn8vebI9qdPCDFreOFUO+/3E4ioe3afqKBnnjnwrbTgFyIZCIITGEEJp1ITWFspGqCgPpkx5o5cbTlSB3VtcmIXppE4BHAdx1vWMYL1Ja20VE2cwZaljPhxGdn4iNNtO98C73GbVlEEBAEAoeAEKnAYSk5CQKCgCAgCAgCgsBFhsDwFJmL7MLlcgUBQUAQEAQEAUFAEBgvAkKkxougpBcEBAFBQBAQBASBixYBIVIX7a2XCxcEBAFBQBAQBASB8SIgRGq8CEp6QUAQEAQEAUFAELhoERAiddHeerlwQUAQEAQEAUFAEBgvAgEjUvEJCWSx2D+JMN5KSXpBQBAQBAQBQUAQEASmAwIBI1LT4WKljoKAICAICAKCgCAgCAQSASFSgURT8hIEBAFBQBAQBASBiwoBIVJ+3G58ziY1Ip3MIWY/UknUiUQAnz3BPQk3RU5kMZK3ICAICAKCgCDgFoFpRaQiTFFUmLyEEvh7Yb5IdFgsLU1dScvTLiHsj1dun3sX/du671NkWPR4s5L0AULAFBJGD136HfrU0s8HKEfJRhAQBAQBQUAQ8B2BkISktId9j+45pjU8nHp7e6mvr89zpHGemRU/hz697Evqg8SnGo57zC0qLIa+fMlDdFv+XYpILUldQcUt56mqvcJjmtFOIM/7Fz9AJ7ncN0te8xp9fkwszYuJprLOzoB+gNRroQE6eUVBIn32mpl0zaJkKqvvcvq+XGqMmf7j/fm0gr/dtf1kI8VHmOg/7y2g5bkxtO1Eo1MNvn9XPt26IpVeOWj/mK4pJJh++uH5tD4/nrYcrXeK63rwvlVp9MBVOdTR3Ucl9d4/SNs/2E8R5ii+zyvoSO0hauluds1OjgUBQUAQEAQEgQlDYFpppHr6u8nW10kdve1eAbly5jWUGZVN+6vepf/c9Qh9Z+c36Hj9Ea9pRjt5zawbVZR/nntutKj0xfx8+uycuTQ4ODhq3KkWISXWTHFMkPC7d12GU/WiLPbwzASLCjeFBhM+uJrMBMtVkqPN6pwOZx5FUZZQSooK00EetykxFpU22mryGMd4YvP5l9XhLXPfbwyWfUFAEBAEBAFBYMIRCJ3wEgJYwLmmM/SlzZ8aNce0yHQV57kzT1FdZ82o8UeLYDVF0IasK6jR1kCnG096jW4JCaH4sDAq7Zh+2ijXC0uPs1BuSgSdr+lwPTWljpu6GulY/WGan1hI6ZEZVDkOzeOUujCpjCAgCAgCgsCUR2BaEKnLZ1xNebGzHGDurd5NB2v2Oo6xk2RNpjsK7lFhs+Py1fYD8z9MfQO9av+FM89QWWux2vf3X07MTAoOCqFjdYc8Jv3IzDzKsFopymSHNMlipm8WLFDxoZf6wYlj1DeNNFTtbFaDtuneten0yNNn1HUEBXm8/Ek/cbzWTqTmJiwQIjXpd0MqIAgIAoLAxYPAtCBSyRHJlBU9gyw8ay7KHEN1ttoRRCokOJTirAnqzplC7CahWEscwYcGYuW0Y5X0yCyVtLqj2mMWORERFMuaqDSrvRxbfz8lWez7HX3sO+YHicKswEsy1nksS5/YXrqFZsfPpbTITB3kdlvcUkQlLefcnvMUWFRro4w4M+UmR1BGvIUqGrs8RZ0S4dWdVaoemVH2ezUlKiWVEAQEAUFAEHjPIzAtiNSTx/+kbsS8xAX04PKvuL0p1R2V9N2dD6lzn13xNcpPKKDHd32P/ana3Mb3J1B3ztUdnp3VHz56WGX5lXkFtCYxkR45epRKOrz7cnmqgzU0gu4s+KCn047w7WVbaB2bHJelrXKEuds0TeHXAABAAElEQVTZUvxPv4kU8vn77ir6xMYZdM/aDPrBC/4RMXf1mMiwmvYhIhWdPZHFSN6CgCAgCAgCgoATAhNGpCxhZgphM1dPT4+azedUquHAzFqcUFMY9XK8nt4ew5mJ3w0NDaUwLhtO4Si7n7VI7iR1yOeqsdP7bDOknR0ZqbIo6xzdr8jMZYfy9btee2tPC/1o9/fcVcUpDPV+/vRTtI01U94Evl1GMfF9CTOZ1fXiugcGBoynHfvvnGmiu5lEFWREUaIPTuKOhJOwAz8pSGJ40iSULkUKAoKAICAIXKwITAiRspgtFBMTpTDtCAr2SKTMTLZiY+1rMnUGB19wIhXG5UdFhqt6trZ1kM3W6bYdNHMnPYP9pCLN0VTT6dm8Z+JrgDmvstNGAz6Y8sxsBrSyL9VghJWam1oc1z/A5sizTafc1sU1EGZO/PwRc5iFIrhMSGtrO9m6PC8x8My71fSh9Zn0gTUZ9OqhOn+KuaBx9YKcrd2tF7RcKUwQEAQEAUHg4kZgQoiUM6TelwDAWbsPs/d4znkG6si3MsvbSmlRyjJeQTuNzjWd9lh4ToRdG3W63cfOfKj4QReNUBj7SF2adTnj4t27+w022c2Oz2f/sRyPdcKJ881nqKj5rCOO81U7HzkiDe1sPV5P71+dRktzYggaKqP09tk1WcFevNC9527MbXz7qZGpKoPKtrLxZSSpBQFBQBAQBAQBPxCYECLV1d1F/U39FBoSSr3saO1Junu6qampiUJDTRO6kKfH8ru7aYDNeYMDg9Tb73kh0Yq2cpWFNvF5ym92pF0Ld7rVN7+sLtYE9fICpr1sXjMuZBrOPlLvy/+Ap2Ic4W+U/JN9pC73yUfKSKS6+f4M8PXClNnDi6h6ExChF/bV0B2XpNNty+1kRcfv7rPTpGA3fM8budLpA7lN4c/EQEB6RQQBQUAQEAQEgQuFwIQQKVQeq5zjN5r09oJIeCYxo6Ufz3kQCU9+UcZ8S3hVdEiuYQkG43m9nzVkLqtjouKLKBLjBqPWnmZ67J1HeMkF77nAR+qZU0/SGyWveo3YZHPWJIG0GYmb18R88p+H69Qq5ek8e88oWHkcFkyLKYSweGarzX6/McsPSqquXvc+Z8Y8ArWv701R89R2ig/U9Uo+goAgIAgIAlMDgQkjUoG6vHhLojKrIb8MXmwRkhc3h7C2FARrQ/nqT6QSjOGfccFHrFflySepuN3uY/WxvFmUH13Hq7D30/6mRiryc/bewOCAz7PsGrsaCL+JlH7W2IFM3bAkZUQx75xuojVz4+gHd+fTzlOsXWT2dykfQ17lNK4SykucP3TLbNdgXqZikL7/3LD5ERGuXMj3Pnvkdw3fPNHAZQ1/kgYfk74kY61aMPVkw7EReUuAICAICAKCgCAwUQhMeSI1i0nTHfPudrp+hOEHebt8u0ciNUDuZ6M5ZebjwXOnnlIrZ2/KvZ7+cux3blO9UVtNq3npgwWxMXR7VpaKU9fT5TeRcpv5BQq0G+tGFgbz3rX8/b0QFzXZ73eUUaQ1hAqZ8Fy5YPhj0iBYz+4Zdsw3+t7PSo0YWYAhRH9aJ4a1XPi5SjF/f89IpNZmXqYWTH329N9co8qxICAICAKCgCAwoQgEzSlY4qnv9Kvg+IQE6uTPosDv570qX1j5ddaGzaYvb/k0dfW9d69zLPfPyuY9mPRYecWLd9qoe8gRfSx5+ZMGDvmPXv5T/jj0IH196+fV1p/0ElcQEAQEAUFAEBgPAlNeIzWeiwt02r8e+wMVJi8hS4hFiJQLuDb2hzo7Cd/ks5jCaUvxq3SGl4sAmRIRBAQBQUAQEAQuJAKikbqQaEtZgoAgIAgIAoKAIPCeQiD4PXU1cjGCgCAgCAgCgoAgIAhcQASESF1AsKUoQUAQEAQEAUFAEHhvISBE6r11P+VqBAFBQBAQBAQBQeACIiBE6gKCLUUJAoKAICAICAKCwHsLASFS7637KVcjCAgCgoAgIAgIAhcQgSlNpLA2lcVivYBwSFGCgCAgCAgCgoAgIAj4jsCUJlK+X4bEFAQEAUFAEBAEBAFB4MIjIETqwmMuJQoCgoAgIAgIAoLAewQBIVLvkRsplyEICAKCgCAgCAgCFx4BIVIXHnMpURAQBAQBQUAQEATeIwgIkQrwjVyeuormJS4IcK6SnSAgCAgCgoAgIAhMRQSESAX4rty3+AF6/7wPBjhXyU4QEAQEAUFAEBAEpiICQqSm4l2ROgkCgoAgIAgIAoLAtEAgdFrUcgIqmR09k26YfQvtKNtKA4MDdGnmZZQbO4uaupvo2VN/o5MNx1SpwUHBtGnmdVSYvIQSrUlU21lLO0rfoHer3nbUahmb81ZlrHEcJ4Un0QPLvuA4funs81TSck4dX5N7I2VH59BvDv2M+gf7VVhosInuX/QpKm0tplfOPe9Ih5335d9NMeZY+svxP9DVuderelhCLHS87gg9ceJP1DfQS9fm3UwzYnLoHyf+ytd0G82On0sdfR306rkXaW/VLqf8cLBo8TJatnylCt++bQudPXN6RBwJEAQEAUFAEBAEBIHREbhoiVSsNY4WJC2msBAzzYmfx2Sqn1q7WxTJWZ2xThGpkKAQ+tqahykzKlshWddRQ3lxs9UvNSqdnj/9lAo3MRGKsyY4oW08NgUPwzw/aZFKH3rURP19diIVEhxCi1KWUYwlbgSRWsh1TIpIoWhzDBOkfGrjOoaGmGhN1gZ6/szT1NrTTAWJC1WeOG8NDaeOnjbKiMyi+5ic1XKdS1uLnOqWlZVF6RkZKiwxMUmIlBM6ciAICAKCgCAgCPiOwHAP73ua91RMkKjNRS/TM6f/RoODgxRuimTilKWu8cqZ1yoSdabxJP3qwP9Qe28rJVgT6V9XP0zQLL1Ttp3qbLW0q3Kn+iHRz675A9V11tF3dz4UUJzSIzPokR1fp+qOSpXv/KRC6u63OZUB0vSzfT+mtp4Wuj3/A7Qx5xpam7mBSo87EymnRHIgCAgCgoAgIAgIAmNGYMJ8pCxmM0VERJDJZPJaOXMY4kVS2CjxwkxhQ/HCvOaHk6bQUAoPjyCr2ULBwd4vsdHWQE+felKRKKTt7G2n040nsEsbsjeq7daS1ykyLJJSI9LJFBxGB2r2qnBoly6U/OXYHx0kCmUeqzvMRKrbqfhtJZsViULgnkq7SS+RzYyuUlJcTCXFRepXW1vjelqOBQFBQBAQBAQBQcBHBCZEIwUCEx0TparQERREvb29bqsDshUTE63OdQYHUY+HeOawMIqNjVHxbCHBHK/HbX46MIzLj4ywf6OvtbWdbF3OmhsdD1vtC2UMw34Q1zvWEq+CP77kQdfT6jglMtVt+EQEnmo8Pmq2JxuG49R0Vqn4VlP4iHRHjhwk/EQEAUFAEBAEBAFBYHwITAiRGvSxTmxJGxbj/nCofY/PDXDkYCY3Tmlc4zmOvWXmiKR2mrsanQOGjkKC7ND0sjP3L/b/xG2cxs56t+H+BgZT0KhJoCkbTWz9naNFkfOCgCAgCAgCgoAgEEAEJoRIdXV3UX9TPztFh1Jvn3ttFK6hu6ebGpuaKZRNcX3e4rEGqonjwUzY19c36uV3c/kD/f3U3z8wqvZqkNyTLsyGs/V1KudtaK3gP+WreCNGcGqHRLIvVndfl9qfETNTbS/Uv8jIaMrIzFTF1bFpr7Gx4UIVLeUIAoKAICAICALvKQS8OxCN41JhzoNJbTTio+LZbGz+806QkI9NxfNMzHR1+3g2nK2ra1QSpeN72sLJHLImY/2IKBGmKGX+cz0BcoRZdpjJ506au5pUMJzctSzgpRUupBQuXkx33Hm3+q28ZHjZhgtZBylLEBAEBAFBQBB4LyAwIRqp9wIwuIa/Hf8zr9u0lO5ZcB+v05RLRc1nCWs45fMnYBYmL6aH3vwSNXY5m/eKWs5TfkIBfX3tI3SwZh91MbE6UPWumt2HPE/UH6UV6at59fN7KTUynbJ4TSnEv5AC/y8RQUAQEAQEAUFAEBg/AhOmkRp/1SY4Bx9MdY1dDWoZg5qOaro06zL64MKP0R0F9yoSVcyEqctl+QHU+M9Hfk2HmEAlh6eoJRJumXMHpUfbl1PA+Xer3lGzAs2hFrXQ5xxePPMvR3+PU2w+HFDbQP5zl2diwvBMvsqKikAWJ3kJAoKAICAICAIXFQJBcwqW+O784wWa+IQE6uzopC4vM+S8JHd7aiLydFuQD4FWU4Ra2bx/oI8abHUjlh7wIQunKPGWRPa/slJVR4VaWd3p5AQffP6LX6PIqCi+Xx30ox9+f4JLk+wFAUFAEBAEBIH3LgJi2vPx3tp6O6iMf4ESV5NgoPIdLR9zGC8NwSQK8uorL40WXc4LAoKAICAICAKCgBcEhEh5Aee9eMrEa3K9tWObcsQ/duzwe/ES5ZoEAUFAEBAEBIELhoAQqQsG9dQoqL29lba+8frUqIzUQhAQBAQBQUAQmOYIXLzO5tP8xkn1BQFBQBAQBAQBQWDyERAiNfn3QGogCAgCgoAgIAgIAtMUASFS0/TGSbUFAUFAEBAEBAFBYPIRECI1+fdAaiAICAKCgCAgCAgC0xQBIVLT9MZJtQUBQUAQEAQEAUFg8hEQIjX590BqIAgIAoKAICAICALTFAEhUtP0xkm1BQFBQBAQBAQBQWDyERAiNfn3QGogCAgCgoAgIAgIAtMUASFS0/TGSbUFAUFAEBAEBAFBYPIRECI1+fdAaiAICAKCgCAgCAgC0xQBIVLT9MZJtQUBQUAQEAQEAUFg8hEQIjX590BqIAgIAoKAICAICALTFAEhUtP0xkm1BQFBQBAQBAQBQWDyERAiNfn3QGogCAgCgoAgIAgIAtMUASFS0/TGSbUFAUFAEBAEBAFBYPIRECI1+fdAaiAICAKCgCAgCAgC0xQBIVLT9MZJtQUBQUAQEAQEAUFg8hEQIjX590BqIAgIAoKAICAICALTFAEhUtP0xkm1BQFBQBAQBAQBQWDyERAiNfn3QGogCAgCgoAgIAgIAtMUASFS0/TGSbUFAUFAEBAEBAFBYPIRECI1+fdAaiAICAKCgCAgCAgC0xQBIVLT9MZJtQUBQUAQEAQEAUFg8hEQIjX590BqIAgIAoKAICAICALTFAEhUtP0xkm1BQFBQBAQBAQBQWDyERAiNfn3QGogCAgCgoAgIAgIAtMUASFS0/TGSbUFAUFAEBAEBAFBYPIRECI1+fdAaiAICAKCgCAgCAgC0xQBIVLT9MZJtQUBQUAQEAQEAUFg8hEQIjX590BqIAgIAoKAICAICALTFIHQqVzvxoaGqVw9qZsgIAgIAoKAICAIXOQIiEbqIm8AcvmCgCAgCAgCgoAgMHYEhEiNHTtJKQgIAoKAICAICAIXOQJCpC7yBjAdLj8qLIZSI9KnQ1WnZB2DKEjhF26KnJL1k0oJAoKAIDCdEZjSPlIANnbOSgqLSqDa/f8kGhyczlhfmLoHBU0YTpaEDIqZuYhazh2grqaqC3M9XMpXL/kWWUIt9NU3HqRB/psqsiYxiSJDhx+hYy0tVGHrDGj1ssIjKCciQuX5Vn0dDYzhGTCFhNFDl36HiprP0+O7vxPQ+klmgoAgIAhc7AgM9wJTFInsTfeTJS6N6g+/QQO93QGtZcqy66jX1kKNx99ym2/qyhspfd1djnOD3In1tjZQa8lhKn/zzwGvj6Mgw05YZBzFzVtLHVXnqL38hOGM825M7hLKuf7TZI5OUie6Givo7DOPU2f1OeeI4ziKm7OKsjZ+hCq2/ZUqdvx1HDn5nrQwZSklhCfR06ee8EqiIk0mWhoXR2UdnVTU0e57AeOIeV9uLiWYzY4cfnfufMCI1IKYWPpCfj7Fh4U58j+wq4nae3sdx9i5NCmJ2vv66GBTk1O48aCnv5u2lb1Bl2dvouzomVTaWmQ8LfuCgCAgCAgC40Dgojbtzbj2kzTjmk96hC8sJplCrVEUEmZVcULN4RSeOpNSV91MSz7/ewo2DXeiHjMZ5wlrSi7NuPrjBFLnSaJnLqa5H3iYzFxfaIq6W+vIkpBJ8+/7IYVz+ukst865k7Uw/bSjbKvXywCJ+sLcfFoen+A1XiBPfmrvHrrr7bfov0+fDmS2Kq/7cvMUifpTURF9Yf9++uy+fdTBhMlVvpQ/j/4ld5Zr8IjjzedfVmG3zH3/iHMSIAgIAoKAIDB2BC5qIuUrbHUHX6f9j99Dex69nU498QgN9vdRiDmCMi//kK9ZTGi87I0fJWKTXuVbf6fDP/skHfqvj1HD0W0UFBzCdfzghJY9kZnnJ8ynlIhUert8O3X3dXktak5UlDp/tr3Va7xAnuwdGKDu/n7qGxwIZLYqr4xwK9k476fLy6iYNWxlnR1s2R67WbOpq5GO1R+m/IQCSo/MCHh9JUNBQBAQBC5WBKa8aU/fmOicQsrccC+Z41Opp7mGyrb+iZrP7NGn1TYoJJSSCjdSfMFaikifQ4MD/dTNGpqK7U9Q89m9Kk7ysmspafEmRzqTNZrm3/8jx3HZlt9Ta/Fhx7HTDndkLZxPw/EdlLjwcorKmud0GmFpq28laLL6uzvZBHiEil/+2QgToDU5R9Uhbu4qpfHq7+qglqKDKi5IGmTmDQ+yNmkmhVjtDsIxeUud6nnyj9+k/l4bhVqilJYMaSp3PImNkrItf6CEBRsoltMFBQczFvbOHlq0eR/6PrWVnaCGI1spY/0HKCq7gAa4067b/yqbLP+ks1BEMWHBei4jgtrLTlJH9XnHOeOOKTyWcq57gCIyZivtXXdjFZVs/i218fW7St4tX2aftzg689RjlL3po4TrCg4No7bS43T26R84YTU/qVAlP1Y/Mh+cmBkRSXfPyFFx5sVEq+2d2TPoujQ7UdhZX0vbamtVuC//brjxFkVId25/k5qbPZvKfMnLNQ5Mj/fMmEHzomMpyhRKRe3t9ERJCZ1tb3NEXZmQQJtS0tRxGN+zfm5v3yxYoI5BoX548jj18H2EOW9DUoojXYrV4oiHwL+VldKZtpGE8njtYZqfWEhzExZQZXuFI71xJzkllW648VYVdPb0Kdq+/Q3jadkXBAQBQUAQcEFg2hCpOe9/iAb6eqi3s4VARObc+S068/fvUdOpXY5Lyr7yPkpZcYOdQDHZArECoUpeeq2DSIFImNjvyCjGY1/Mdf3dNpU8KCjEkU3G+nuYlNypHL1hWjOFxyiyBaJw8CcfUXVCZGiyFnzsx0pb1NfVTj0ttYp4JS26kso2/576bPYOMNQSqeqpzYogG8Z6QgMFsSRmqm1Pe6PCRx3wv562ekVK1PVGxPGxfXFT1DkibZYqM3np1YrE9Hd3kIlNmCkrb3AQqVm3/yvFz1tjx5KvB9cRM2uZzt6xtSbNsF8PY43JAP09nRSelkfzPvhdJkaPjfA/i85dzNhEU8GHvkeWpGyOb1NYxM5eoTDrZjy0ZERlqd3ajmod5LRNspgpyWJRYRHs9A3iYeF64Afp42N/JCY2jmaySW3xkmVUV1dLu9hsd+TwARoYIqH+5GWMm2qx0o+WLiVrSIiqY3NPDy2Lj1e/fz96xOHfhGvQ14P0IXyPXY8RbmKSZQxHmPEYJMydVHfaJwhkDuHqLk5MdAylZ9iJaG9vD9F2d7EkTBAQBAQBQUAjMG2IVFdzNR35xaeVWS1p8VWssfkM+zd9wolIpSy/XnXmIC4gXBBoS8xxw6P36l3PEn6QlQ89z87mrXTwp2wa81Hgh5RYeLmK3Vlr19CEhIVT+qXvU2HHf/9Vaq84pUjcwk/+j3KUT111E1W984w6n7H+LkUc6o++SeefHdaExc5azlqsDkctzjz1fbUfk7eM/Z++ra4TGhtX0c7lA7aRDtb97JwPIhUWneggUjo9yExXfTkd//3XqK+rTdU3Yf4GdRrO/YpEsXbs0H9/XJEyEKaFH/9/SmOj88B29m1fUWnrDm2mkn/+ryJv0LTNvuObfI8+S40n3lb3xJgG+2GxKXT0119wOMMnFKxnEul8DdoEVddZ45pcHb/LK9/jl2S20C9XrqSjzS308NHDbuP6EvjEX/5IhYuW0spVqykpOZluvPlWuu6Gm+jEsaO0c8ebVM+z5sYin5k9R5Gof5SV0ZOlJQST4EJ2Jn+ksJA+N2cu3bd7l5qLuLWmhvCDPHXpOgLh+vx+uybVWK4x3jPr1lONrcttPGMa7Ne0DxGp6GzXU3IsCAgCgoAgMEYEJoxIWXg2UwiPsHu4M+h1mWlkrKs5zEyhbPbo7emmHi/xyrf+WZEopK07+Bqbhe5TyyJAw6MICI/eYcqDFiqUSYImUr2dzbzfbCzS732YtyIz5pIpOkFpTZAByip/448qr+jcRYocdVSeViRKnWcSUsbmLRAKkARNpGDGg0BjpbRKQ1oTbXpUJ/34Z2IzGaS/d6QP0SBr8CChEVyWGzn1l28rEoVTMCnWH96iYsXPv1RtYcKEZgtiqytRpkqYWLVgRiG0StBE1e77J1niWTvGirLulnqChiwsMp7Ck2dSZ42dcOp02Ja+9msHicJxw/GRqo9oc6zyjeobsJs7Ec+dzB7yjzrtxpyF+LOYyERFucdA51dWVkz1dXV0YP8e9UP8S9asoUWLltGCwkXq19TYQK+8/AKdP3dWJxt1G8Vte35sjNJEbWczYzKTPugSm/i5KOUZhtkRTMKt4QGb7eetQvCTgiTyLEhP0tzSRCXFRer0ubOBd6L3VK6ECwKCgCAwXRGYECJl5c4iOsbu/NvBBMcTkQLZihnybekMDvJKpEBSjAI/KSv7EGFtI3WOO/PGE28pvyBogkCk2ktPUPn2v5CtttiY1O99kDX4Kw2yU3GfrY06Kk5T8Ss/Z7LQpPKy8gw5SEdNsdrqf+3lp9SuKTpeB1HN3peVXxKWK1jx9ae5bqWKREBLBnLmr2gtDkx/rhLEpiRIf9fItY1APmGCdCeW+HQV7Lp0Qif7SBmJlDU1z56c7zFmCLoT4OaOSDWd2u0uulOYra+TrKHhzDeZJHsx082JilbpPBGpa6+/idtZrFPergc7t71Jb7652RHc1tZCr7/6ivpddtmVdOmGyyiOZwQWFi7xi0hlMkmCwEz302UjTaM4B8fyQK8/hXxdRS/I2drd6nrKcVzHZO9Pf/iN41h2BAFBQBAQBLwjMCFEylfPFKe+cZRErmtIaefpkDC7jwwu89yzj7Oj+BFKW3ObMqnF5V9C+FXu/LvD98c7HO7P1u57RREn92eJzWf2OrjWcQA+JixBISZHUvhAYVZdFq+PFcP+QlhOAb8MXq/qwI8/rHyMHJF92OkZIkPBvDSDqwSHmlWQjmM839vpuTPV6QZdptvDVGiUUCaYECy5UL7Vrp0znsd+OzuRuxNftIQ17BuVE5NLceYEauyya8bc5eWYsdfmbBrUcV99+UWKHCJbOsx1W3TeWcsUy/5Sq9euo4ULF1OY2U5SQTIOHNjnmtTrsTXUTmZPt7bRX0uL3cY9x47nF0JSI1NVMZVtZReiOClDEBAEBIGLAoEJIVJd3V000NRPIWxm6+1zXkDQiGo3m/Mam5oplE2AfS6dtjEe9s3st9PbMWyi0+aqrgbn2Ucw++EXYrJS6iW3UMaGDzg5Ubvmq2xRIwP9CulqrFTxLez3YxTUGdLXPlxvHEMTdPYfj2JXOcPPvuPrykyZtORKqt79vAp3/YelDNwJZshBsPq70VQIv62QIXKlHc3dpXcXplctN7FvlVGMvmYI79SaPmgDPSxqakzv735ZS4kiUilMALwRqZzICLVUQPMQcXUt5/Tpk65Bbo9NWNRz2QpavmKV0j4hUl9vHx3Yt4d9pLZRS4vzfdSZwOcJYhkiTToc28pO+8QErMjubdFMYxp/96Gx80VShj6zU95W6jF6CGsxYQrFc9HOxLSiwnNcj5nICUFAEBAELiIEgifqWuHvZOuyjUqQYPaz2WwezX+6finLr9O7auFJOFDDr8dIEkCetGBpgMq3/67MZZj5Bt8pV0F6OF37MlPPNa3xuKPSbsLDjDRjOamrblDROgyri4PgGAVmycZjO1RQOM+mc5XeIfNhRPps11PqGKQMGIBowRdLS8rya9VuJ6+IrpdU0OdG22IpAgh8w7Qg/7jZK/Wh2nY1lKmZgjAFYialq4RFORMx1/OjHRc127VEM2NH4qLTYiYcfk3ddu2fDh/L9q67P0Sbrr5Okaiaqip65qkn6bHv/zu99OJzHkkUyjnCn4aBFLoxH9bwoAILac6NjqY0nr3nKrGmkSZZ1zjejrHWVBovf+Bppp4xbe4QjkXN54zBTvvQxN1x5z38u5tuvu12p3NyIAgIAoKAIDASgZHsYmScKRGCNZHgo4SZZqm8VhOkZu9LjrqFmiNp6Vf+otYuwppMMP0lchoQAHzSxR2Z6GooVwRg0Wd+yWtS7VVrP9Ud3Kwcqx0Z+7Bj4zqBEGGphcIHfkG17AeFFcU1EcGaTlpyb/4CRc2YzwtmbqeuulK1VEBi4RXqdNVb/9DRHFvUEb5TII6YNddaclQdl/M6WlgOAlLFC3Fihfbcmz9PcHwPZlMi8IKUj+FTLi3n9rH2r0kR1oKPPKaWjkjkGX1aw6Uy5n/AuPT131DOtZ9SSyDUHXiNoJ0L48/UwKQKh/q9j92ho/u93Vu9i+4s+CB/2uRKeuXcc279pLq5DiAq6exn9CDPgKtiUt7F5OLFSmdNpS+FV1dXUk1NNb29cwe1+7GwZxsPBkrYcRxO5Y8uWkwn2YyHBTS3cF7w7frF2TOEFch/wj5ST/PMvVomV/E8m3INrweVyGbDD+96x5fquY1zhssqjIulx3nJhl319era8U2+ah7EGMXM3yq8JGMtNdoa6GTDMeMpp31ftVtOieRAEBAEBIGLGIFpQ6SgtcGCl1qaT79LZVt+pw8VuYAjeNSMheqHEyBPbaXH6Dx/c86dnHnqUcq96XM8Iy/fsUinrbbEQaS8OTi75nfq/x6mufc+otZoytr4EXUaRAdl6JlvCIQ5LI4/xGzUsPW01rNJ7zlHuSrx0D+VB6+XhaUeoPXRmh8sMkpDRAoO7KG8zEPGujsJ61Ep4Q4ci4ECp7HI8d9+hQruf5wiM+epHzMCajl/gP26ljhlB/+xQSYuOfy5HSx26hCO33xuv+NwLDuYrffi2Wfp9vy7aHHyCjpQM/Ja8BHfnzNR+VhuHl2RkqKKaeQZcWMhUnAuH6v89NRJ+iKTJWie8CtqtxMp5LeTZwNiTavPMtG7ixfl1IJ1r/RyBzrMuPXlA8X/feY03Z+Xqz6N877sLJW83NYxgkitzbyMgnkNsWdP/81YxIj9xKRkR1jt0FIMjgDZEQQEAUFAEBiBQNCcgiWDI0LHEBDPqzJ38qi8y2UkPIasPCbB7DmYuDoqzzituWRMAC2ImWfyDbD/VWeNZxOGMU0g9+0z/HIIJjntO+WaP1YatyRkkYmXJeisLnIsQeAaz99j5Gvl5QagwRrvTEVdNtaUCuHFOjGDb7RZhVhjyxyXyjMmW0lp0pjIjldMwSb64ZU/p+r2Svr+2/823uwmPX08L/eBDx3j48PQTIFMTbQEsb/To5f///bOBD7K8tr/J8tksu8h+w4BEghhd0EQxQ1xQau41+1vqdVW2+q9Wtvafu69yv1obXtvpVrrtdqq/aiIVkUUlE1AWWUVEiAhIfu+zSST5X/OM/MOM5OZyTrAJL/jZ/Iuz/M+7/N+hza/nHOe8/5BvfT5iS8fcfvy56U33Ex5U/OVJ+2PLzxHsnoRBgIgAAIg4JqA13ik5BFkyX4zh+3cmZQ90GpIuevnqTaZo3jB3JmExKQuk8F59QF3l7ptk3EdSxa4vWAAjSrxnFflDcSkKrltZfKBXNNfH1OPiVbueoGSw9JYDnAZBP7Pm61eFljw50xaoC6Y1hevpcKGI/3yy8jMUlOTIqQQUWfyW8K9QAAEvJWAV3mkvBUy5g0C3kJg/vxLuJCuH329fSu1c54XDARAAARAwD0Br/JIuX8UtIIACAyXAF5SPFyCuB4EQGCsEfBY+YOxBhLPCwIgAAIgAAIgMPYIQEiNve8cTwwCIAACIAACIDBCBCCkRggkhgEBEAABEAABEBh7BCCkxt53jicGARAAARAAARAYIQIQUiMEEsOAAAiAAAiAAAiMPQIQUmPvO8cTgwAIgAAIgAAIjBABCKkRAolhQAAEQAAEQAAExh4BCKmx95173ROHBURQQkiS183bGyccExRLkfpob5w65gwCIAACZ4XAOS+kIvkFv+pluD4+ZwWQ193Ug5wC+R2G8rJlef/embTHz/sl/Wzuk+oVMWfyvp64V5hOR7OjY2icPnBYw18QG0dTIyKHNYazi++d9kP6zYL/Jr2f3lkzzoEACIAACDgQOOcrm6dddp/6xV277wvqMY3sO8riZy4mk6GJ6g995YDFfJgw5xpKuugWa1svv2DW1FxHzSX7qGzD30d8PtYb2ewEhEZR1OQLqa3iGLWWHbZpsd+NyJpOGVf/iPThcarBWH+Kit5/fkTfvReVM5dSL72bTm18i05tfst+Ah46yo+fQTHBcbTqyNtu3xMXygJlRlQUlfKLs0+0tXpoNsMfNjs0lJ7My6P3Skvp78UnhjzgY5MnU5XRSMt3fDOgMVKCQygrNIT2NzRSg6nT5TVrjv2LHpz5KF2cfhmtPf6Ry35oAAEQAAEQMBM45z1Snvyi0q9aTulXLnd5i4CIceQfFEZ+AUGqj78+mIITMilh7nU0/ZHXyFfn+b/ag+KzKP2KB0hEnSsLzyygibc+TXqer7xkuKO5hgJjUijv3ucomK/3Zluas4x6ertpc+mXbh9DRNSjEyfRLPb2nMvW0d1DbV1d1GrqOqPTnMceLOGTFRbq9r4Ha76llo4mWjz+evL31bnti0YQAAEQAAGiMS2kBvoPoGbv57T7+dtpx7M30pG3f0u93V3kpw+hlIV3DXQIj/ZLu/QeIg7plX/1Du17cTl9+z/3U92BjeTj68dzvNOj9/bk4JNi8ig+JIG2lm2iji6j21vlhIWp9qLWZrf9znbj4eYmumPbVlp9qvRsT8Xp/XvZ7/fp8Y9JxyLqotRLnPbBSRAAARAAgdMEzvnQnjbV8Ix8SllwB+mjE6izsYpKv3yDGgt3aM1q6+PnT3H5l1J07oUUkpRDvT3d1MEemlOb3qbGop2qj+RbxRVcZr1OFxROeff9znpcuv41ai7eZz222+HQXhOPU3doM8VOXUhhqZPtmuVc4vlLSTxZ3R3tHALcT8WfvNgnBBg0LkPNIWriXOXx6ja2UdOJvaqviDSxzCUPszcpk/yCzB6EiOwZdvP87vVfULfJQP6BYcpLJteUb/6nbJSVrv8bxUxZQJF8nY+vL7PoUefFizb5rmeopfQw1e3/kpLn30phabnU091NNbvXcsjyDcsIpIRizJT5fI8Qai39jtoqj1vbbHd0wZGUsfhBCkmeoLx3HfUVVLLuVWrh53e07Ot/TgFhUVT47gpKu+wekufy9Q+glpOHqGjVf9uxyovLV5cfrO07jjRkhoTSbekZqs/kiHC1XZaWTosTk9X+ltpq2lhdrfYH8mPJNdcrQbpl0wZqbGwYyCV0T1Y2RQcE0J+LCumGlDSaExNDQX6+tKehgV4+VkQmC/drklJoYrhZ7MnAW2praHttbZ97JAQG8ZhZNJ6FYZXBqARXbngk5yz50EtFRX3653Ge1NKUFJKQYbnBQH85doyKbUKbT+ZO4dwyovSQYHXt7emZdGWCOXG/ymigV44f6zPmYQvv3Ngp9GXJ2j7t2okrr1pCScmp6vDtN1+n9vY2rQlbEAABEBgzBLxGSOXc/BT1dHWSqb2JRIjkLPslFb7zX9RwZLv1y0pbdC/Fz15iFlAstkRYiaAaN+Mqq5ASIaHjvCNbsz0eSLiuu8OgLvfx8bMOkzz/dhYly4hYbEloTRccocSWCIW9v79bzUk6iydryv0vKG9Rl7GVOpuqlfCKm7aISte9Rl0Gs0fFPzBUzVMLK4rYsJ2neKDEAmNT1LaztV7xUQf8o7OlVokS9bwhUXxcp5pkziGJ49U9x824QomY7o420nEIM37OEquQGn/jv1P05AvMLPl55Dkixs/Uhrdug+LSzc/DrOXZuzvbKTgxmybf+Z8sjFb0yT8LzypgNuGUe9d/UWBcGvc3KBaRE2YrZh3MQ7PkMPMv6eq2Su2U3TYuUE9xgeak7RB/f+rm+wfyPOQj1sXHg7GIyCjKZGFUMH0m1dRU0/atX9H+fXuoxyKGnI0lieOJQYEUpQugvMgIauzsZG+OLy1KSKA3i4upocecjyR9skLDlMiKZOFVyflNjkIqjhPQ/zBzJgXw9eXtBpJ+T+TmqdsaWOg6Cql4fvbfTJ2qnls65UZE0IqCArqTPV6dljmLyPPn8SSHTCxc50++ln87HfyHhjOraa9Sp5PDzP+2nPWRcxNyJlFEpDnhPYDvAyHlihTOgwAIjGYCXiOkjI2VtP/PP1JhtbiCy9lj8xDnN/3ATkjFz7pa/TIX4SKCS0y8JfqoeOt3WLl9NclHbM5TH3KyeTPt/QOHxgZokocUm79Q9W6vNnto/AKCKWne99S5Q689Tq2njigRN3X5n1SifMLca6li2/uqPXn+LUo41B7YQMdXn/aERY6fxV6s03/RF777jOofkT2T859+rZ5TPDaOpiWX9xj6Jlh3c3K+CKmA8FirkNKuFzFjrC2jQ6/9G3UZW9R8Y/IWqGZZladEFHvHvv3fB5QoE8E09YE/Ko+NNoZsJ9zwmLq25tt1VPLpS0q8iadtwk2/4O/ox1R/eKv6Tmyvkf2AyHg68Mqj1mT4mNz5LCLtnyEp1OxZ0n6xO47xTV0dyUcEyMtz5tCBxiZ6+oALb6LjxU6OxauSP20GzZl7PsWNG0fXXLeUFi+5lg4fPEBbNm+gWvYiubJU9vg8vHMnlRnaVZcZUdFksBEq4p0SK+Bcrl9Pmar2HX/ckp6uRNSq0jJ6o9j8b+sH2ePpyiTXpR8+rSinv50wJ60/k19A2ZwDNSM62irSfr53t7rNLWkZtCw9jVay52xXfb3jre2Ouzknra2zhSIDo1l0+XKOWo9dOw5AAARAAAROE/CYkArU68mPvQSd/Be6yWQ6fUeHPX2Anvz5r2VTZwd1uulX9uXflYiSy2v2fsZhoXs5RBSjPDxKgPBf2RLKEy+UP4sETUiZ2ht5v9HhroM7lPBWaPJE0oXHKK+JXC33KvvidTVQeNY0JY7ayo8qEaXaWYSUcnhLBIWIBE1ISRhPTDxWyqtk8ZpooUfVOIgfOg6TiXWb+uYQ9bIHT8w/hO/lxI68+WsloqRJQoq1+9arXtF589RWQpji2RIz1JSoUKWEWDWTFYXiVRJPVPWuTykwmj0Y7CjraKol8ZAFhEZT8LhMaq8yiwLtOtme/OwVq4iS47pDm2RjZ+H6SJUb1dXTZXfe8WCCJT/qaIvZm+fYPn5CDoWFOWeg9S0tLabamhras3uH+kj/8y64gKZNm0lT8qepT0N9Ha355F903CKKtGtl+xILFE1EyfHuBvdiRfo42lwOC4q9W1pibfrnyZNuhdT7LLq08OH2ulolpIZbWkFuXm+sp5CAMIoJjKUaw2kvoXVivHP48EFKTDSLvI6OkV1Ra3sf7IMACIDAuUzAI0IqiD0E4RHmfJA2FjiuhJSIrQhLbku7r49bISUixdYkTyqIc4iktpFq41/m9Ye/UnlB4gkSIdV68jCVbXqTDNXFtpcOel/CcZKv1Mt/mXcZWqjt1FEqXrOSxUKDGiuIV8iJtVUVq632o7XsiNrVhUdrp6hq5ycqL0nKFcx+YhXP7aQSEeIlE3E2WNO8OBL6czQfP3Posdto9pLYtov4lBCkMwuMNv9ybK88ZtfczjlStkIqKCHb3M7fsawQdGbCzZmQajjytbPuducMXe0U5B/MepNFskVw2nWwHOSEhas9V0Lqqquv5X9n5hCUs+vl3JaNG2jDhnXW5paWJvp87Rr1ufjiRTRvwcUUxWG8/PzpToXUviazB9Q6wCB3/PgZJTwpoUEJ42nWyKUKJGTpzJr5D486/gNEs5OWHKUgy/eunR/KNoxFlFhzp+vnWvfZmqEMjWtAAARAYFQR8IiQcv5/+3252f1+6OcixxpSWvK0X4A5R0ZGP7b6eU4U30+JF9ygQmpRk84j+ZRvecea+9N3Fv2fqd61RgknVz19deY5OM6xx1Kvx8fv9DJyyYGSVXWpXB8rgvOFpJyCfJK5XtWeF76vcoxc3cfZ+U6LGPLl0gyO5utvLs+g9bFtN7U7995IH+26Xl6mb2sSKrQ1fxaYYlJyoexLs3fOtl32WzmJ3JkNxEtYxblRGRFZFKWPYQ9J38RsbVzrir0W+9Cg1r72k48o1CK2tHOO2xPHi+xORXK+1PkXXkRTpxZQgN4sUms4cX3Pnl12/bSDVjfeVK2Pu62Wt+RMNDk7J2PZCi53Yw+2zYfdihLWEyHb0W3/nQ92LPQHARAAgdFOwCNCythhpJ6GbvLjMJupy3VYr4P/mq7nAoH+/Jd4l8MvbUfwes7bMbWdDtFp4Spj3Sm7rhL2k4+fLogSzruekhfcapdEbddZHXAsaphmrC9XIwRy3o+tyZzFulpPz1uOxRNU9N6zsquS4Sfc9IQKU8ZNX0SVX3+ozjv+kFIGzkxWyIlJmNM2VCh5W34WcaUlmju73tk5EUZiOs6tsjXbXDM53655+sQb6KKoqe31g90vbSpRQio+NMGtkMrgQpMiKsR748yOHv3O2ek+53RS1HPmbJo1e67yPkmHLq73tGfXDs6R2khNTfbfY58BhnFCwnOSIC4J5iKqeix/ZYh3SZLPR0o0ieerP4tiESVW3mL/vy3H6+LjEyiSc8HESjhPy2hZhOHYD8cgAAIgMJoJ+Hrq4STfycDLq/sTSBL2M/CybVfhP21+8moSzSThWxKoJa/HViSIeNJMSgOUb31Hhctk5ZvkTjmaXC9J1wNZqed4re1xW/kRdSgr0mzvkzB3iTrfZhMiE4FjaxKWrD+4WZ0K5tV0jmayhA9DkiY4NqljEWXCQISW5GJpFj/rKrXbzhXRtZIKWlt/WylFICa5YZrJ+FET5miHamusK1UrBSUUKCspHS0gzF6IObb3d3yi0ewlyozsy0W7VoSGfBo6nIsord9AtrfcdhdddsViJaKqKiro/Xf/SSue+Q19/NEHHhVR2twkWV6EzgJOdNfsUhYrI2ESBhSbHO4+V0z6ZESaQ7YafznnzK5cfA3dtOw29UlKMS8McNYP50AABEBgNBPoqy7O0aeVmkiSoyQrzRK4VpNY1c6PrbP11/NqpcfeVLWLpCaThP5i+RoRAPJKF2diwlhXpgTAtIde5ppUO1Xtp5q961RitXXgAewYeE4iiKTUQv6Df6ZqzoOSiuKaEJGaTpplXfcohaXnccHMTWSsOalKBcTmX6KaK756T+tm3cocJXdKhKOsmmsuOaCOy7iOlpSDEKvgQpxSoT3rukdIEt99OZQovMTKhvAql6Zju9j716AqpefevUKVjojlFX2ah0sNzD+E8cnP/0oZV/1QlUCo2fMZiXcugF9TIyFVSajfueImrfugtzsrt9Oy3DtpYdoiWnPsA6d5Uh08B6kUnhQcRA/nTKQKFuVG9k59VO7em+JsMpWV5VRVVUlbt2ym1hEs7CmrCrVE8vQQczh0cng4LUkyi48TbW10kL1d/ygp5hV3UfRjfo5ci+CRMgojYVIIVOya5GSK5dzE4tY29aqYL/h5He3yrKvVqfXFnzo22R1L7hoMBEAABMY6Aa8RUuK1kYKXmjUe/YZK1/+fdqjEhSSCh6VPVR9pEPHUcvIgHed3zjmzwnefpaxrf8Ir8iZZi3QaqkusQspdgrPjeEf+8TRNvOO3qkZT6qV3q2YROnIPbeWbnJRwWBS/iNnWw9bZXMshvQ+s91UXW36oMbhelpR6EK+P5vmRIqNkEVKSwO7PZR6SL1pGUo9KGYeGpBiocBqKHXr1Mcq973kKTZmsPqxiqOn4Hs7rmm43nOSP9bJwyeDX7aiXS2ut3L/x2G7taEhbWa33UdFqunHSLVQwbjbtqer7LBICkyX992dl0yXx5tBqPSdsD0VISXK5JyyXF1Tcl21JzLfcQGo+yUdsXWWlElLHW1voNwf2K0EoAkrCea9zyOzG1FTLVQPb9DjJN5T3D64sLKSb09JoXlyc+si7+hyFVFJoCqWFZ9D2U1uoqcN9KDPcMn+ZVU2184ULA5sxeoEACICA9xLwycmd7uT/dgf/QNG8dLudXxhr5HCep0xWz0mIq6280K7mku39xAui55V8PZx/1V5lv+rMtp+n9s0r/DJIQnJa7pTjvaTSeGBMKum4LEF75QlrCQLHfoM9lnGDuNyAeLCGu1JRu7fUlPLjYp2ygq+/VYUSctVHJfCKyWZSnjQWssM1eVXJc4tWUmVrOT2z9VfDHc5rrpe8KMmZ8mevzzvzLqLj7EH6mYtE95F8qHvyl9PspPPpqQ0/5by0OpdDS9mSx574pWr/7tBBevedt1z2RQMIgAAIjGYCXuORki9Bluw3c9jOnUnZA62GlLt+nmqTOYoXzJ1JSEzqMhlG+I94GdexZIG7eQykTSWeW5LP++svVcltK5P3138g7aYeE63c9QIlh6XxWjIug8D/jWZbyF61bfzqGAlPSu7X7ekZ6nH38itnzoQVNRylfdV73Ioomcf4CRPVdMRr++ma0yH2MzFH3AMEQAAEziUCXuWROpfAYS4gMNIEJOdoFXufxGo47Ka9/kZClQ/t3DFiK/dGYt4pqek0gQudVldV0cGD+0ZiSIwBAiAAAl5JAELKK782THq0ErgsPlG9sy+WQ2fNXDqksKWFPubEee3deaP1ufFcIAACIOCtBLwqtOetkDFvEBgogc+rKkg+MBAAARAAAe8g4LE6Ut7x+JglCIAACIAACIAACAydAITU0NnhShAAARAAARAAgTFOAEJqjP8DwOODAAiAAAiAAAgMnQCE1NDZ4UoQAAEQAAEQAIExTgBCaoz/A8DjgwAIgAAIgAAIDJ0AhNTQ2eFKEAABEAABEACBMU4AQmqM/wPwhscPC4ighJCkYU9VxokPHpmXAA97MhgABEAABEBgVBAYtUIqInsmRedeOHJfEledlpcmh6VNGbkxR+lIfrog9VLmkWL1+Hm/pJ/NfVK9ImY4yC5KW0i/nr+CMiPtXyA8nDFxLQiAAAiAwNgmMGoLcmZe8zAFhEbTN4euHZFv2MfHl7Kue1S9S+7b/7nf5ZjxMxeTydBE9Ye+ctqn4Mevkq9Ob23ramuiusNfUe2366ijscp6fig7kTlzSF4cXL3rE37BcI/dEPnLXyRffRC/zLiEjrz1tF1b1rU/ofDMAipZ+zI1fLfNrm0oB7rQSEq/cjm/XPooHXz150MZwnpNfvwMigmOo1VH3nb7nr1QnY5mREVRKb84+0Rbq/V6252NJetpyfildH3OzfTCN8/YNmEfBEAABEAABIZEYNR6pLpaGqjH1DEkKM4v6lXjdbU1Om+2nE2/arkSEa46BYTFkH9QmLmZvVyBsSmUfNEymvbQX2jczKtcXTag82mX3UfpVzxAPn66Pv0DY5JJ7h2RPYO9anl27SEJ2aotIDTK7vy5cLA0Zxn19HbT5tIv3U5HRNSjEyfRrOgYl/3aTC20o3wbTYieRCnh6S77oQEEQAAEQAAEBkpg1HqkDvz10YEyGFA/8fDsXHHTgPoOpNPu529X3Xz8/Cll4V2UeN71lHrJ99mbtGYglw+rT/rlD9CBV34yrDHOxMWTYvIoPiSBtrCI6ugyur1lTphZnBa1Nrvtt/b4RzQ76Xy6bsL36E+7nnfbF40gAAIgAAIg0B+Bc1pIxeZfSvGzr6bKbaup7tAmu2eJn72EYvMvodIvXqfmE3tVmz4ynrKufcSu3+HXn7A71g4ixs/inKeLVUjLl8WMqaWeaji8VrFtldZFbSXPKn7WEuu59qoTKgRmPcE74kmKK7jMekoXFE559/3Oely6/jVqLt5nPbbd6e3u4udbpYSUnz7Ytok9S/4UxwxkDiFJORyu66aOhgo6teltaizaqfqGJI6njMUPqn0J64nlfn8F9faaQ3v1h7bYPVOXoYWCEzIpOD6b2quOqf7EnjFnJjlhiecvpQAet7ujnZpL9lPxJy/28fTF5M5nr9rNpIuII2PdKfV9ORtPzsUVXM48ryZ9VDx1dxqo6dhuKl6zkoSDo+XF5atTB2v3Ozap48yQULotPUPtT44IV9tlaem0ODFZ7W+praaN1dVqX/tR3lpGph4T5cRM1k453U4rmEkzZ81RbZs2rqeiwqNO++EkCIAACIDA2CZwTof2DLWlJEIhecEtfb6l5Pm3qjZjbZm1zU8fwqGyVPUJS83tE8LSOkZkTaeJt/yKYvLmU29XJ5k4XKePTqTEC7+ndbFuJc/KOiaHxCQPydEk50nHYTH5aKYdy9Y2J0pr17ZB4zIo8xqzd6i98oR2Wm3TFt1LGVf/iMLSp6o5ivAQQTVuhk0IkHO3tHtJHpeYP+coaef8tDCiaiE6teEfai/9Std5XtIhef7tKicsKC6duoytKhwpwmraw6+Qj6+fZTSzMMq+4ecUGJdGItKCeCvHzmz80scoc8lDSsj1sHCSUKMI0PwH/0zOxFxyWKoaprqt0tlwFBeo50+g+oT4+1N3by8Fivi0nOviY2dW3V5JOl8dhegsIVYnnVJTUykpOVl9YmPjnPTAKRAAARAAARDg37nnMgRJVpZf4oExKaQLiVRiQuYr3hTJMzKyd6azpdb6CO1Vx2nP7+5QxwWPvKaSza2NNjvpnEskVrRqhTUpXLw/4RnTbHqZdyu/+RfJR8TD7Cff79MuJyq3r1Yf2Z/z1IecbN5Me/9wjxy6tDm/+MDcZvEGGevKqOi9Z+36i+eGXUu09/d3k6m9SbXpgiOVN0frKIy0e+X/6CUKjEqkfX/6QR+vkda/4cg2Spq/jMJS8ygwOomM9eVak3XrFxBMSfPMovLQa49T66kjyjs2dfmf1PgJc69lLxez4LmnXWZ+zqNv/1Z5yWTFXv7DfyFdsNlDpA0anpFP0XkXqXkd+tu/U3vlMfIPDKPJd/4HBcVnUsLc66wMtWuSQs2epZp250n439TVkXzi9IH08pw5dKCxiZ4+4Nzzp40p26qWCkoOTaXksGQ6Wv+dbRP2QQAEQAAEQGBQBDzmkQrU6ykkJIR0vJrKnekDpF8oBbjoV3dgo7p8HK+G0yxhrjnUVrN7rXZqUNtuk1H1F2+TZhJaajq2Szv0+LatopDFxHEV3pKbSfgsPKvg9H1ZpEgoT8SKv40oMbU3KmFzuuPg98q+eENdlHb5/3N6cXjWNCUcRaSJiBITPqXrXlX7EsoTC2KBK17AzpY6a6ix22Sgiq/eUe22PxLPW6oOG4uYMTuKgiXBPXKcCqdKQ0zuPNvuaj9cH6lyo7p6+ob9bDtPsORHHW1xnx+lXVNjMIf74kMStVN9tiXFxVRSzGFc/lRXOxdyfS7CCRAAARAAgTFHwCMeqSD2EIRHmMMmbSwETCaTU7AitiIsuS3tvj7U6aRf1dcfqpya2GmXcG7Qm2qcqEkXqG31EIVUxfYPaPwNj5EIieQFt3Ou0Amq/PoDajiy3ek8PXHStiyAhPem3P8CZVz1Q2o+vld52sQTVc9lEWKmLCDxBIlHqvXkYSpjBobq4mFNqWbfen72+yhy/EwVXnMcTASSWFtVsdpqP1rLzKJKF24WoLISUMzIIVhbay0vtD1U+/pYc9/oyReQfBwtIDLB8RQZutopyD+YtSSLShdhOrkoJ8zs/RqokArnwpxibVZGAAAACoVJREFUjR0Nauvsx/79e0k+MBAAARAAARBwR8AjQsp5Zkrfadj9bnRxkQrfNdeq+kiSTB3ACc1+AUHUVlHECdBtfQcdwJn6Q5vpEHtR0hbdTSEJ41UulZQEGIm6RwO4fZ8uIoyaT3yrShNE5sxmUfeh6nNs9fOcpL6fEi+4QYXUoiadR/Ip3/IOlW0we5X6DDaQEwz+1Ka3OCx3PzO4t88VvrpAdc6xfESPqVOd18oraP16u9lzZmOO10mTn6V21snP/2oXjtUu6zL0/S6rODcqIyKLovQxVG88HcLVrtG21hV7Lc7rR2n9tG0ih/TETjWXaaewBQEQAAEQAIEhEfCIkDJ2GKmnoZv8ZDVcl8nlxDo6O6i+oZH8OVG4q8t1+KZmz+fsObqVxvFKPT0LKbGqHR+7HHcgDa2lh+jQ/z2uQmfRk86nbE6ElkRuWfk33MKYPOhApmDXx9ffHALV2YQbpUPN3s/UR3KPErhEgnCIn7PErZDy8fGzG9vZgfBLufhOXhE4jzqaa+y6aHlTgczC1vScfyXW1dqotlo/xzkHRvf1LnU0cIJ3SBQZak5S0/E96vr+fpQ2lSghFR+a4FZIZYSGkIHFXKNF6PU3blxQnKpN1WCsc9k1NDScklPMnrkaDu3V17vu63IQNIAACIAACIx6Ah7LkZIwncFocCuQhK6E/QwGg8vwn/SRSt1isfkLKXLCbJU7VHfQnDulGgb5Q5KpraZCaFt52b7ZOxGSNN7aNJQdySWSRGt3K/Ucx5X5aK9TaWGBp5mIJ80k96h86zvq2cUjJ8nxjtbNq+bEJMepP5P8q4qtq5SQ1MomaNe0lZtDeJKzZXsfLTetjRPFxQw1JSoZPjg+Q+VKadePm36FtmvdNh0zi6ckLpPgaMJKEs8d7URjkTqVGen6Owny8yP5NHSYvWWOYzgey/v2QgLCqKKt3G2l9PyCArpp2W3qM+e8vqFIx3FxDAIgAAIgMDYJ9P1tfA5ykPwgCX9JLpGYeDSc1R2Sek6ypF7Mn5OgxVIuvkNt5Uc5J0FL2Cn/oZepm1fW1fPrUEytDRTBr0eRZf5SK6nhyNfW/r7+ARxWu4kTr9nDxHk6YrJaUBtTyiZU7fjI2l92RJDJPKfxPRoLd6oxa/auM4sOm56T7vgP5bjSsYCQ0gEyvjxj49FvVC9/fSjNeOxNauHaTU1cJ0sKgsZyvpSsHmwu2ef0+ZtPHlJetezrfkqNebuokz1NLScP2D2TzRR45d17vDqPn89BlBm4pISEOcVDJ6UJqnd+wislszhfy5xkXrr+b2oYYVnHYVIpI5H/4IuWftmqNpftfWRf2Mfzaj9ZLTj1gT+q6wRAaNJEihg/g8sy/J2F4nt2l+2s3E7Lcu+khWmLaM2xD5zmSXUwlzb2ZiYFB9HDOROpgkW5kb1TH5WfshtLO1iYvkjtrik0h0+1845bycuCgQAIgAAIgEB/BLxCSMlDVO/6lOT1K2JVXI7AmaVeerfKn7JtS5p32gMiokd++UtytOREJV14k7kre6VExJR8/qqdQNEFR3A9pWW2w6nxtTElR8tRSBW++ywXBf0JhSZPshbplPfbKe+NzUhSDkAZ31vqQzUW7qCTn/3V2kM8RlKXSWpIyUdMxGPLyYN0/P3nrf1sd0SMyEpE24RufUS8nZCyfQdfD9fQqtr5sSo9YDuO7B/5x9M08Y7fqlpdwlVM+svz2ZacOP7h75V4FZ6SuC8mRUAlZGhr8jz7Vz5IOcueUgItxSKKpY+pvZnaeAWjo8lqvY+KVtONk26hgnGzaU+VWWTa9uthfiuLCun+rGy6JD5eNdV3djoVUn4c8lyYfjk1Gut5rB22w/TZj40xh5ClofyUc1HW5yKcAAEQAAEQGHMEfHJyp7tI8x4ci+iYGGrnF8YaOZznDSbhpCAu3ilbWeLvzMN1LjyHiDk9r47r4XwyayXyMzgxKW8goTvx3Gk5Uc5ur83TwEVFJQzpzoR5sAgp9q51cB0r8ey5Mimc+dyilVTZWk7PbP2Vq24DOj836UL6fv4D9Nq3L9E3FVvdXvPIT/+NQrmsQntbG/3uObzg2C0sNIIACIDAGCbgNR6pkf6OxDMlK//OdZOwplaM82zMVbxu4gXrzwYzT2Gv1afqd1x+ncvKXS9w8cw0DgRyGQQpQjVEazO10nvfvU07Kre5HUEfEKhElHRau2Z4ixrc3giNIAACIAACXk9gzHqkvP6bwwN4jICs2Js9Zy7XNeukrzZv9Nh9MDAIgAAIgID3ExizHinv/+rwBJ4i0NraTF9+8bmnhse4IAACIAACo4iAx8ofjCJGeBQQAAEQAAEQAAEQcEoAQsopFpwEARAAARAAARAAgf4JQEj1zwg9QAAEQAAEQAAEQMApAQgpp1hwEgRAAARAAARAAAT6JzBiyeb1dXX93w09QAAEQAAEQAAEQGAUEYBHahR9mXgUEAABEAABEACBM0sAQurM8sbdQAAEQAAEQAAERhGBEQvtCZPoEB1Nz4ig+jYTnaw1UF1r5yhChUcBARAAARAAARAAAXsCIyqkMseF0J0XpVjvsHpHJa3eVWk9xg4IgAAIgAAIgAAIjCYCIxra21vSRD994yC9tL5EMVo8fdxoYoVnAQEQAAEQAAEQAAE7AiMqpLp7elVYb1thA7V3dlOAvy+/ZhYGAiAAAiAAAiAAAqOTwIgKKVtEnV096tDXF1LKlgv2QQAEQAAEQAAERg8Bjwmp0YMITwICIAACIAACIAACzgl4TEh1dfeqO6bHBTu/M86CAAiAAAiAAAiAgJcT8JiQKqs3KjRLZyVQqH5EFwd6OXJMHwRAAARAAARAYLQQ8MnJnW52HY3wE4UH6Wj5ojTKTQ5TIxtM3fSf7xdRWb1hhO+E4UAABEAABEAABEDg7BDwmEcqOMCXYkMD1FNJ4vmJ6nYyspiCgQAIgAAIgAAIgMBoIeCxmNvV0+NpXISethc10kvriskjbq/R8i3gOUAABEAABEAABLySgMc8UnkpoQrIv3ZXQkR55T8NTBoEQAAEQAAEQKA/Ah4TUlr9qMrGjv7mgHYQAAEQAAEQAAEQ8EoCHhNSfpZCnL2I6XnlPwxMGgRAAARAAARAoH8CHhFSQTo/VfJAXhnTAyXV/7eAHiAAAiAAAiAAAl5JYESTzXMSQunhKzOUiPLhN8McrWj1SiiYNAiAAAiAAAiAAAgMhMCICqnO7h6q4pyoImM7FVa20uf7awcyB/QBARAAARAAARAAAa8k4LGCnF5JA5MGARAAARAAARAAgUEQ8EiO1CDuj64gAAIgAAIgAAIg4LUEIKS89qvDxEEABEAABEAABM42AQips/0N4P4gAAIgAAIgAAJeSwBCymu/OkwcBEAABEAABEDgbBOAkDrb3wDuDwIgAAIgAAIg4LUEIKS89qvDxEEABEAABEAABM42AQips/0N4P4gAAIgAAIgAAJeSwBCymu/OkwcBEAABEAABEDgbBOAkDrb3wDuDwIgAAIgAAIg4LUEIKS89qvDxEEABEAABEAABM42AQips/0N4P4gAAIgAAIgAAJeSwBCymu/OkwcBEAABEAABEDgbBP4/wOZpI568849AAAAAElFTkSuQmCC;" vertex="1" parent="1">
          <mxGeometry x="681" y="1806.5" width="489.39" height="203.5" as="geometry" />
        </mxCell>
        <mxCell id="1CHQfiaJzoFtv51jB6GE-57" value="&lt;div align=&quot;left&quot;&gt;&lt;font style=&quot;font-size: 27px;&quot;&gt;Postorder: 2, 4, 3, 7, 5&lt;br&gt;&lt;/font&gt;&lt;/div&gt;" style="text;html=1;align=left;verticalAlign=middle;resizable=0;points=[];autosize=1;strokeColor=none;fillColor=none;fontFamily=Helvetica;fontSize=11;fontColor=default;labelBackgroundColor=default;" vertex="1" parent="1">
          <mxGeometry x="680" y="1760" width="290" height="50" as="geometry" />
        </mxCell>
        <mxCell id="1CHQfiaJzoFtv51jB6GE-58" value="&lt;font style=&quot;font-size: 19px;&quot;&gt;Call stack&lt;br&gt;&lt;/font&gt;" style="text;html=1;align=center;verticalAlign=middle;resizable=0;points=[];autosize=1;strokeColor=none;fillColor=none;fontFamily=Helvetica;fontSize=11;fontColor=default;labelBackgroundColor=default;" vertex="1" parent="1">
          <mxGeometry x="470" y="1910" width="110" height="40" as="geometry" />
        </mxCell>
        <mxCell id="1CHQfiaJzoFtv51jB6GE-59" value="" style="shape=partialRectangle;whiteSpace=wrap;html=1;bottom=1;right=1;left=1;top=0;fillColor=none;routingCenterX=-0.5;fontFamily=Helvetica;fontSize=11;fontColor=default;labelBackgroundColor=default;strokeWidth=5;" vertex="1" parent="1">
          <mxGeometry x="400" y="1320" width="240" height="580" as="geometry" />
        </mxCell>
        <mxCell id="1CHQfiaJzoFtv51jB6GE-60" value="&lt;div align=&quot;left&quot;&gt;&lt;font style=&quot;font-size: 22px;&quot;&gt;preOrder(5)&lt;/font&gt;&lt;/div&gt;&lt;div style=&quot;font-size: 18px;&quot; align=&quot;left&quot;&gt;&lt;font style=&quot;font-size: 18px;&quot;&gt;- visit(5) ✅&lt;br&gt;&lt;/font&gt;&lt;/div&gt;&lt;div style=&quot;font-size: 18px;&quot; align=&quot;left&quot;&gt;&lt;font style=&quot;font-size: 18px;&quot;&gt;- preOrder(3)&lt;/font&gt;&lt;font style=&quot;font-size: 18px;&quot;&gt; &lt;br&gt;&lt;/font&gt;&lt;/div&gt;&lt;div style=&quot;font-size: 18px;&quot; align=&quot;left&quot;&gt;&lt;font style=&quot;font-size: 18px;&quot;&gt;- preOrder(7) &lt;/font&gt;&lt;font style=&quot;font-size: 18px;&quot;&gt;⬅️&lt;/font&gt;&lt;/div&gt;" style="text;html=1;align=left;verticalAlign=middle;resizable=0;points=[];autosize=1;fontFamily=Helvetica;fontSize=11;labelBackgroundColor=default;" vertex="1" parent="1">
          <mxGeometry x="440" y="1770" width="150" height="100" as="geometry" />
        </mxCell>
        <mxCell id="1CHQfiaJzoFtv51jB6GE-64" value="&lt;div align=&quot;left&quot;&gt;&lt;font style=&quot;font-size: 22px;&quot;&gt;preOrder(t)&lt;/font&gt;&lt;/div&gt;&lt;div style=&quot;font-size: 18px;&quot; align=&quot;left&quot;&gt;&lt;font style=&quot;font-size: 18px;&quot;&gt;- visit(t) &lt;/font&gt;&lt;font style=&quot;font-size: 18px;&quot;&gt;✅&lt;/font&gt;&lt;/div&gt;&lt;div style=&quot;font-size: 18px;&quot; align=&quot;left&quot;&gt;&lt;font style=&quot;font-size: 18px;&quot;&gt;- preOrder(t-&amp;gt;left)&lt;/font&gt;&lt;font style=&quot;font-size: 18px;&quot;&gt; ⬅️&lt;/font&gt;&lt;/div&gt;&lt;div style=&quot;font-size: 18px;&quot; align=&quot;left&quot;&gt;&lt;font style=&quot;font-size: 18px;&quot;&gt;- preOrder(t-&amp;gt;right)&lt;/font&gt;&lt;font style=&quot;font-size: 18px;&quot;&gt;&amp;nbsp;&lt;/font&gt;&lt;/div&gt;" style="text;html=1;align=left;verticalAlign=middle;resizable=0;points=[];autosize=1;fontFamily=Helvetica;fontSize=11;labelBackgroundColor=default;" vertex="1" parent="1">
          <mxGeometry x="190" y="1800" width="190" height="100" as="geometry" />
        </mxCell>
        <mxCell id="1CHQfiaJzoFtv51jB6GE-65" value="template:" style="text;html=1;align=center;verticalAlign=middle;resizable=0;points=[];autosize=1;strokeColor=none;fillColor=none;fontFamily=Helvetica;fontSize=11;fontColor=default;labelBackgroundColor=default;" vertex="1" parent="1">
          <mxGeometry x="180" y="1770" width="70" height="30" as="geometry" />
        </mxCell>
        <mxCell id="1CHQfiaJzoFtv51jB6GE-68" value="preOrder" style="text;html=1;align=center;verticalAlign=middle;resizable=0;points=[];autosize=1;strokeColor=none;fillColor=none;fontFamily=Helvetica;fontSize=20;fontColor=default;labelBackgroundColor=default;" vertex="1" parent="1">
          <mxGeometry x="50" y="1350" width="100" height="40" as="geometry" />
        </mxCell>
        <mxCell id="1CHQfiaJzoFtv51jB6GE-71" value="&lt;h1 style=&quot;font-size: 40px;&quot;&gt;&lt;font style=&quot;font-size: 40px;&quot;&gt;Sample BSTs &lt;/font&gt;&lt;/h1&gt;" style="text;html=1;align=center;verticalAlign=middle;resizable=0;points=[];autosize=1;strokeColor=none;fillColor=none;fontSize=38;" vertex="1" parent="1">
          <mxGeometry x="85" y="-455" width="280" height="120" as="geometry" />
        </mxCell>
        <mxCell id="1CHQfiaJzoFtv51jB6GE-72" value="&lt;h1 style=&quot;font-size: 40px;&quot;&gt;&lt;font style=&quot;font-size: 40px;&quot;&gt;Implement Queue ADT using Stack ADT&lt;/font&gt;&lt;/h1&gt;" style="text;html=1;align=center;verticalAlign=middle;resizable=0;points=[];autosize=1;strokeColor=none;fillColor=none;fontSize=38;" vertex="1" parent="1">
          <mxGeometry x="100" y="-1440" width="780" height="120" as="geometry" />
        </mxCell>
      </root>
    </mxGraphModel>
  </diagram>
</mxfile>
